<svg xmlns="http://www.w3.org/2000/svg" xmlns:xlink="http://www.w3.org/1999/xlink" xmlns:lucid="lucid" width="1715.14" height="2579.92"><g transform="translate(2861 796.0649350649351)" lucid:page-tab-id="2zORYyNSXJel"><path d="M-3000-1000h2000v3000h-2000z" fill="#fff"/><path d="M-1821.03 1606a6 6 0 0 1 6-6h308a6 6 0 0 1 6 6v148a6 6 0 0 1-6 6h-308a6 6 0 0 1-6-6z" stroke="#282c33" stroke-width="2" fill="#fff3d9"/><path d="M-1821.03 1626a6 6 0 0 1 6-6h308a6 6 0 0 1 6 6v125.14a6 6 0 0 1-6 6h-308a6 6 0 0 1-6-6z" fill="none"/><use xlink:href="#a" transform="matrix(1,0,0,1,-1821.02497839642,1620) translate(54.77777777777784 53)"/><use xlink:href="#b" transform="matrix(1,0,0,1,-1821.02497839642,1620) translate(38.05555555555563 100.99999999999999)"/><path d="M-1350-775.07c16.57 0 30 13.44 30 30V-430c0 16.57-13.43 30-30 30h-1460c-16.57 0-30-13.43-30-30v-315.07c0-16.56 13.43-30 30-30z" stroke="#282c33" stroke-width="2" fill="#fff3d9"/><path d="M-2781-534a6 6 0 0 1 6-6h288a6 6 0 0 1 6 6v68a6 6 0 0 1-6 6h-288a6 6 0 0 1-6-6z" stroke="#00c2a8" stroke-width="2" fill="#d7faf5"/><use xlink:href="#c" transform="matrix(1,0,0,1,-2773,-532) translate(51.25 19.72222222222222)"/><use xlink:href="#d" transform="matrix(1,0,0,1,-2773,-532) translate(142.03395061728395 19.72222222222222)"/><use xlink:href="#e" transform="matrix(1,0,0,1,-2773,-532) translate(79.59876543209877 49.05555555555556)"/><use xlink:href="#f" transform="matrix(1,0,0,1,-2773,-532) translate(150.14814814814815 49.05555555555556)"/><path d="M-2230-534a6 6 0 0 1 6-6h288a6 6 0 0 1 6 6v68a6 6 0 0 1-6 6h-288a6 6 0 0 1-6-6z" stroke="#00c2a8" stroke-width="2" fill="#d7faf5"/><use xlink:href="#c" transform="matrix(1,0,0,1,-2222,-532) translate(51.25 19.72222222222222)"/><use xlink:href="#d" transform="matrix(1,0,0,1,-2222,-532) translate(142.03395061728395 19.72222222222222)"/><use xlink:href="#e" transform="matrix(1,0,0,1,-2222,-532) translate(48.53395061728395 49.05555555555556)"/><use xlink:href="#g" transform="matrix(1,0,0,1,-2222,-532) translate(119.08333333333333 49.05555555555556)"/><path d="M-1678-534a6 6 0 0 1 6-6h288a6 6 0 0 1 6 6v68a6 6 0 0 1-6 6h-288a6 6 0 0 1-6-6z" stroke="#00c2a8" stroke-width="2" fill="#d7faf5"/><use xlink:href="#c" transform="matrix(1,0,0,1,-1670,-532) translate(51.25 19.72222222222222)"/><use xlink:href="#d" transform="matrix(1,0,0,1,-1670,-532) translate(142.03395061728395 19.72222222222222)"/><use xlink:href="#h" transform="matrix(1,0,0,1,-1670,-532) translate(45.41049382716051 49.05555555555556)"/><use xlink:href="#i" transform="matrix(1,0,0,1,-1670,-532) translate(133.4783950617284 49.05555555555556)"/><use xlink:href="#j" transform="matrix(1,0,0,1,-1670,-532) translate(191.26234567901236 49.05555555555556)"/><path d="M-2660 1608.86a6 6 0 0 1 6-6h308a6 6 0 0 1 6 6v148a6 6 0 0 1-6 6h-308a6 6 0 0 1-6-6z" stroke="#282c33" stroke-width="2" fill="#fff3d9"/><path d="M-2350 500c16.57 0 30 13.44 30 30v1060c0 16.57-13.43 30-30 30h-300c-16.57 0-30-13.43-30-30V530c0-16.56 13.43-30 30-30zM-1509.83 500c16.57 0 30 13.43 30 30v1060c0 16.57-13.43 30-30 30h-300c-16.56 0-30-13.43-30-30V530c0-16.57 13.44-30 30-30z" stroke="#282c33" stroke-width="2" fill="#fff3d9"/><path d="M-2080-340c-33.12 0-60 26.88-60 60 0 33.24 26.88 60 60 60 33.24 0 60-26.88 60-60 0-33.24-26.76-60-60-60zm15.84 112.08V-238c0-4.08-2.28-7.56-5.4-9.84h.6c5.76-.6 10.68-2.4 10.68-2.4s7.32-2.28 11.4-6.96c4.2-5.16 5.4-12.36 5.4-12.36s1.2-7.92 0-14.28c-1.2-5.88-6-10.32-6-10.32s1.56-4.2 1.32-8.28c0-4.08-1.92-8.16-1.92-8.16s-3.48-.36-7.32 1.2c-4.44 1.92-9.48 5.4-9.48 5.4s-3.48-1.2-7.56-1.56c-3.72-.72-8.16-.72-8.16-.72s-4.44 0-8.28.72c-4.08.6-7.56 1.56-7.56 1.56s-5.04-3.48-9.48-5.4c-3.72-1.56-7.2-1.2-7.2-1.2s-1.92 4.08-1.92 8.16c0 4.2 1.2 8.28 1.2 8.28s-4.32 4.08-5.88 10.32c-1.68 6.36 0 14.28 0 14.28s.84 7.2 5.28 12.36c4.2 4.68 11.4 6.96 11.4 6.96s5.04 1.8 10.68 2.4h.96c-2.16 2.28-4.44 5.76-4.44 9.84v10.08c-22.32-6.6-38.52-27.48-38.52-52.08 0-30 24.36-54.24 54.36-54.24s54.72 24.24 54.72 54.24c0 24.6-16.44 45.48-38.88 52.08z" stroke="#000" stroke-opacity="0" fill="#0078d7"/><use xlink:href="#k" transform="matrix(1,0,0,1,-2170,-211) translate(27.33395061728396 21.511111111111106)"/><use xlink:href="#l" transform="matrix(1,0,0,1,-2170,-211) translate(79.46851851851852 21.511111111111106)"/><use xlink:href="#m" transform="matrix(1,0,0,1,-2170,-211) translate(17.69876543209878 53.777777777777764)"/><use xlink:href="#n" transform="matrix(1,0,0,1,-2170,-211) translate(114.64814814814815 53.777777777777764)"/><use xlink:href="#o" transform="matrix(1,0,0,1,-2170,-211) translate(13.926851851851865 86.04444444444442)"/><use xlink:href="#p" transform="matrix(1,0,0,1,-2170,-211) translate(128.72746913580244 86.04444444444442)"/><use xlink:href="#q" transform="matrix(1,0,0,1,-2170,-211) translate(29.574691358024708 118.31111111111109)"/><use xlink:href="#r" transform="matrix(1,0,0,1,-2170,-211) translate(66.92037037037038 118.31111111111109)"/><use xlink:href="#s" transform="matrix(1,0,0,1,-2170,-211) translate(25.877469135802485 150.57777777777773)"/><path d="M-2020-718.04v73.32l-30.36 24.72-46.68-17.04V-620l-25.92-33.96 76.92 5.64.36-66zm-25.68 3.72l-42.96-25.68v17.04l-39.72 11.64-11.64 15.36v34.68l17.04 7.32v-44.4z" stroke="#000" stroke-opacity="0" stroke-width="3.75" fill="#0078d4"/><path d="M-2088.64-740l42.96 25.68 25.68-3.72v73.32l-30.36 24.72-46.68-17.04V-620l-25.92-33.96-17.04-7.32v-34.68l11.64-15.36 39.72-11.64z" stroke="#000" stroke-opacity="0" stroke-width="0" fill-opacity="0"/><use xlink:href="#t" transform="matrix(1,0,0,1,-2170,-611) translate(2.6858024691358082 21.511111111111106)"/><use xlink:href="#u" transform="matrix(1,0,0,1,-2170,-611) translate(80.29012345679011 21.511111111111106)"/><path d="M-2649.6 223.56l16.22 16.3h26.4c3.2 0 5.8-2.6 5.8-5.8v-61.03l-48.43 48.53c-.6.53-.6 1.47 0 2z" stroke="#000" stroke-opacity="0" fill="#235dc1"/><path d="M-2691 155.72v26.45l16.3 16.26c.52.58 1.45.58 2 0l48.45-48.54h-60.94c-3.2 0-5.8 2.6-5.8 5.82z" stroke="#000" stroke-opacity="0" fill="#3b6ec6"/><path d="M-2629.98 126.15l-39.18 59.97c-1.3 1.98-1 4.66.7 6.45l25.02 25.08c1.78 1.68 4.46 1.98 6.44.7l59.86-39.27c3.86-2.48 6.14-6.74 6.14-11.3v-41.83c0-3.27-2.67-5.95-5.94-5.95h-41.76c-4.55 0-8.8 2.28-11.28 6.15z" stroke="#000" stroke-opacity="0" fill="#5d8de4"/><path d="M-2682.2 231.64v-21.2h-8.8V240h29.96v-8.36h-21.15z" stroke="#000" stroke-opacity="0" fill="#9fbbf0"/><path d="M-2601.03 164.42c8.23 0 14.9-6.7 14.9-14.93 0-8.25-6.67-14.94-14.9-14.94s-14.9 6.7-14.9 14.93 6.67 14.92 14.9 14.92z" stroke="#000" stroke-opacity="0" fill="#adc5f2"/><path d="M-2627.7 169.5l-31.9 31.93 7.35 7.35 31.9-31.94-7.35-7.35z" stroke="#000" stroke-opacity="0" fill="#6c9aee"/><path d="M-2658.6 215.13l6.35-6.34-7.35-7.38-6.34 6.35 7.35 7.36z" stroke="#000" stroke-opacity="0" fill="#88acef"/><path d="M-2688.6 153.94v82h83.53v-82zm.07.1h83.38v81.83h-83.38z" stroke="#000" stroke-opacity="0" stroke-width="0" fill-opacity="0"/><use xlink:href="#v" transform="matrix(1,0,0,1,-2721,249) translate(54.93240740740742 21.511111111111106)"/><use xlink:href="#w" transform="matrix(1,0,0,1,-2721,249) translate(31.85277777777779 53.777777777777764)"/><use xlink:href="#x" transform="matrix(1,0,0,1,-2721,249) translate(46.71635802469137 86.04444444444442)"/><use xlink:href="#y" transform="matrix(1,0,0,1,-2721,249) translate(6.383024691358031 118.31111111111109)"/><use xlink:href="#z" transform="matrix(1,0,0,1,-2721,249) translate(128.80216049382716 118.31111111111109)"/><use xlink:href="#A" transform="matrix(1,0,0,1,-2721,249) translate(22.85246913580248 150.57777777777773)"/><use xlink:href="#B" transform="matrix(1,0,0,1,-2721,249) translate(97.46913580246914 150.57777777777773)"/><path d="M-2098.6 223.56l16.22 16.3h26.4c3.2 0 5.8-2.6 5.8-5.8v-61.03l-48.43 48.53c-.6.53-.6 1.47 0 2z" stroke="#000" stroke-opacity="0" fill="#235dc1"/><path d="M-2140 155.72v26.45l16.3 16.26c.52.58 1.45.58 2 0l48.45-48.54h-60.94c-3.2 0-5.8 2.6-5.8 5.82z" stroke="#000" stroke-opacity="0" fill="#3b6ec6"/><path d="M-2078.98 126.15l-39.18 59.97c-1.3 1.98-1 4.66.7 6.45l25.02 25.08c1.78 1.68 4.46 1.98 6.44.7l59.87-39.27c3.85-2.48 6.13-6.74 6.13-11.3v-41.83c0-3.27-2.67-5.95-5.94-5.95h-41.76c-4.55 0-8.8 2.28-11.28 6.15z" stroke="#000" stroke-opacity="0" fill="#5d8de4"/><path d="M-2131.2 231.64v-21.2h-8.8V240h29.96v-8.36h-21.15z" stroke="#000" stroke-opacity="0" fill="#9fbbf0"/><path d="M-2050.03 164.42c8.23 0 14.9-6.7 14.9-14.93 0-8.25-6.67-14.94-14.9-14.94s-14.9 6.7-14.9 14.93 6.67 14.92 14.9 14.92z" stroke="#000" stroke-opacity="0" fill="#adc5f2"/><path d="M-2076.7 169.5l-31.9 31.93 7.35 7.35 31.9-31.94-7.35-7.35z" stroke="#000" stroke-opacity="0" fill="#6c9aee"/><path d="M-2107.6 215.13l6.35-6.34-7.35-7.38-6.34 6.35 7.35 7.36z" stroke="#000" stroke-opacity="0" fill="#88acef"/><path d="M-2137.6 153.94v82h83.53v-82zm.07.1h83.38v81.83h-83.38z" stroke="#000" stroke-opacity="0" stroke-width="0" fill-opacity="0"/><use xlink:href="#v" transform="matrix(1,0,0,1,-2170,249) translate(54.93240740740742 21.511111111111106)"/><use xlink:href="#w" transform="matrix(1,0,0,1,-2170,249) translate(31.85277777777779 53.777777777777764)"/><use xlink:href="#x" transform="matrix(1,0,0,1,-2170,249) translate(46.71635802469137 86.04444444444442)"/><use xlink:href="#y" transform="matrix(1,0,0,1,-2170,249) translate(6.383024691358031 118.31111111111109)"/><use xlink:href="#z" transform="matrix(1,0,0,1,-2170,249) translate(128.80216049382716 118.31111111111109)"/><use xlink:href="#A" transform="matrix(1,0,0,1,-2170,249) translate(22.85246913580248 150.57777777777773)"/><use xlink:href="#B" transform="matrix(1,0,0,1,-2170,249) translate(97.46913580246914 150.57777777777773)"/><path d="M-1546.6 223.56l16.22 16.3h26.4c3.2 0 5.8-2.6 5.8-5.8v-61.03l-48.43 48.53c-.6.53-.6 1.47 0 2z" stroke="#000" stroke-opacity="0" fill="#235dc1"/><path d="M-1588 155.72v26.45l16.3 16.26c.52.58 1.46.58 2 0l48.45-48.54h-60.94c-3.2 0-5.8 2.6-5.8 5.82z" stroke="#000" stroke-opacity="0" fill="#3b6ec6"/><path d="M-1526.98 126.15l-39.18 59.97c-1.3 1.98-1 4.66.7 6.45l25.02 25.08c1.8 1.68 4.46 1.98 6.44.7l59.87-39.27c3.85-2.48 6.13-6.74 6.13-11.3v-41.83c0-3.27-2.67-5.95-5.94-5.95h-41.76c-4.55 0-8.8 2.28-11.28 6.15z" stroke="#000" stroke-opacity="0" fill="#5d8de4"/><path d="M-1579.2 231.64v-21.2h-8.8V240h29.96v-8.36h-21.15z" stroke="#000" stroke-opacity="0" fill="#9fbbf0"/><path d="M-1498.03 164.42c8.23 0 14.9-6.7 14.9-14.93 0-8.25-6.67-14.94-14.9-14.94s-14.9 6.7-14.9 14.93 6.67 14.92 14.9 14.92z" stroke="#000" stroke-opacity="0" fill="#adc5f2"/><path d="M-1524.7 169.5l-31.9 31.93 7.35 7.35 31.9-31.94-7.35-7.35z" stroke="#000" stroke-opacity="0" fill="#6c9aee"/><path d="M-1555.6 215.13l6.35-6.34-7.35-7.38-6.34 6.35 7.35 7.36z" stroke="#000" stroke-opacity="0" fill="#88acef"/><path d="M-1585.6 153.94v82h83.53v-82zm.07.1h83.38v81.83h-83.38z" stroke="#000" stroke-opacity="0" stroke-width="0" fill-opacity="0"/><use xlink:href="#v" transform="matrix(1,0,0,1,-1618,249) translate(54.93240740740742 21.511111111111106)"/><use xlink:href="#w" transform="matrix(1,0,0,1,-1618,249) translate(31.85277777777779 53.777777777777764)"/><use xlink:href="#C" transform="matrix(1,0,0,1,-1618,249) translate(48.247530864197536 86.04444444444442)"/><use xlink:href="#D" transform="matrix(1,0,0,1,-1618,249) translate(8.661111111111126 118.31111111111109)"/><use xlink:href="#E" transform="matrix(1,0,0,1,-1618,249) translate(123.5364197530864 118.31111111111109)"/><path d="M-2560 1432.7h120v67.3c0 2.22-1.8 4-3.96 4h-112.08c-2.16 0-3.96-1.78-3.96-4v-67.3z" stroke="#000" stroke-opacity="0" fill="url(#F)"/><path d="M-2547.24 1439.8h95.48c2.7 0 4.04 1.3 4.04 3.98v49.06c0 2.68-1.34 4-4.04 4h-95.48c-2.7 0-4.04-1.32-4.04-4v-49.06c0-2.68 1.35-4 4.04-4z" stroke="#000" stroke-opacity="0" fill="#5ea0ef" fill-opacity=".6"/><path d="M-2556.04 1407h112.08c2.16 0 3.96 1.8 3.96 4.02v21.7h-120v-21.68c0-2.23 1.8-4.03 3.96-4.03z" stroke="#000" stroke-opacity="0" fill="#005ba1"/><path d="M-2512.6 1483.82l-2.1 2.14c-.38.38-1.02.4-1.4.02v-.02l-15.5-15.66c-.75-.75-.75-1.98 0-2.75l2.17-2.15 16.82 17.04c.37.37.37 1 0 1.38zm24.37 0l2.1 2.14c.06 0 .06 0 .06.02.38.38.95.36 1.33-.02l15.5-15.66c.75-.75.75-1.98 0-2.75l-2.17-2.15-16.83 17.04c-.38.37-.38 1 0 1.38z" stroke="#000" stroke-opacity="0" fill="#fff" fill-opacity=".8"/><path d="M-2514.45 1451.73l2.16 2.14c.4.38.4 1 0 1.37l-17.13 17.24-2.16-2.17c-.75-.74-.75-1.97 0-2.72l15.82-15.88c.38-.37.95-.35 1.33.03zm28.06 0l-2.15 2.14c-.38.38-.38 1 0 1.37l17.2 17.24 2.1-2.15c.76-.77.76-2 0-2.75l-15.8-15.85v-.03c-.4-.35-.96-.35-1.34.03zM-2505.6 1491.45l-3.4-1.1c-.37-.1-.55-.52-.44-.9l13.9-43.72c.12-.37.47-.6.83-.46h.05l3.4 1.1c.36.1.57.47.47.8l-.02.04-13.92 43.83c-.12.37-.5.56-.83.42h-.04zM-2538.9 1420.96c0 2.82-2.28 5.1-5.05 5.1-2.8 0-5.08-2.28-5.08-5.1 0-2.8 2.27-5.1 5.08-5.1 2.77 0 5.04 2.3 5.04 5.1zm10.87-5.1c-2.77 0-5.04 2.3-5.04 5.1 0 2.82 2.27 5.1 5.04 5.1 2.8 0 5.08-2.28 5.08-5.1 0-2.8-2.27-5.1-5.08-5.1zm15.92 0c-2.8 0-5.05 2.3-5.05 5.1 0 2.82 2.26 5.1 5.04 5.1 2.8 0 5.07-2.28 5.07-5.1s-2.27-5.1-5.08-5.1z" stroke="#000" stroke-opacity="0" fill="#fff"/><use xlink:href="#G" transform="matrix(1,0,0,1,-2590,1513.0057600287992) translate(13.1111111111111 21.333333333333336)"/><use xlink:href="#H" transform="matrix(1,0,0,1,-2590,1513.0057600287992) translate(94.44444444444444 21.333333333333336)"/><use xlink:href="#I" transform="matrix(1,0,0,1,-2590,1513.0057600287992) translate(32.666666666666664 53.333333333333336)"/><use xlink:href="#J" transform="matrix(1,0,0,1,-2590,1513.0057600287992) translate(95.7037037037037 53.333333333333336)"/><path d="M-2441.96 1176.26c1.1-1.1.9-3.18 0-4.35l-5.8-5.8-25.87-25.23c-1.14-1.1-2.8-1.1-4.14 0-1.14 1.17-1.48 3.24 0 4.35l27.2 26.7c1.1 1.16 1.1 3.23 0 4.34l-27.77 27.65c-1.1 1.12-1.1 3.2 0 4.36 1.14 1.1 3.2.9 4.14 0l25.67-25.6.2-.2 6.37-6.2zM-2560.44 1176.26c-1.1-1.1-.9-3.18 0-4.35l5.8-5.8 25.87-25.23c1.14-1.1 2.8-1.1 4.14 0 1.14 1.17 1.48 3.24 0 4.35l-26.62 26.7c-1.1 1.16-1.1 3.23 0 4.34l27.2 27.65c1.1 1.12 1.1 3.2 0 4.36-1.15 1.1-3.2.9-4.15 0l-26.24-25.24-.2-.14-5.8-6.63z" stroke="#000" stroke-opacity="0" stroke-width="2.34" fill="#3999c6"/><path d="M-2471.95 1120h-36.58l-19.66 55.73 24 .1-18.75 55.18 51.74-73.6h-25.14l24.4-37.4z" stroke="#000" stroke-opacity="0" stroke-width="2.34" fill="#fcd116"/><path d="M-2496.35 1157.4l24.4-37.4h-19.13l-20.22 46.3 23.95.22-35.6 64.5 51.74-73.6h-25.15z" stroke="#000" stroke-opacity="0" stroke-width="2.34" fill="#ff8c00" fill-opacity=".3"/><path d="M-2507.3 1122.38l-5.7 19.15-14.53.94-32.2 31.54 32.3 32.7 12.45 5.2-5.8 14.25 11.85-16.55 30.58-1.35 34.88-34.04-31.86-31.94-11.86-.52 11.52-19.67z" stroke="#000" stroke-opacity="0" stroke-width="0" fill-opacity="0"/><use xlink:href="#K" transform="matrix(1,0,0,1,-2591.199974292478,1240.0057600287992) translate(53.03703703703703 21.333333333333336)"/><use xlink:href="#L" transform="matrix(1,0,0,1,-2591.199974292478,1240.0057600287992) translate(4.407407407407391 53.333333333333336)"/><use xlink:href="#J" transform="matrix(1,0,0,1,-2591.199974292478,1240.0057600287992) translate(123.96296296296296 53.333333333333336)"/><path d="M-2464.5 947.76c-10.8 8.32-22.44 12.24-35.98 12.24-17.94 0-35.64-8.08-47.28-23.28-19.96-26.02-14.97-63.33 11.05-83.28 10.8-8.32 23.5-12.24 36.1-12.24 17.82 0 35.52 8.08 47.16 23.28 19.96 26.02 14.97 63.32-11.05 83.28" stroke="#000" stroke-opacity="0" stroke-width="3" fill="#59b4d9"/><path d="M-2475.4 911c4.3 5.64 12.3 6.67 17.9 2.36.3-.2.53-.4.74-.72 5.82 4.1 9.7 6.77 11.96 8.2.65-1.63 1.2-3.27 1.62-5.02-3.66-2.77-6.68-5.12-10.24-8 1.5-4 1.08-8.6-1.72-12.3-3.88-5.13-10.88-6.46-16.5-3.28-7-6.36-12.9-11.9-19.7-18.56 21.87-11.8 37.28-10.05 37.28-10.05-2.6-3.28-5.5-6.15-8.52-8.72-9.26-1.42-23.48-1.32-39.75 7.4-6.04-6.36-11-11.8-16.6-18.36-2.9.92-5.27 1.85-7.86 3.18 4.1 6.87 9.7 13.64 16.06 20.4-6.25 4.4-11.2 8.72-16.48 14.36-.76.72-1.4 1.44-2.05 2.15-3.34-.7-6.46-.5-9.8.72-5.28-11.7-4.85-21.02-4.1-25.74-2.26 2.37-4.4 5.04-6.35 7.7-1.4 5.75-1.84 14.05 2.37 24-5.07 6.56-5.07 15.28 0 21.74.43.6.86 1.13 1.3 1.54-2.06 7.18-3.14 13.43-3.46 20.8.53.84.53 1.45 1.07 2.17 2.9 3.7 6.46 6.77 9.9 9.53-.42-6.56 0-16.2 4.1-27.07 2.9.32 5.5-.1 8.3-1.32 1.5 1.33 3.02 2.77 4.74 4.1 5.72 4.5 10.9 7.8 17.36 11.08-.32 3.07.43 5.84 2.26 8.3 4 5.23 11.42 6.16 16.6 2.16 1.07-.82 1.93-1.64 2.7-2.88 9.15 2.06 17.23 2.47 23.26 2.47.86 0 5.17-5.84 7.65-9.43-3.66.82-14.55 2.26-29.3-1.95-.33-1.84-.98-3.28-2.16-4.7-3.66-4.94-10.56-5.96-15.62-2.68-6.04-3.28-10.78-6.46-16.16-10.66l-3.14-2.67c3.45-5.63 3.77-12.1.75-17.94.66-.7 1.3-1.33 2.06-2.05 5.5-5.1 10.67-9.22 15.52-12.5l-.65-.6.65.6c7.32 6.87 15.2 13.33 22.62 19.18-1.94 4.1-1.6 9.23 1.4 13.12z" stroke="#000" stroke-opacity="0" stroke-width="3" fill="#fff"/><use xlink:href="#G" transform="matrix(1,0,0,1,-2590,968.9999999999999) translate(23.018518518518505 21.333333333333336)"/><use xlink:href="#M" transform="matrix(1,0,0,1,-2590,968.9999999999999) translate(104.35185185185185 21.333333333333336)"/><use xlink:href="#N" transform="matrix(1,0,0,1,-2590,968.9999999999999) translate(42.092592592592595 53.333333333333336)"/><path d="M-2660 1628.86a6 6 0 0 1 6-6h308a6 6 0 0 1 6 6V1754a6 6 0 0 1-6 6h-308a6 6 0 0 1-6-6z" fill="none"/><use xlink:href="#O" transform="matrix(1,0,0,1,-2660,1622.857142857143) translate(86.88888888888893 53)"/><use xlink:href="#b" transform="matrix(1,0,0,1,-2660,1622.857142857143) translate(38.05555555555563 100.99999999999999)"/><path d="M-2545.5 556.4v87.23c0 9 20.38 16.37 45.5 16.37V556.4h-45.5z" stroke="#000" stroke-opacity="0" stroke-width="3" fill="#0072c6"/><path d="M-2500.62 660h.64c25.1 0 45.48-7.36 45.48-16.37V556.4h-46.12V660z" stroke="#000" stroke-opacity="0" stroke-width="3" fill="#0072c6"/><path d="M-2500.62 660h.64c25.1 0 45.48-7.36 45.48-16.37V556.4h-46.12V660z" stroke="#000" stroke-opacity="0" stroke-width="3" fill="#fff" fill-opacity=".15"/><path d="M-2454.5 556.4c0 9.04-20.38 16.4-45.5 16.4s-45.5-7.36-45.5-16.4c0-9.06 20.38-16.4 45.5-16.4s45.5 7.34 45.5 16.4" stroke="#000" stroke-opacity="0" stroke-width="3" fill="#fff"/><path d="M-2463.8 555.45c0 5.97-16.22 10.82-36.2 10.82-19.98 0-36.2-4.85-36.2-10.82 0-5.97 16.22-10.82 36.2-10.82 19.98 0 36.2 4.85 36.2 10.82" stroke="#000" stroke-opacity="0" stroke-width="3" fill="#7fba00"/><path d="M-2471.4 562.06c4.78-1.83 7.6-4.1 7.6-6.6 0-5.98-16.22-10.83-36.2-10.83-19.98 0-36.2 4.85-36.2 10.83 0 2.5 2.83 4.77 7.6 6.6 6.6-2.56 16.94-4.2 28.6-4.2s22 1.64 28.6 4.2" stroke="#000" stroke-opacity="0" stroke-width="3" fill="#b8d432"/><path d="M-2514.43 616.93c0 2.72-1 4.82-3 6.3-1.93 1.48-4.72 2.24-8.15 2.24-3 0-5.43-.54-7.43-1.6v-6.4c2.28 1.96 4.78 2.94 7.56 2.94 1.36 0 2.36-.28 3.08-.8.7-.53 1.07-1.22 1.07-2.12 0-.87-.28-1.6-1-2.25-.7-.65-2.14-1.44-4.28-2.46-4.36-2.06-6.57-4.85-6.57-8.36 0-2.55.93-4.62 2.85-6.17 1.93-1.56 4.43-2.32 7.65-2.32 2.8 0 5.07.38 6.93 1.1v5.97c-1.93-1.34-4.14-2-6.57-2-1.28 0-2.2.26-3 .8-.7.48-1.07 1.24-1.07 2.1 0 .9.3 1.63.93 2.2.57.6 1.72 1.3 3.58 2.14 2.64 1.28 4.57 2.58 5.7 3.88 1.15 1.3 1.72 2.9 1.72 4.85zm30.86-6.44c0 3.32-.8 6.25-2.3 8.7-1.56 2.5-3.7 4.2-6.5 5.22l8.37 7.67h-8.43l-5.93-6.63c-2.57-.1-4.86-.76-6.93-2.02-2-1.24-3.63-2.97-4.7-5.14-1.15-2.16-1.72-4.6-1.72-7.26 0-2.93.64-5.57 1.86-7.9 1.2-2.3 2.86-4.12 5.07-5.35 2.22-1.27 4.73-1.9 7.5-1.9 2.66 0 5.08.63 7.16 1.82 2.07 1.23 3.7 2.93 4.85 5.18 1.16 2.2 1.73 4.74 1.73 7.6zm-6.8.32c0-2.9-.63-5.17-1.92-6.84-1.2-1.7-3-2.53-5.2-2.53-2.22 0-4 .83-5.36 2.53-1.36 1.7-2 3.94-2 6.73 0 2.8.64 5.04 1.93 6.7 1.36 1.67 3.07 2.5 5.28 2.5 2.22 0 4-.8 5.3-2.42 1.35-1.63 2-3.84 2-6.66zm28.66 14.14h-17.1l.02-28.58h6.43v23.38h10.64z" stroke="#000" stroke-opacity="0" stroke-width="3" fill="#fff"/><use xlink:href="#P" transform="matrix(1,0,0,1,-2575.5,668.9999999999998) translate(26.759259259259252 21.333333333333336)"/><use xlink:href="#Q" transform="matrix(1,0,0,1,-2575.5,668.9999999999998) translate(16.351851851851848 53.333333333333336)"/><path d="M-1719.83 1432.7h120v67.3c0 2.22-1.8 4-3.96 4h-112.07c-2.16 0-3.96-1.78-3.96-4v-67.3z" stroke="#000" stroke-opacity="0" fill="url(#R)"/><path d="M-1707.06 1439.8h95.48c2.7 0 4.04 1.3 4.04 3.98v49.05c0 2.68-1.35 4-4.04 4h-95.48c-2.7 0-4.04-1.32-4.04-4v-49.05c0-2.68 1.34-4 4.04-4z" stroke="#000" stroke-opacity="0" fill="#5ea0ef" fill-opacity=".6"/><path d="M-1715.87 1407h112.08c2.17 0 3.97 1.8 3.97 4v21.7h-120v-21.66c0-2.24 1.8-4.04 3.96-4.04z" stroke="#000" stroke-opacity="0" fill="#005ba1"/><path d="M-1672.43 1483.8l-2.1 2.16c-.38.37-1 .4-1.4.02v-.02l-15.48-15.66c-.77-.76-.77-2 0-2.76l2.14-2.15 16.83 17.03c.38.38.38 1 0 1.38zm24.37 0l2.1 2.16c.06 0 .06 0 .06.02.38.37.95.35 1.34-.02l15.48-15.66c.76-.76.76-2 0-2.76l-2.15-2.15-16.83 17.03c-.38.38-.38 1 0 1.38z" stroke="#000" stroke-opacity="0" fill="#fff" fill-opacity=".8"/><path d="M-1674.27 1451.72l2.15 2.15c.38.38.38 1 0 1.37l-17.14 17.23-2.15-2.16c-.77-.75-.77-1.97 0-2.73l15.8-15.87c.37-.38.94-.36 1.33.02zm28.05 0l-2.15 2.15c-.4.38-.4 1 0 1.37l17.2 17.23 2.1-2.14c.75-.78.75-2 0-2.76l-15.8-15.85v-.02c-.4-.36-.97-.36-1.35.02zM-1665.4 1491.44l-3.42-1.1c-.37-.1-.56-.52-.45-.9l13.9-43.7c.12-.38.48-.62.83-.48h.06l3.4 1.12c.36.1.57.46.48.78l-.02.05-13.93 43.82c-.1.37-.5.56-.82.42h-.04zM-1698.73 1420.96c0 2.8-2.27 5.1-5.05 5.1-2.8 0-5.08-2.3-5.08-5.1s2.27-5.1 5.08-5.1c2.78 0 5.05 2.3 5.05 5.1zm10.87-5.1c-2.77 0-5.04 2.3-5.04 5.1s2.27 5.1 5.04 5.1c2.82 0 5.08-2.3 5.08-5.1s-2.26-5.1-5.08-5.1zm15.92 0c-2.77 0-5.04 2.3-5.04 5.1s2.27 5.1 5.04 5.1c2.82 0 5.08-2.3 5.08-5.1 0-2.82-2.27-5.1-5.08-5.1z" stroke="#000" stroke-opacity="0" fill="#fff"/><use xlink:href="#G" transform="matrix(1,0,0,1,-1749.8250041039419,1513) translate(13.1111111111111 21.333333333333336)"/><use xlink:href="#H" transform="matrix(1,0,0,1,-1749.8250041039419,1513) translate(94.44444444444444 21.333333333333336)"/><use xlink:href="#I" transform="matrix(1,0,0,1,-1749.8250041039419,1513) translate(32.666666666666664 53.333333333333336)"/><use xlink:href="#J" transform="matrix(1,0,0,1,-1749.8250041039419,1513) translate(95.7037037037037 53.333333333333336)"/><path d="M-1601.8 1176.25c1.12-1.1.93-3.17 0-4.35l-5.8-5.8-25.86-25.24c-1.14-1.1-2.8-1.1-4.14 0-1.14 1.18-1.48 3.25 0 4.35l27.2 26.7c1.1 1.18 1.1 3.25 0 4.35l-27.77 27.66c-1.1 1.1-1.1 3.18 0 4.36 1.14 1.1 3.2.9 4.14 0l25.67-25.6.2-.2 6.38-6.2zM-1720.27 1176.25c-1.1-1.1-.9-3.17 0-4.35l5.82-5.8 25.86-25.24c1.15-1.1 2.82-1.1 4.15 0 1.14 1.18 1.48 3.25 0 4.35l-26.63 26.7c-1.1 1.18-1.1 3.25 0 4.35l27.2 27.66c1.1 1.1 1.1 3.18 0 4.36-1.14 1.1-3.2.9-4.14 0l-26.25-25.25-.18-.13-5.82-6.62z" stroke="#000" stroke-opacity="0" stroke-width="2.34" fill="#3999c6"/><path d="M-1631.78 1120h-36.58l-19.65 55.72 23.97.1-18.74 55.18 51.73-73.6h-25.12l24.38-37.4z" stroke="#000" stroke-opacity="0" stroke-width="2.34" fill="#fcd116"/><path d="M-1656.18 1157.4l24.42-37.4h-19.14l-20.23 46.3 23.95.2-35.6 64.5 51.74-73.6h-25.14z" stroke="#000" stroke-opacity="0" stroke-width="2.34" fill="#ff8c00" fill-opacity=".3"/><path d="M-1667.13 1122.38l-5.7 19.15-14.53.93-32.2 31.54 32.32 32.68 12.44 5.2-5.8 14.26 11.84-16.55 30.58-1.36 34.88-34.03-31.85-31.95-11.86-.52 11.5-19.67z" stroke="#000" stroke-opacity="0" stroke-width="0" fill-opacity="0"/><use xlink:href="#K" transform="matrix(1,0,0,1,-1751.02497839642,1240) translate(53.03703703703703 21.333333333333336)"/><use xlink:href="#L" transform="matrix(1,0,0,1,-1751.02497839642,1240) translate(4.407407407407391 53.333333333333336)"/><use xlink:href="#J" transform="matrix(1,0,0,1,-1751.02497839642,1240) translate(123.96296296296296 53.333333333333336)"/><path d="M-1624.3 947.76c-10.82 8.3-22.46 12.23-36 12.23-17.94 0-35.65-8.08-47.3-23.3-19.95-26-14.96-63.3 11.06-83.27 10.8-8.3 23.52-12.24 36.12-12.24 17.82 0 35.52 8.07 47.16 23.28 19.96 26.02 14.97 63.32-11.05 83.28" stroke="#000" stroke-opacity="0" stroke-width="3" fill="#59b4d9"/><path d="M-1635.22 911c4.3 5.64 12.28 6.66 17.88 2.36.33-.2.54-.4.76-.72 5.82 4.1 9.7 6.77 11.96 8.2.64-1.64 1.18-3.28 1.6-5.02-3.65-2.77-6.67-5.13-10.22-8 1.5-4 1.08-8.6-1.73-12.3-3.88-5.13-10.88-6.47-16.48-3.3-7-6.35-12.93-11.88-19.72-18.55 21.87-11.8 37.28-10.05 37.28-10.05-2.57-3.28-5.48-6.15-8.5-8.7-9.27-1.45-23.5-1.35-39.76 7.37-6.03-6.37-11-11.8-16.6-18.37-2.9.93-5.27 1.85-7.86 3.18 4.1 6.88 9.7 13.65 16.06 20.42-6.25 4.4-11.2 8.72-16.5 14.36-.74.7-1.4 1.43-2.03 2.15-3.33-.72-6.46-.5-9.8.72-5.28-11.7-4.85-21.02-4.1-25.74-2.26 2.37-4.4 5.03-6.35 7.7-1.4 5.74-1.83 14.05 2.37 24-5.06 6.56-5.06 15.27 0 21.73.43.62.86 1.13 1.3 1.54-2.05 7.18-3.13 13.44-3.45 20.82.54.8.54 1.43 1.07 2.14 2.9 3.7 6.47 6.77 9.92 9.54-.43-6.56 0-16.2 4.1-27.07 2.9.32 5.48-.1 8.3-1.33 1.5 1.34 3 2.77 4.73 4.1 5.7 4.52 10.87 7.8 17.33 11.08-.32 3.08.44 5.85 2.27 8.3 3.98 5.24 11.42 6.16 16.6 2.16 1.07-.8 1.93-1.63 2.68-2.86 9.16 2.05 17.24 2.46 23.27 2.46.87 0 5.18-5.84 7.65-9.43-3.66.82-14.54 2.25-29.3-1.95-.33-1.85-.97-3.28-2.16-4.72-3.66-4.92-10.55-5.95-15.62-2.67-6.03-3.28-10.77-6.46-16.16-10.66l-3.13-2.67c3.45-5.64 3.78-12.1.76-17.94.64-.72 1.28-1.34 2.04-2.05 5.5-5.12 10.66-9.22 15.5-12.5l-.63-.62c.22.2.44.4.65.62 7.33 6.87 15.2 13.33 22.63 19.17-1.94 4.1-1.62 9.23 1.4 13.13z" stroke="#000" stroke-opacity="0" stroke-width="3" fill="#fff"/><use xlink:href="#G" transform="matrix(1,0,0,1,-1749.8250041039419,968.9942399712003) translate(23.018518518518505 21.333333333333336)"/><use xlink:href="#M" transform="matrix(1,0,0,1,-1749.8250041039419,968.9942399712003) translate(104.35185185185185 21.333333333333336)"/><use xlink:href="#N" transform="matrix(1,0,0,1,-1749.8250041039419,968.9942399712003) translate(42.092592592592595 53.333333333333336)"/><path d="M-1706.53 556.4v87.23c0 9 20.4 16.37 45.5 16.37V556.4h-45.5z" stroke="#000" stroke-opacity="0" stroke-width="3" fill="#0072c6"/><path d="M-1661.65 660h.65c25.1 0 45.47-7.36 45.47-16.37V556.4h-46.12V660z" stroke="#000" stroke-opacity="0" stroke-width="3" fill="#0072c6"/><path d="M-1661.65 660h.65c25.1 0 45.47-7.36 45.47-16.37V556.4h-46.12V660z" stroke="#000" stroke-opacity="0" stroke-width="3" fill="#fff" fill-opacity=".15"/><path d="M-1615.53 556.4c0 9.04-20.38 16.4-45.5 16.4-25.1 0-45.5-7.36-45.5-16.4 0-9.06 20.4-16.4 45.5-16.4 25.12 0 45.5 7.34 45.5 16.4" stroke="#000" stroke-opacity="0" stroke-width="3" fill="#fff"/><path d="M-1624.83 555.45c0 5.97-16.2 10.82-36.2 10.82-19.98 0-36.2-4.85-36.2-10.82 0-5.97 16.22-10.82 36.2-10.82 20 0 36.2 4.85 36.2 10.82" stroke="#000" stroke-opacity="0" stroke-width="3" fill="#7fba00"/><path d="M-1632.43 562.06c4.78-1.83 7.6-4.1 7.6-6.6 0-5.98-16.2-10.83-36.2-10.83-19.98 0-36.2 4.85-36.2 10.83 0 2.5 2.83 4.77 7.6 6.6 6.6-2.56 16.95-4.2 28.6-4.2 11.66 0 22 1.64 28.6 4.2" stroke="#000" stroke-opacity="0" stroke-width="3" fill="#b8d432"/><path d="M-1675.46 616.93c0 2.72-1 4.82-3 6.3-1.93 1.48-4.72 2.24-8.14 2.24-3 0-5.44-.54-7.44-1.6v-6.4c2.3 1.96 4.8 2.94 7.58 2.94 1.36 0 2.36-.28 3.07-.8.72-.53 1.08-1.22 1.08-2.12 0-.87-.28-1.6-1-2.25-.7-.65-2.14-1.44-4.3-2.46-4.34-2.06-6.56-4.85-6.56-8.36 0-2.55.93-4.62 2.86-6.17 1.93-1.56 4.43-2.32 7.64-2.32 2.8 0 5.08.38 6.93 1.1v5.97c-1.92-1.34-4.14-2-6.57-2-1.3 0-2.2.26-3 .8-.7.48-1.07 1.24-1.07 2.1 0 .9.3 1.63.94 2.2.57.6 1.7 1.3 3.57 2.14 2.65 1.28 4.58 2.58 5.73 3.88 1.14 1.3 1.7 2.9 1.7 4.85zm30.86-6.44c0 3.32-.78 6.25-2.28 8.7-1.57 2.5-3.72 4.2-6.5 5.22l8.36 7.67h-8.44l-5.92-6.63c-2.58-.1-4.86-.76-6.93-2.02-2.02-1.24-3.66-2.97-4.73-5.14-1.14-2.16-1.7-4.6-1.7-7.26 0-2.93.63-5.57 1.84-7.9 1.23-2.3 2.87-4.12 5.1-5.35 2.2-1.27 4.7-1.9 7.5-1.9 2.63 0 5.06.63 7.13 1.82 2.07 1.23 3.72 2.93 4.86 5.18 1.13 2.2 1.7 4.74 1.7 7.6zm-6.78.32c0-2.9-.65-5.17-1.93-6.84-1.23-1.7-3-2.53-5.23-2.53-2.2 0-4 .83-5.36 2.53-1.34 1.7-2 3.94-2 6.73 0 2.8.66 5.04 1.94 6.7 1.36 1.67 3.07 2.5 5.3 2.5 2.2 0 4-.8 5.28-2.42 1.35-1.63 2-3.84 2-6.66zm28.65 14.14h-17.08v-28.58h6.42v23.38h10.65z" stroke="#000" stroke-opacity="0" stroke-width="3" fill="#fff"/><g><use xlink:href="#S" transform="matrix(1,0,0,1,-1736.52497839642,668.9999999999998) translate(30.462962962962962 21.333333333333336)"/><use xlink:href="#T" transform="matrix(1,0,0,1,-1736.52497839642,668.9999999999998) translate(5.351851851851848 53.333333333333336)"/><use xlink:href="#U" transform="matrix(1,0,0,1,-1736.52497839642,668.9999999999998) translate(16.351851851851848 85.33333333333334)"/></g><path d="M-2146.92 901.08h-287.4v-.96h287.4zm429.4 0h-287.4v-.96h287.4z" stroke="#3a414a" stroke-width=".05" fill="#3a414a"/><path d="M-2427.3 908.24l-12.9-7.64 12.9-7.64z" fill="#3a414a"/><path d="M-2426.83 909.07l-14.32-8.47 14.32-8.47zm-12.45-8.47l11.5 6.8v-13.6z" stroke="#3a414a" stroke-width=".05" fill="#3a414a"/><path d="M-1711.62 900.6l-12.9 7.64v-15.28z" fill="#3a414a"/><path d="M-1710.7 900.6l-14.3 8.47v-16.94zm-13.36 6.8l11.5-6.8-11.5-6.8z" stroke="#3a414a" stroke-width=".05" fill="#3a414a"/><g><use xlink:href="#V" transform="matrix(1,0,0,1,-2146.9162276701136,884.5999871462391) translate(0 21.33333333333333)"/><use xlink:href="#W" transform="matrix(1,0,0,1,-2146.9162276701136,884.5999871462391) translate(76.96296296296295 21.33333333333333)"/></g><path d="M-2152.12 1175.97h-282.68v-.94h282.68zm424.68 0h-282.68v-.94h282.68z" stroke="#3a414a" stroke-width=".05" fill="#3a414a"/><path d="M-1721.55 1175.5l-12.9 7.64v-15.28z" fill="#3a414a"/><path d="M-1720.62 1175.5l-14.3 8.47v-16.94zm-13.36 6.8l11.5-6.8-11.5-6.8z" stroke="#3a414a" stroke-width=".05" fill="#3a414a"/><path d="M-2427.77 1183.14l-12.92-7.64 12.93-7.64z" fill="#3a414a"/><path d="M-2427.3 1183.97l-14.32-8.47 14.32-8.47zm-12.45-8.47l11.5 6.8v-13.6z" stroke="#3a414a" stroke-width=".05" fill="#3a414a"/><g><use xlink:href="#X" transform="matrix(1,0,0,1,-2152.116771939537,1159.5) translate(0 21.333333333333332)"/><use xlink:href="#Y" transform="matrix(1,0,0,1,-2152.116771939537,1159.5) translate(76.96296296296295 21.333333333333332)"/></g><path d="M-1528-458.5l-.2 8.84-.53 8.6-.84 7.98-1.1 7.43-1.32 6.97-1.53 6.56-1.73 6.2-1.9 5.9-2.1 5.6-2.26 5.38-2.43 5.16-2.6 4.98-2.78 4.8-2.97 4.7-3.16 4.54-3.37 4.44-3.6 4.35-3.85 4.27-4.12 4.2-4.42 4.16-4.76 4.1-5.14 4.07-5.57 4.05-6.05 4.03-6.63 4.02-7.3 4-8.06 4-9 4-10.07 4-11.43 3.96-13.08 3.95-15.17 3.88-17.88 3.8-21.53 3.63-26.74 3.35-34.9 2.9-50.58 2.03-184.47-1.2" stroke="#3a414a" stroke-linejoin="round" fill="none"/><path d="M-1527.54-458.47l-.95-.02.03-.5h.94z" stroke="#3a414a" stroke-width=".05" fill="#3a414a"/><path d="M-2019.06-280.95l12.96-7.55-.1 15.27z" stroke="#3a414a" fill="#3a414a"/><path d="M-2631-458.5l.2 8.84.53 8.62.84 7.98 1.1 7.45 1.33 6.98 1.54 6.57 1.74 6.22 1.9 5.9 2.1 5.64 2.28 5.4 2.43 5.18 2.6 5 2.8 4.84 2.98 4.7 3.17 4.56 3.4 4.46 3.6 4.38 3.88 4.3 4.14 4.22 4.45 4.17 4.8 4.15 5.16 4.1 5.6 4.07 6.1 4.05 6.7 4.04 7.34 4.05 8.12 4.03 9.06 4.03 10.16 4.03 11.52 4 13.2 3.98 15.3 3.93 18.05 3.82 21.75 3.67 27.03 3.4 35.35 2.92 51.44 2.07 180.43-1.04" stroke="#3a414a" stroke-linejoin="round" fill="none"/><path d="M-2630.5-458.5l-.96.03v-.53h.93z" stroke="#3a414a" stroke-width=".05" fill="#3a414a"/><path d="M-2140.98-279.87l-12.86 7.7-.1-15.26z" stroke="#3a414a" fill="#3a414a"/><path d="M-2080-458.5v111.63" stroke="#3a414a" stroke-linejoin="round" fill="none"/><path d="M-2079.53-458.5h-.94v-.5h.94z" stroke="#3a414a" stroke-width=".05" fill="#3a414a"/><path d="M-2080-340.98l-7.64-12.9h15.28z" stroke="#3a414a" fill="#3a414a"/><path d="M-2019.53-280.95l26.33.55 26.57 1.67 26.18 2.75 25.67 3.8 25.05 4.77 24.32 5.7 23.5 6.56 22.62 7.34 21.7 8.07 20.7 8.7 19.72 9.28 18.7 9.78 17.72 10.22 16.72 10.6 15.76 10.96 14.82 11.26 13.92 11.5 13.05 11.76 12.22 11.96 11.4 12.16 10.67 12.34 9.92 12.5 9.22 12.7 8.55 12.87 7.9 13.05 7.3 13.23 6.66 13.44 6.08 13.66 5.5 13.9 4.93 14.14 4.36 14.44 3.78 14.75 3.22 15.1 2.6 15.45 2.02 15.9 1.37 16.33.7 16.85.03 1.76" stroke="#3a414a" stroke-linejoin="round" fill="none"/><path d="M-2019.5-281.42l-.03.95h-.5l-.03-.96z" stroke="#3a414a" stroke-width=".05" fill="#3a414a"/><path d="M-1528 126.73l-7.78-12.83 15.27-.16z" stroke="#3a414a" fill="#3a414a"/><path d="M-2140.5-279.87l-26.3.55-26.52 1.67-26.15 2.75-25.63 3.78-25 4.77-24.3 5.7-23.46 6.54-22.6 7.33-21.64 8.05-20.67 8.7-19.67 9.24-18.67 9.76-17.68 10.2-16.68 10.58-15.73 10.93-14.77 11.2-13.9 11.5-13 11.7-12.18 11.94-11.4 12.12-10.6 12.3-9.9 12.5-9.2 12.64-8.53 12.83-7.87 13-7.26 13.2-6.66 13.4-6.06 13.62-5.5 13.86-4.9 14.1-4.34 14.4-3.78 14.7-3.2 15.05-2.6 15.42-2 15.83-1.37 16.3-.7 16.8-.03 1.74" stroke="#3a414a" stroke-linejoin="round" fill="none"/><path d="M-2140-280l.03.6h-.54l-.03-.94.54-.02z" stroke="#3a414a" stroke-width=".05" fill="#3a414a"/><path d="M-2631 126.73l-7.5-13 15.28.17z" stroke="#3a414a" fill="#3a414a"/><path d="M-2080-59.5l-.7 181.44" stroke="#3a414a" stroke-linejoin="round" fill="none"/><path d="M-2080-59.48V-60" stroke="#3a414a" fill="none"/><path d="M-2080.72 127.83l-7.58-12.94 15.27.05z" stroke="#3a414a" fill="#3a414a"/><path d="M-1475.02 180l12.16.26 12.13.77 11.67 1.22 11.26 1.66 10.9 2.1 10.56 2.47 10.3 2.87 10.04 3.27 9.83 3.66 9.65 4.06 9.5 4.47 9.35 4.88 9.26 5.35 9.15 5.8 9.1 6.34 9.04 6.86 9 7.46 9 8.1 8.97 8.78 8.98 9.57 9 10.42 9 11.37 9 12.4 9.02 13.6 9 14.88 9 16.34 8.9 18 8.82 19.8 8.63 21.83 8.4 24.1 8 26.6 7.52 29.3 6.84 32.23 5.95 35.33 4.85 38.5 3.48 41.6 1.86 44.53v47.04l-2.07 48.97-4.22 50.12-6.36 50.35-8.4 49.66-10.23 48.1-11.76 45.84-12.98 43.05-13.9 39.95-14.54 36.72-14.9 33.5-15.1 30.4-15.1 27.47-15 24.8-14.8 22.3-14.6 20.1-14.34 18.1-14.05 16.28-13.78 14.67-13.5 13.22-13.23 11.92-13 10.76-12.78 9.7-12.57 8.73-12.4 7.88-12.26 7.07-12.14 6.35-12.05 5.66-11.97 5.05-11.94 4.44-11.95 3.87-11.96 3.34-12.03 2.83-12.1 2.3-12.23 1.8-12.4 1.3-12.57.8-5.92.13" stroke="#3a414a" stroke-linejoin="round" fill="none"/><path d="M-1475 180.5l-1.23-.04 1.23-.8z" stroke="#3a414a" stroke-width=".05" fill="#3a414a"/><path d="M-1598.84 1455.48l12.75-7.9.32 15.26z" stroke="#3a414a" fill="#3a414a"/><path d="M-2578.1 180.26l459.17 279.94 79.9 41.2 61.16 28.34 49.17 20.32 40.75 14.87 34.5 10.98 29.72 8.1 25.94 5.9 22.92 4.23 20.43 2.9 18.4 1.8 16.67.94 5.98.1" stroke="#3a414a" stroke-linejoin="round" fill="none"/><path d="M-2577.84 179.87l-.5.8-.63-.38.88-.6z" stroke="#3a414a" stroke-width=".05" fill="#3a414a"/><path d="M-1707.5 599.98l-13.05 7.4.27-15.26z" stroke="#3a414a" fill="#3a414a"/><path d="M-2027.03 180l3.3.08 3.7.23 3.6.4 3.53.5 3.48.68 3.44.8 3.4.96 3.4 1.1 3.4 1.26 3.42 1.44 3.43 1.62 3.5 1.82 3.52 2.04 3.6 2.3 3.7 2.57 3.82 2.88 3.95 3.28 4.12 3.7 4.3 4.23 4.55 4.84 4.84 5.6 5.18 6.57 5.64 7.78 6.2 9.36 6.98 11.53 8.07 14.7 9.8 19.84 13.44 30.3 66.76 165.5 9.8 19.83 8.08 14.7 6.97 11.53 6.22 9.36 5.64 7.77 5.2 6.55 4.83 5.6 4.54 4.86 4.32 4.24 4.1 3.7 3.96 3.28 3.82 2.9 3.7 2.57 3.6 2.28 3.55 2.04 3.47 1.82 3.44 1.62 3.42 1.44 3.4 1.26 3.4 1.1 3.4.96 3.44.8 3.48.67 3.54.5 3.6.4.63.03" stroke="#3a414a" stroke-linejoin="round" fill="none"/><path d="M-2027.03 180.5l-1.2-.04 1.22-.8z" stroke="#3a414a" stroke-width=".05" fill="#3a414a"/><path d="M-1707.5 599.96l-13.2 7.12.6-15.26z" stroke="#3a414a" fill="#3a414a"/><path d="M-1615.02 600l2.5.06 2.9.2 2.86.3 2.8.4 2.76.53 2.72.63 2.7.75 2.67.87 2.65 1 2.66 1.1 2.66 1.25 2.66 1.4 2.67 1.53 2.67 1.7 2.7 1.9 2.75 2.07 2.77 2.3 2.8 2.52 2.84 2.8 2.9 3.07 2.93 3.4 2.98 3.75 3.02 4.16 3.06 4.63 3.1 5.1 3.1 5.67 3.1 6.26 3.1 6.92 3 7.63 2.92 8.38 2.75 9.1 2.52 9.86 2.24 10.53 1.87 11.1 1.46 11.53.98 11.78.5 11.8v11.6l-.48 11.24-.9 10.7-1.26 10.04-1.58 9.33-1.82 8.57-2.02 7.86-2.15 7.14-2.26 6.5-2.3 5.87-2.38 5.32-2.4 4.82-2.4 4.37-2.4 3.97-2.4 3.6-2.37 3.28-2.36 2.98-2.37 2.73-2.33 2.5-2.33 2.28-2.32 2.08-2.3 1.9-2.3 1.76-2.32 1.6-2.3 1.48-2.34 1.34-2.34 1.22-2.36 1.1-2.4 1-2.4.9-2.46.8-2.5.7-2.56.6-2.62.5-2.68.4-1.75.2" stroke="#3a414a" stroke-linejoin="round" fill="none"/><path d="M-1615 599.54l-.02.95-.5-.02v-.96z" stroke="#3a414a" stroke-width=".05" fill="#3a414a"/><path d="M-1600.05 900.54l12.5-8.28.78 15.25z" stroke="#3a414a" fill="#3a414a"/><path d="M-1615.02 600l5.2.12 5.56.35 5.4.57 5.32.78 5.2 1 5.13 1.2 5.04 1.4 5 1.63 4.97 1.85 4.95 2.08 4.93 2.32 4.92 2.57 4.93 2.85 4.94 3.14 4.98 3.46 5 3.8 5.07 4.2 5.1 4.6 5.2 5.06 5.23 5.6 5.3 6.14 5.38 6.8 5.45 7.5 5.5 8.28 5.56 9.18 5.58 10.15 5.57 11.24 5.52 12.42 5.42 13.7 5.24 15.07 4.97 16.5 4.6 17.9 4.1 19.28 3.46 20.53 2.72 21.53 1.87 22.26.93 22.57v22.5l-.92 22-1.76 21.18-2.54 20.08-3.17 18.78-3.7 17.38-4.08 15.96-4.4 14.57-4.6 13.24-4.76 12.02-4.85 10.87-4.88 9.83-4.9 8.9-4.88 8.08-4.87 7.33-4.82 6.64-4.78 6.04-4.74 5.5-4.7 5.03-4.68 4.57-4.64 4.18-4.62 3.82-4.6 3.5-4.58 3.18-4.6 2.9-4.6 2.66-4.6 2.4-4.64 2.2-4.68 1.96-4.73 1.76-4.78 1.56-4.87 1.36-4.96 1.16-5.08.97-5.2.78-5.33.56-4.33.27" stroke="#3a414a" stroke-linejoin="round" fill="none"/><path d="M-1615 599.54l-.02.95-.5-.02v-.96z" stroke="#3a414a" stroke-width=".05" fill="#3a414a"/><path d="M-1600.5 1175.47l12.68-8 .43 15.27z" stroke="#3a414a" fill="#3a414a"/><defs><path fill="#3a414a" d="M24-248c93 1 206-16 204 79-1 75-69 88-152 82V0H24v-248zm52 121c47 0 100 7 100-41 0-47-54-39-100-39v80" id="Z"/><path fill="#3a414a" d="M135-150c-39-12-60 13-60 57V0H25l-1-190h47c2 13-1 29 3 40 6-28 27-53 61-41v41" id="aa"/><path fill="#3a414a" d="M110-194c64 0 96 36 96 99 0 64-35 99-97 99-61 0-95-36-95-99 0-62 34-99 96-99zm-1 164c35 0 45-28 45-65 0-40-10-65-43-65-34 0-45 26-45 65 0 36 10 65 43 65" id="ab"/><path fill="#3a414a" d="M88-194c31-1 46 15 58 34l-1-101h50l1 261h-48c-2-10 0-23-3-31C134-8 116 4 84 4 32 4 16-41 15-95c0-56 19-97 73-99zm17 164c33 0 40-30 41-66 1-37-9-64-41-64s-38 30-39 65c0 43 13 65 39 65" id="ac"/><path fill="#3a414a" d="M85 4C-2 5 27-109 22-190h50c7 57-23 150 33 157 60-5 35-97 40-157h50l1 190h-47c-2-12 1-28-3-38-12 25-28 42-61 42" id="ad"/><path fill="#3a414a" d="M190-63c-7 42-38 67-86 67-59 0-84-38-90-98-12-110 154-137 174-36l-49 2c-2-19-15-32-35-32-30 0-35 28-38 64-6 74 65 87 74 30" id="ae"/><path fill="#3a414a" d="M115-3C79 11 28 4 28-45v-112H4v-33h27l15-45h31v45h36v33H77v99c-1 23 16 31 38 25v30" id="af"/><path fill="#3a414a" d="M25-224v-37h50v37H25zM25 0v-190h50V0H25" id="ag"/><path fill="#3a414a" d="M135-194c87-1 58 113 63 194h-50c-7-57 23-157-34-157-59 0-34 97-39 157H25l-1-190h47c2 12-1 28 3 38 12-26 28-41 61-42" id="ah"/><g id="a"><use transform="matrix(0.11111111111111105,0,0,0.11111111111111105,0,0)" xlink:href="#Z"/><use transform="matrix(0.11111111111111105,0,0,0.11111111111111105,26.66666666666665,0)" xlink:href="#aa"/><use transform="matrix(0.11111111111111105,0,0,0.11111111111111105,42.2222222222222,0)" xlink:href="#ab"/><use transform="matrix(0.11111111111111105,0,0,0.11111111111111105,66.55555555555551,0)" xlink:href="#ac"/><use transform="matrix(0.11111111111111105,0,0,0.11111111111111105,90.88888888888883,0)" xlink:href="#ad"/><use transform="matrix(0.11111111111111105,0,0,0.11111111111111105,115.22222222222213,0)" xlink:href="#ae"/><use transform="matrix(0.11111111111111105,0,0,0.11111111111111105,137.44444444444434,0)" xlink:href="#af"/><use transform="matrix(0.11111111111111105,0,0,0.11111111111111105,150.66666666666657,0)" xlink:href="#ag"/><use transform="matrix(0.11111111111111105,0,0,0.11111111111111105,161.7777777777777,0)" xlink:href="#ab"/><use transform="matrix(0.11111111111111105,0,0,0.11111111111111105,186.111111111111,0)" xlink:href="#ah"/></g><path fill="#3a414a" d="M24 0v-248h195v40H76v63h132v40H76v65h150V0H24" id="ai"/><path fill="#3a414a" d="M128 0H69L1-190h53L99-40l48-150h52" id="aj"/><path fill="#3a414a" d="M220-157c-53 9-28 100-34 157h-49v-107c1-27-5-49-29-50C55-147 81-57 75 0H25l-1-190h47c2 12-1 28 3 38 10-53 101-56 108 0 13-22 24-43 59-42 82 1 51 116 57 194h-49v-107c-1-25-5-48-29-50" id="ak"/><path fill="#3a414a" d="M185-48c-13 30-37 53-82 52C43 2 14-33 14-96s30-98 90-98c62 0 83 45 84 108H66c0 31 8 55 39 56 18 0 30-7 34-22zm-45-69c5-46-57-63-70-21-2 6-4 13-4 21h74" id="al"/><g id="b"><use transform="matrix(0.11111111111111105,0,0,0.11111111111111105,0,0)" xlink:href="#ai"/><use transform="matrix(0.11111111111111105,0,0,0.11111111111111105,26.66666666666665,0)" xlink:href="#ah"/><use transform="matrix(0.11111111111111105,0,0,0.11111111111111105,50.99999999999997,0)" xlink:href="#aj"/><use transform="matrix(0.11111111111111105,0,0,0.11111111111111105,73.22222222222219,0)" xlink:href="#ag"/><use transform="matrix(0.11111111111111105,0,0,0.11111111111111105,84.33333333333329,0)" xlink:href="#aa"/><use transform="matrix(0.11111111111111105,0,0,0.11111111111111105,99.88888888888883,0)" xlink:href="#ab"/><use transform="matrix(0.11111111111111105,0,0,0.11111111111111105,124.22222222222216,0)" xlink:href="#ah"/><use transform="matrix(0.11111111111111105,0,0,0.11111111111111105,148.55555555555546,0)" xlink:href="#ak"/><use transform="matrix(0.11111111111111105,0,0,0.11111111111111105,184.111111111111,0)" xlink:href="#al"/><use transform="matrix(0.11111111111111105,0,0,0.11111111111111105,206.3333333333332,0)" xlink:href="#ah"/><use transform="matrix(0.11111111111111105,0,0,0.11111111111111105,230.66666666666654,0)" xlink:href="#af"/></g><path fill="#3a414a" d="M230 0l2-204L168 0h-37L68-204 70 0H24v-248h70l56 185 57-185h69V0h-46" id="am"/><path fill="#3a414a" d="M133-34C117-15 103 5 69 4 32 3 11-16 11-54c-1-60 55-63 116-61 1-26-3-47-28-47-18 1-26 9-28 27l-52-2c7-38 36-58 82-57s74 22 75 68l1 82c-1 14 12 18 25 15v27c-30 8-71 5-69-32zm-48 3c29 0 43-24 42-57-32 0-66-3-65 30 0 17 8 27 23 27" id="an"/><path fill="#3a414a" d="M25 0v-261h50V0H25" id="ao"/><g id="c"><use transform="matrix(0.06790123456790123,0,0,0.06790123456790123,0,0)" xlink:href="#am"/><use transform="matrix(0.06790123456790123,0,0,0.06790123456790123,20.30246913580247,0)" xlink:href="#an"/><use transform="matrix(0.06790123456790123,0,0,0.06790123456790123,33.882716049382715,0)" xlink:href="#ah"/><use transform="matrix(0.06790123456790123,0,0,0.06790123456790123,48.75308641975309,0)" xlink:href="#ad"/><use transform="matrix(0.06790123456790123,0,0,0.06790123456790123,63.623456790123456,0)" xlink:href="#an"/><use transform="matrix(0.06790123456790123,0,0,0.06790123456790123,77.2037037037037,0)" xlink:href="#ao"/></g><path fill="#3a414a" d="M136-208V0H84v-208H4v-40h212v40h-80" id="ap"/><path fill="#3a414a" d="M195-6C206 82 75 100 31 46c-4-6-6-13-8-21l49-6c3 16 16 24 34 25 40 0 42-37 40-79-11 22-30 35-61 35-53 0-70-43-70-97 0-56 18-96 73-97 30 0 46 14 59 34l2-30h47zm-90-29c32 0 41-27 41-63 0-35-9-62-40-62-32 0-39 29-40 63 0 36 9 62 39 62" id="aq"/><path fill="#3a414a" d="M35-132v-50h50v50H35zM35 0v-49h50V0H35" id="ar"/><g id="d"><use transform="matrix(0.06790123456790123,0,0,0.06790123456790123,0,0)" xlink:href="#ap"/><use transform="matrix(0.06790123456790123,0,0,0.06790123456790123,13.512345679012345,0)" xlink:href="#aa"/><use transform="matrix(0.06790123456790123,0,0,0.06790123456790123,23.018518518518515,0)" xlink:href="#ag"/><use transform="matrix(0.06790123456790123,0,0,0.06790123456790123,29.808641975308642,0)" xlink:href="#aq"/><use transform="matrix(0.06790123456790123,0,0,0.06790123456790123,44.67901234567901,0)" xlink:href="#aq"/><use transform="matrix(0.06790123456790123,0,0,0.06790123456790123,59.54938271604938,0)" xlink:href="#al"/><use transform="matrix(0.06790123456790123,0,0,0.06790123456790123,73.12962962962962,0)" xlink:href="#aa"/><use transform="matrix(0.06790123456790123,0,0,0.06790123456790123,82.6358024691358,0)" xlink:href="#ar"/></g><path fill="#3a414a" d="M169-182c-1-43-94-46-97-3 18 66 151 10 154 114 3 95-165 93-204 36-6-8-10-19-12-30l50-8c3 46 112 56 116 5-17-69-150-10-154-114-4-87 153-88 188-35 5 8 8 18 10 28" id="as"/><path fill="#3a414a" d="M231 0h-52l-39-155L100 0H48L-1-190h46L77-45c9-52 24-97 36-145h53l37 145 32-145h46" id="at"/><path fill="#3a414a" d="M135-194c53 0 70 44 70 98 0 56-19 98-73 100-31 1-45-17-59-34 3 33 2 69 2 105H25l-1-265h48c2 10 0 23 3 31 11-24 29-35 60-35zM114-30c33 0 39-31 40-66 0-38-9-64-40-64-56 0-55 130 0 130" id="au"/><g id="e"><use transform="matrix(0.06790123456790123,0,0,0.06790123456790123,0,0)" xlink:href="#as"/><use transform="matrix(0.06790123456790123,0,0,0.06790123456790123,16.296296296296294,0)" xlink:href="#at"/><use transform="matrix(0.06790123456790123,0,0,0.06790123456790123,35.30864197530864,0)" xlink:href="#an"/><use transform="matrix(0.06790123456790123,0,0,0.06790123456790123,48.888888888888886,0)" xlink:href="#au"/></g><path fill="#3a414a" d="M199 0l-22-63H83L61 0H9l90-248h61L250 0h-51zm-33-102l-36-108c-10 38-24 72-36 108h72" id="av"/><path fill="#3a414a" d="M24 0v-248h52V0H24" id="aw"/><path fill="#3a414a" d="M137-138c1-29-70-34-71-4 15 46 118 7 119 86 1 83-164 76-172 9l43-7c4 19 20 25 44 25 33 8 57-30 24-41C81-84 22-81 20-136c-2-80 154-74 161-7" id="ax"/><g id="f"><use transform="matrix(0.06790123456790123,0,0,0.06790123456790123,0,0)" xlink:href="#av"/><use transform="matrix(0.06790123456790123,0,0,0.06790123456790123,17.586419753086417,0)" xlink:href="#Z"/><use transform="matrix(0.06790123456790123,0,0,0.06790123456790123,33.88271604938271,0)" xlink:href="#aw"/><use transform="matrix(0.06790123456790123,0,0,0.06790123456790123,40.672839506172835,0)" xlink:href="#ax"/></g><path fill="#3a414a" d="M76-208v77h127v40H76V0H24v-248h183v40H76" id="ay"/><g id="g"><use transform="matrix(0.06790123456790123,0,0,0.06790123456790123,0,0)" xlink:href="#ay"/><use transform="matrix(0.06790123456790123,0,0,0.06790123456790123,14.87037037037037,0)" xlink:href="#ad"/><use transform="matrix(0.06790123456790123,0,0,0.06790123456790123,29.74074074074074,0)" xlink:href="#ah"/><use transform="matrix(0.06790123456790123,0,0,0.06790123456790123,44.611111111111114,0)" xlink:href="#ae"/><use transform="matrix(0.06790123456790123,0,0,0.06790123456790123,58.19135802469136,0)" xlink:href="#af"/><use transform="matrix(0.06790123456790123,0,0,0.06790123456790123,66.27160493827161,0)" xlink:href="#ag"/><use transform="matrix(0.06790123456790123,0,0,0.06790123456790123,73.06172839506173,0)" xlink:href="#ab"/><use transform="matrix(0.06790123456790123,0,0,0.06790123456790123,87.93209876543209,0)" xlink:href="#ah"/><use transform="matrix(0.06790123456790123,0,0,0.06790123456790123,102.80246913580247,0)" xlink:href="#ax"/></g><path fill="#3a414a" d="M24-248c120-7 223 5 221 122C244-46 201 0 124 0H24v-248zM76-40c74 7 117-18 117-86 0-67-45-88-117-82v168" id="az"/><path fill="#3a414a" d="M123 10C108 53 80 86 19 72V37c35 8 53-11 59-39L3-190h52l48 148c12-52 28-100 44-148h51" id="aA"/><g id="h"><use transform="matrix(0.06790123456790123,0,0,0.06790123456790123,0,0)" xlink:href="#az"/><use transform="matrix(0.06790123456790123,0,0,0.06790123456790123,17.586419753086417,0)" xlink:href="#al"/><use transform="matrix(0.06790123456790123,0,0,0.06790123456790123,31.166666666666664,0)" xlink:href="#au"/><use transform="matrix(0.06790123456790123,0,0,0.06790123456790123,46.03703703703703,0)" xlink:href="#ao"/><use transform="matrix(0.06790123456790123,0,0,0.06790123456790123,52.827160493827165,0)" xlink:href="#ab"/><use transform="matrix(0.06790123456790123,0,0,0.06790123456790123,67.69753086419753,0)" xlink:href="#aA"/></g><path fill="#3a414a" d="M275 0h-61l-44-196L126 0H64L0-248h53L97-49l45-199h58l43 199 44-199h52" id="aB"/><path fill="#3a414a" d="M135-194c52 0 70 43 70 98 0 56-19 99-73 100-30 1-46-15-58-35L72 0H24l1-261h50v104c11-23 29-37 60-37zM114-30c31 0 40-27 40-66 0-37-7-63-39-63s-41 28-41 65c0 36 8 64 40 64" id="aC"/><g id="i"><use transform="matrix(0.06790123456790123,0,0,0.06790123456790123,0,0)" xlink:href="#aB"/><use transform="matrix(0.06790123456790123,0,0,0.06790123456790123,22.543209876543205,0)" xlink:href="#al"/><use transform="matrix(0.06790123456790123,0,0,0.06790123456790123,36.123456790123456,0)" xlink:href="#aC"/></g><g id="j"><use transform="matrix(0.06790123456790123,0,0,0.06790123456790123,0,0)" xlink:href="#av"/><use transform="matrix(0.06790123456790123,0,0,0.06790123456790123,17.586419753086417,0)" xlink:href="#au"/><use transform="matrix(0.06790123456790123,0,0,0.06790123456790123,32.456790123456784,0)" xlink:href="#au"/></g><path d="M30-248c87 1 191-15 191 75 0 78-77 80-158 76V0H30v-248zm33 125c57 0 124 11 124-50 0-59-68-47-124-48v98" id="aD"/><path d="M84 4C-5 8 30-112 23-190h32v120c0 31 7 50 39 49 72-2 45-101 50-169h31l1 190h-30c-1-10 1-25-2-33-11 22-28 36-60 37" id="aE"/><path d="M24 0v-261h32V0H24" id="aF"/><g id="k"><use transform="matrix(0.07469135802469135,0,0,0.07469135802469135,0,0)" xlink:href="#aD"/><use transform="matrix(0.07469135802469135,0,0,0.07469135802469135,17.925925925925924,0)" xlink:href="#aE"/><use transform="matrix(0.07469135802469135,0,0,0.07469135802469135,32.86419753086419,0)" xlink:href="#aF"/><use transform="matrix(0.07469135802469135,0,0,0.07469135802469135,38.764814814814805,0)" xlink:href="#aF"/></g><path d="M30 0v-248h33v221h125V0H30" id="aG"/><path d="M141-36C126-15 110 5 73 4 37 3 15-17 15-53c-1-64 63-63 125-63 3-35-9-54-41-54-24 1-41 7-42 31l-33-3c5-37 33-52 76-52 45 0 72 20 72 64v82c-1 20 7 32 28 27v20c-31 9-61-2-59-35zM48-53c0 20 12 33 32 33 41-3 63-29 60-74-43 2-92-5-92 41" id="aH"/><path d="M59-47c-2 24 18 29 38 22v24C64 9 27 4 27-40v-127H5v-23h24l9-43h21v43h35v23H59v120" id="aI"/><path d="M100-194c63 0 86 42 84 106H49c0 40 14 67 53 68 26 1 43-12 49-29l28 8c-11 28-37 45-77 45C44 4 14-33 15-96c1-61 26-98 85-98zm52 81c6-60-76-77-97-28-3 7-6 17-6 28h103" id="aJ"/><path d="M135-143c-3-34-86-38-87 0 15 53 115 12 119 90S17 21 10-45l28-5c4 36 97 45 98 0-10-56-113-15-118-90-4-57 82-63 122-42 12 7 21 19 24 35" id="aK"/><g id="l"><use transform="matrix(0.07469135802469135,0,0,0.07469135802469135,0,0)" xlink:href="#aG"/><use transform="matrix(0.07469135802469135,0,0,0.07469135802469135,14.938271604938269,0)" xlink:href="#aH"/><use transform="matrix(0.07469135802469135,0,0,0.07469135802469135,29.876543209876537,0)" xlink:href="#aI"/><use transform="matrix(0.07469135802469135,0,0,0.07469135802469135,37.34567901234567,0)" xlink:href="#aJ"/><use transform="matrix(0.07469135802469135,0,0,0.07469135802469135,52.283950617283935,0)" xlink:href="#aK"/><use transform="matrix(0.07469135802469135,0,0,0.07469135802469135,65.72839506172838,0)" xlink:href="#aI"/></g><path d="M137 0h-34L2-248h35l83 218 83-218h36" id="aL"/><path d="M114-163C36-179 61-72 57 0H25l-1-190h30c1 12-1 29 2 39 6-27 23-49 58-41v29" id="aM"/><path d="M24-231v-30h32v30H24zM24 0v-190h32V0H24" id="aN"/><path d="M100-194c62-1 85 37 85 99 1 63-27 99-86 99S16-35 15-95c0-66 28-99 85-99zM99-20c44 1 53-31 53-75 0-43-8-75-51-75s-53 32-53 75 10 74 51 75" id="aO"/><path d="M117-194c89-4 53 116 60 194h-32v-121c0-31-8-49-39-48C34-167 62-67 57 0H25l-1-190h30c1 10-1 24 2 32 11-22 29-35 61-36" id="aP"/><g id="m"><use transform="matrix(0.07469135802469135,0,0,0.07469135802469135,0,0)" xlink:href="#aL"/><use transform="matrix(0.07469135802469135,0,0,0.07469135802469135,16.432098765432098,0)" xlink:href="#aJ"/><use transform="matrix(0.07469135802469135,0,0,0.07469135802469135,31.370370370370367,0)" xlink:href="#aM"/><use transform="matrix(0.07469135802469135,0,0,0.07469135802469135,40.258641975308635,0)" xlink:href="#aK"/><use transform="matrix(0.07469135802469135,0,0,0.07469135802469135,53.70308641975308,0)" xlink:href="#aN"/><use transform="matrix(0.07469135802469135,0,0,0.07469135802469135,59.603703703703694,0)" xlink:href="#aO"/><use transform="matrix(0.07469135802469135,0,0,0.07469135802469135,74.54197530864197,0)" xlink:href="#aP"/></g><path d="M206 0h-36l-40-164L89 0H53L-1-190h32L70-26l43-164h34l41 164 42-164h31" id="aQ"/><path d="M106-169C34-169 62-67 57 0H25v-261h32l-1 103c12-21 28-36 61-36 89 0 53 116 60 194h-32v-121c2-32-8-49-39-48" id="aR"/><g id="n"><use transform="matrix(0.07469135802469135,0,0,0.07469135802469135,0,0)" xlink:href="#aQ"/><use transform="matrix(0.07469135802469135,0,0,0.07469135802469135,19.34506172839506,0)" xlink:href="#aN"/><use transform="matrix(0.07469135802469135,0,0,0.07469135802469135,25.245679012345676,0)" xlink:href="#aI"/><use transform="matrix(0.07469135802469135,0,0,0.07469135802469135,32.71481481481481,0)" xlink:href="#aR"/></g><path d="M16-82v-28h88v28H16" id="aS"/><path d="M80-196l47-18 7 23-49 13 32 44-20 13-27-46-27 45-21-12 33-44-49-13 8-23 47 19-2-53h23" id="aT"/><g id="o"><use transform="matrix(0.07469135802469135,0,0,0.07469135802469135,0,0)" xlink:href="#aM"/><use transform="matrix(0.07469135802469135,0,0,0.07469135802469135,8.88827160493827,0)" xlink:href="#aJ"/><use transform="matrix(0.07469135802469135,0,0,0.07469135802469135,23.82654320987654,0)" xlink:href="#aF"/><use transform="matrix(0.07469135802469135,0,0,0.07469135802469135,29.727160493827157,0)" xlink:href="#aJ"/><use transform="matrix(0.07469135802469135,0,0,0.07469135802469135,44.66543209876542,0)" xlink:href="#aH"/><use transform="matrix(0.07469135802469135,0,0,0.07469135802469135,59.60370370370369,0)" xlink:href="#aK"/><use transform="matrix(0.07469135802469135,0,0,0.07469135802469135,73.04814814814813,0)" xlink:href="#aJ"/><use transform="matrix(0.07469135802469135,0,0,0.07469135802469135,87.9864197530864,0)" xlink:href="#aS"/><use transform="matrix(0.07469135802469135,0,0,0.07469135802469135,96.87469135802466,0)" xlink:href="#aT"/></g><path d="M177-190C167-65 218 103 67 71c-23-6-38-20-44-43l32-5c15 47 100 32 89-28v-30C133-14 115 1 83 1 29 1 15-40 15-95c0-56 16-97 71-98 29-1 48 16 59 35 1-10 0-23 2-32h30zM94-22c36 0 50-32 50-73 0-42-14-75-50-75-39 0-46 34-46 75s6 73 46 73" id="aU"/><g id="p"><use transform="matrix(0.07469135802469135,0,0,0.07469135802469135,0,0)" xlink:href="#aI"/><use transform="matrix(0.07469135802469135,0,0,0.07469135802469135,7.469135802469134,0)" xlink:href="#aH"/><use transform="matrix(0.07469135802469135,0,0,0.07469135802469135,22.407407407407405,0)" xlink:href="#aU"/></g><g id="q"><use transform="matrix(0.07469135802469135,0,0,0.07469135802469135,0,0)" xlink:href="#aO"/><use transform="matrix(0.07469135802469135,0,0,0.07469135802469135,14.938271604938269,0)" xlink:href="#aP"/></g><path d="M143 4C61 4 22-44 18-125c-5-107 100-154 193-111 17 8 29 25 37 43l-32 9c-13-25-37-40-76-40-61 0-88 39-88 99 0 61 29 100 91 101 35 0 62-11 79-27v-45h-74v-28h105v86C228-13 192 4 143 4" id="aV"/><path d="M197 0v-115H63V0H30v-248h33v105h134v-105h34V0h-34" id="aW"/><path d="M115-194c53 0 69 39 70 98 0 66-23 100-70 100C84 3 66-7 56-30L54 0H23l1-261h32v101c10-23 28-34 59-34zm-8 174c40 0 45-34 45-75 0-40-5-75-45-74-42 0-51 32-51 76 0 43 10 73 51 73" id="aX"/><g id="r"><use transform="matrix(0.07469135802469135,0,0,0.07469135802469135,0,0)" xlink:href="#aV"/><use transform="matrix(0.07469135802469135,0,0,0.07469135802469135,20.913580246913575,0)" xlink:href="#aN"/><use transform="matrix(0.07469135802469135,0,0,0.07469135802469135,26.81419753086419,0)" xlink:href="#aI"/><use transform="matrix(0.07469135802469135,0,0,0.07469135802469135,34.283333333333324,0)" xlink:href="#aW"/><use transform="matrix(0.07469135802469135,0,0,0.07469135802469135,53.62839506172838,0)" xlink:href="#aE"/><use transform="matrix(0.07469135802469135,0,0,0.07469135802469135,68.56666666666665,0)" xlink:href="#aX"/></g><path d="M233-177c-1 41-23 64-60 70L243 0h-38l-65-103H63V0H30v-248c88 3 205-21 203 71zM63-129c60-2 137 13 137-47 0-61-80-42-137-45v92" id="aY"/><path d="M115-194c55 1 70 41 70 98S169 2 115 4C84 4 66-9 55-30l1 105H24l-1-265h31l2 30c10-21 28-34 59-34zm-8 174c40 0 45-34 45-75s-6-73-45-74c-42 0-51 32-51 76 0 43 10 73 51 73" id="aZ"/><path d="M179-190L93 31C79 59 56 82 12 73V49c39 6 53-20 64-50L1-190h34L92-34l54-156h33" id="ba"/><g id="s"><use transform="matrix(0.07469135802469135,0,0,0.07469135802469135,0,0)" xlink:href="#aY"/><use transform="matrix(0.07469135802469135,0,0,0.07469135802469135,19.34506172839506,0)" xlink:href="#aJ"/><use transform="matrix(0.07469135802469135,0,0,0.07469135802469135,34.28333333333333,0)" xlink:href="#aZ"/><use transform="matrix(0.07469135802469135,0,0,0.07469135802469135,49.2216049382716,0)" xlink:href="#aO"/><use transform="matrix(0.07469135802469135,0,0,0.07469135802469135,64.15987654320986,0)" xlink:href="#aK"/><use transform="matrix(0.07469135802469135,0,0,0.07469135802469135,77.6043209876543,0)" xlink:href="#aN"/><use transform="matrix(0.07469135802469135,0,0,0.07469135802469135,83.50493827160491,0)" xlink:href="#aI"/><use transform="matrix(0.07469135802469135,0,0,0.07469135802469135,90.97407407407405,0)" xlink:href="#aO"/><use transform="matrix(0.07469135802469135,0,0,0.07469135802469135,105.9123456790123,0)" xlink:href="#aM"/><use transform="matrix(0.07469135802469135,0,0,0.07469135802469135,114.80061728395059,0)" xlink:href="#ba"/></g><path d="M205 0l-28-72H64L36 0H1l101-248h38L239 0h-34zm-38-99l-47-123c-12 45-31 82-46 123h93" id="bb"/><path d="M9 0v-24l116-142H16v-24h144v24L44-24h123V0H9" id="bc"/><g id="t"><use transform="matrix(0.07469135802469135,0,0,0.07469135802469135,0,0)" xlink:href="#bb"/><use transform="matrix(0.07469135802469135,0,0,0.07469135802469135,17.925925925925924,0)" xlink:href="#bc"/><use transform="matrix(0.07469135802469135,0,0,0.07469135802469135,31.370370370370367,0)" xlink:href="#aE"/><use transform="matrix(0.07469135802469135,0,0,0.07469135802469135,46.30864197530863,0)" xlink:href="#aM"/><use transform="matrix(0.07469135802469135,0,0,0.07469135802469135,55.19691358024689,0)" xlink:href="#aJ"/></g><path d="M30-248c118-7 216 8 213 122C240-48 200 0 122 0H30v-248zM63-27c89 8 146-16 146-99s-60-101-146-95v194" id="bd"/><path d="M108 0H70L1-190h34L89-25l56-165h34" id="be"/><path d="M140-251c81 0 123 46 123 126C263-46 219 4 140 4 59 4 17-45 17-125s42-126 123-126zm0 227c63 0 89-41 89-101s-29-99-89-99c-61 0-89 39-89 99S79-25 140-24" id="bf"/><g id="u"><use transform="matrix(0.07469135802469135,0,0,0.07469135802469135,0,0)" xlink:href="#bd"/><use transform="matrix(0.07469135802469135,0,0,0.07469135802469135,19.34506172839506,0)" xlink:href="#aJ"/><use transform="matrix(0.07469135802469135,0,0,0.07469135802469135,34.28333333333333,0)" xlink:href="#be"/><use transform="matrix(0.07469135802469135,0,0,0.07469135802469135,47.72777777777778,0)" xlink:href="#bf"/><use transform="matrix(0.07469135802469135,0,0,0.07469135802469135,68.64135802469136,0)" xlink:href="#aZ"/><use transform="matrix(0.07469135802469135,0,0,0.07469135802469135,83.57962962962962,0)" xlink:href="#aK"/></g><g id="v"><use transform="matrix(0.07469135802469135,0,0,0.07469135802469135,0,0)" xlink:href="#bb"/><use transform="matrix(0.07469135802469135,0,0,0.07469135802469135,17.925925925925924,0)" xlink:href="#bc"/><use transform="matrix(0.07469135802469135,0,0,0.07469135802469135,31.370370370370367,0)" xlink:href="#aE"/><use transform="matrix(0.07469135802469135,0,0,0.07469135802469135,46.30864197530863,0)" xlink:href="#aM"/><use transform="matrix(0.07469135802469135,0,0,0.07469135802469135,55.19691358024689,0)" xlink:href="#aJ"/></g><path d="M33-154v-36h34v36H33zM33 0v-36h34V0H33" id="bg"/><g id="w"><use transform="matrix(0.07469135802469135,0,0,0.07469135802469135,0,0)" xlink:href="#aD"/><use transform="matrix(0.07469135802469135,0,0,0.07469135802469135,17.925925925925924,0)" xlink:href="#aN"/><use transform="matrix(0.07469135802469135,0,0,0.07469135802469135,23.82654320987654,0)" xlink:href="#aZ"/><use transform="matrix(0.07469135802469135,0,0,0.07469135802469135,38.764814814814805,0)" xlink:href="#aJ"/><use transform="matrix(0.07469135802469135,0,0,0.07469135802469135,53.70308641975308,0)" xlink:href="#aF"/><use transform="matrix(0.07469135802469135,0,0,0.07469135802469135,59.603703703703694,0)" xlink:href="#aN"/><use transform="matrix(0.07469135802469135,0,0,0.07469135802469135,65.50432098765431,0)" xlink:href="#aP"/><use transform="matrix(0.07469135802469135,0,0,0.07469135802469135,80.44259259259258,0)" xlink:href="#aJ"/><use transform="matrix(0.07469135802469135,0,0,0.07469135802469135,95.38086419753085,0)" xlink:href="#aK"/><use transform="matrix(0.07469135802469135,0,0,0.07469135802469135,108.8253086419753,0)" xlink:href="#bg"/></g><path d="M232-93c-1 65-40 97-104 97C67 4 28-28 28-90v-158h33c8 89-33 224 67 224 102 0 64-133 71-224h33v155" id="bh"/><path d="M85-194c31 0 48 13 60 33l-1-100h32l1 261h-30c-2-10 0-23-3-31C134-8 116 4 85 4 32 4 16-35 15-94c0-66 23-100 70-100zm9 24c-40 0-46 34-46 75 0 40 6 74 45 74 42 0 51-32 51-76 0-42-9-74-50-73" id="bi"/><g id="x"><use transform="matrix(0.07469135802469135,0,0,0.07469135802469135,0,0)" xlink:href="#bh"/><use transform="matrix(0.07469135802469135,0,0,0.07469135802469135,19.34506172839506,0)" xlink:href="#aZ"/><use transform="matrix(0.07469135802469135,0,0,0.07469135802469135,34.28333333333333,0)" xlink:href="#bi"/><use transform="matrix(0.07469135802469135,0,0,0.07469135802469135,49.2216049382716,0)" xlink:href="#aH"/><use transform="matrix(0.07469135802469135,0,0,0.07469135802469135,64.15987654320986,0)" xlink:href="#aI"/><use transform="matrix(0.07469135802469135,0,0,0.07469135802469135,71.629012345679,0)" xlink:href="#aJ"/></g><g id="y"><use transform="matrix(0.07469135802469135,0,0,0.07469135802469135,0,0)" xlink:href="#bd"/><use transform="matrix(0.07469135802469135,0,0,0.07469135802469135,19.34506172839506,0)" xlink:href="#aH"/><use transform="matrix(0.07469135802469135,0,0,0.07469135802469135,34.28333333333333,0)" xlink:href="#aI"/><use transform="matrix(0.07469135802469135,0,0,0.07469135802469135,41.752469135802464,0)" xlink:href="#aH"/><use transform="matrix(0.07469135802469135,0,0,0.07469135802469135,56.690740740740736,0)" xlink:href="#aX"/><use transform="matrix(0.07469135802469135,0,0,0.07469135802469135,71.629012345679,0)" xlink:href="#aH"/><use transform="matrix(0.07469135802469135,0,0,0.07469135802469135,86.56728395061727,0)" xlink:href="#aK"/><use transform="matrix(0.07469135802469135,0,0,0.07469135802469135,100.01172839506171,0)" xlink:href="#aJ"/></g><g id="z"><use transform="matrix(0.07469135802469135,0,0,0.07469135802469135,0,0)" xlink:href="#aH"/><use transform="matrix(0.07469135802469135,0,0,0.07469135802469135,14.938271604938269,0)" xlink:href="#aP"/><use transform="matrix(0.07469135802469135,0,0,0.07469135802469135,29.876543209876537,0)" xlink:href="#bi"/></g><path d="M185-189c-5-48-123-54-124 2 14 75 158 14 163 119 3 78-121 87-175 55-17-10-28-26-33-46l33-7c5 56 141 63 141-1 0-78-155-14-162-118-5-82 145-84 179-34 5 7 8 16 11 25" id="bj"/><g id="A"><use transform="matrix(0.07469135802469135,0,0,0.07469135802469135,0,0)" xlink:href="#bj"/><use transform="matrix(0.07469135802469135,0,0,0.07469135802469135,17.925925925925924,0)" xlink:href="#aQ"/><use transform="matrix(0.07469135802469135,0,0,0.07469135802469135,37.27098765432098,0)" xlink:href="#aH"/><use transform="matrix(0.07469135802469135,0,0,0.07469135802469135,52.20925925925926,0)" xlink:href="#aZ"/></g><g id="B"><use transform="matrix(0.07469135802469135,0,0,0.07469135802469135,0,0)" xlink:href="#bj"/><use transform="matrix(0.07469135802469135,0,0,0.07469135802469135,17.925925925925924,0)" xlink:href="#aF"/><use transform="matrix(0.07469135802469135,0,0,0.07469135802469135,23.82654320987654,0)" xlink:href="#aO"/><use transform="matrix(0.07469135802469135,0,0,0.07469135802469135,38.764814814814805,0)" xlink:href="#aI"/><use transform="matrix(0.07469135802469135,0,0,0.07469135802469135,46.233950617283945,0)" xlink:href="#aK"/></g><g id="C"><use transform="matrix(0.07469135802469135,0,0,0.07469135802469135,0,0)" xlink:href="#bd"/><use transform="matrix(0.07469135802469135,0,0,0.07469135802469135,19.34506172839506,0)" xlink:href="#aJ"/><use transform="matrix(0.07469135802469135,0,0,0.07469135802469135,34.28333333333333,0)" xlink:href="#aZ"/><use transform="matrix(0.07469135802469135,0,0,0.07469135802469135,49.2216049382716,0)" xlink:href="#aF"/><use transform="matrix(0.07469135802469135,0,0,0.07469135802469135,55.12222222222221,0)" xlink:href="#aO"/><use transform="matrix(0.07469135802469135,0,0,0.07469135802469135,70.06049382716049,0)" xlink:href="#ba"/></g><path d="M63-220v92h138v28H63V0H30v-248h175v28H63" id="bk"/><g id="D"><use transform="matrix(0.07469135802469135,0,0,0.07469135802469135,0,0)" xlink:href="#bk"/><use transform="matrix(0.07469135802469135,0,0,0.07469135802469135,16.357407407407404,0)" xlink:href="#aM"/><use transform="matrix(0.07469135802469135,0,0,0.07469135802469135,25.245679012345676,0)" xlink:href="#aO"/><use transform="matrix(0.07469135802469135,0,0,0.07469135802469135,40.18395061728394,0)" xlink:href="#aP"/><use transform="matrix(0.07469135802469135,0,0,0.07469135802469135,55.122222222222206,0)" xlink:href="#aI"/><use transform="matrix(0.07469135802469135,0,0,0.07469135802469135,62.59135802469134,0)" xlink:href="#aJ"/><use transform="matrix(0.07469135802469135,0,0,0.07469135802469135,77.52962962962961,0)" xlink:href="#aP"/><use transform="matrix(0.07469135802469135,0,0,0.07469135802469135,92.46790123456788,0)" xlink:href="#bi"/></g><g id="E"><use transform="matrix(0.07469135802469135,0,0,0.07469135802469135,0,0)" xlink:href="#bb"/><use transform="matrix(0.07469135802469135,0,0,0.07469135802469135,17.925925925925924,0)" xlink:href="#aZ"/><use transform="matrix(0.07469135802469135,0,0,0.07469135802469135,32.86419753086419,0)" xlink:href="#aZ"/></g><linearGradient gradientUnits="userSpaceOnUse" id="F" x1="-2500" y1="1504.01" x2="-2500" y2="1407"><stop offset="0%" stop-color="#005ba1"/><stop offset="77.5%" stop-color="#0078d4"/></linearGradient><path d="M199 0l-22-63H83L61 0H9l90-248h61L250 0h-51zm-33-102l-36-108c-10 38-24 72-36 108h72" id="bl"/><path d="M12 0v-35l95-120H19v-35h142v35L67-36h103V0H12" id="bm"/><path d="M85 4C-2 5 27-109 22-190h50c7 57-23 150 33 157 60-5 35-97 40-157h50l1 190h-47c-2-12 1-28-3-38-12 25-28 42-61 42" id="bn"/><path d="M135-150c-39-12-60 13-60 57V0H25l-1-190h47c2 13-1 29 3 40 6-28 27-53 61-41v41" id="bo"/><path d="M185-48c-13 30-37 53-82 52C43 2 14-33 14-96s30-98 90-98c62 0 83 45 84 108H66c0 31 8 55 39 56 18 0 30-7 34-22zm-45-69c5-46-57-63-70-21-2 6-4 13-4 21h74" id="bp"/><g id="G"><use transform="matrix(0.07407407407407408,0,0,0.07407407407407408,0,0)" xlink:href="#bl"/><use transform="matrix(0.07407407407407408,0,0,0.07407407407407408,19.185185185185187,0)" xlink:href="#bm"/><use transform="matrix(0.07407407407407408,0,0,0.07407407407407408,32.51851851851852,0)" xlink:href="#bn"/><use transform="matrix(0.07407407407407408,0,0,0.07407407407407408,48.74074074074075,0)" xlink:href="#bo"/><use transform="matrix(0.07407407407407408,0,0,0.07407407407407408,59.11111111111112,0)" xlink:href="#bp"/></g><path d="M169-182c-1-43-94-46-97-3 18 66 151 10 154 114 3 95-165 93-204 36-6-8-10-19-12-30l50-8c3 46 112 56 116 5-17-69-150-10-154-114-4-87 153-88 188-35 5 8 8 18 10 28" id="bq"/><path d="M115-3C79 11 28 4 28-45v-112H4v-33h27l15-45h31v45h36v33H77v99c-1 23 16 31 38 25v30" id="br"/><path d="M133-34C117-15 103 5 69 4 32 3 11-16 11-54c-1-60 55-63 116-61 1-26-3-47-28-47-18 1-26 9-28 27l-52-2c7-38 36-58 82-57s74 22 75 68l1 82c-1 14 12 18 25 15v27c-30 8-71 5-69-32zm-48 3c29 0 43-24 42-57-32 0-66-3-65 30 0 17 8 27 23 27" id="bs"/><path d="M25-224v-37h50v37H25zM25 0v-190h50V0H25" id="bt"/><path d="M190-63c-7 42-38 67-86 67-59 0-84-38-90-98-12-110 154-137 174-36l-49 2c-2-19-15-32-35-32-30 0-35 28-38 64-6 74 65 87 74 30" id="bu"/><g id="H"><use transform="matrix(0.07407407407407408,0,0,0.07407407407407408,0,0)" xlink:href="#bq"/><use transform="matrix(0.07407407407407408,0,0,0.07407407407407408,17.77777777777778,0)" xlink:href="#br"/><use transform="matrix(0.07407407407407408,0,0,0.07407407407407408,26.592592592592595,0)" xlink:href="#bs"/><use transform="matrix(0.07407407407407408,0,0,0.07407407407407408,41.40740740740741,0)" xlink:href="#br"/><use transform="matrix(0.07407407407407408,0,0,0.07407407407407408,50.22222222222223,0)" xlink:href="#bt"/><use transform="matrix(0.07407407407407408,0,0,0.07407407407407408,57.62962962962964,0)" xlink:href="#bu"/></g><path d="M275 0h-61l-44-196L126 0H64L0-248h53L97-49l45-199h58l43 199 44-199h52" id="bv"/><path d="M135-194c52 0 70 43 70 98 0 56-19 99-73 100-30 1-46-15-58-35L72 0H24l1-261h50v104c11-23 29-37 60-37zM114-30c31 0 40-27 40-66 0-37-7-63-39-63s-41 28-41 65c0 36 8 64 40 64" id="bw"/><g id="I"><use transform="matrix(0.07407407407407408,0,0,0.07407407407407408,0,0)" xlink:href="#bv"/><use transform="matrix(0.07407407407407408,0,0,0.07407407407407408,24.592592592592595,0)" xlink:href="#bp"/><use transform="matrix(0.07407407407407408,0,0,0.07407407407407408,39.40740740740741,0)" xlink:href="#bw"/></g><path d="M135-194c53 0 70 44 70 98 0 56-19 98-73 100-31 1-45-17-59-34 3 33 2 69 2 105H25l-1-265h48c2 10 0 23 3 31 11-24 29-35 60-35zM114-30c33 0 39-31 40-66 0-38-9-64-40-64-56 0-55 130 0 130" id="bx"/><g id="J"><use transform="matrix(0.07407407407407408,0,0,0.07407407407407408,0,0)" xlink:href="#bl"/><use transform="matrix(0.07407407407407408,0,0,0.07407407407407408,19.185185185185187,0)" xlink:href="#bx"/><use transform="matrix(0.07407407407407408,0,0,0.07407407407407408,35.40740740740741,0)" xlink:href="#bx"/></g><g id="K"><use transform="matrix(0.07407407407407408,0,0,0.07407407407407408,0,0)" xlink:href="#bl"/><use transform="matrix(0.07407407407407408,0,0,0.07407407407407408,19.185185185185187,0)" xlink:href="#bm"/><use transform="matrix(0.07407407407407408,0,0,0.07407407407407408,32.51851851851852,0)" xlink:href="#bn"/><use transform="matrix(0.07407407407407408,0,0,0.07407407407407408,48.74074074074075,0)" xlink:href="#bo"/><use transform="matrix(0.07407407407407408,0,0,0.07407407407407408,59.11111111111112,0)" xlink:href="#bp"/></g><path d="M76-208v77h127v40H76V0H24v-248h183v40H76" id="by"/><path d="M135-194c87-1 58 113 63 194h-50c-7-57 23-157-34-157-59 0-34 97-39 157H25l-1-190h47c2 12-1 28 3 38 12-26 28-41 61-42" id="bz"/><path d="M110-194c64 0 96 36 96 99 0 64-35 99-97 99-61 0-95-36-95-99 0-62 34-99 96-99zm-1 164c35 0 45-28 45-65 0-40-10-65-43-65-34 0-45 26-45 65 0 36 10 65 43 65" id="bA"/><g id="L"><use transform="matrix(0.07407407407407408,0,0,0.07407407407407408,0,0)" xlink:href="#by"/><use transform="matrix(0.07407407407407408,0,0,0.07407407407407408,16.222222222222225,0)" xlink:href="#bn"/><use transform="matrix(0.07407407407407408,0,0,0.07407407407407408,32.44444444444445,0)" xlink:href="#bz"/><use transform="matrix(0.07407407407407408,0,0,0.07407407407407408,48.66666666666667,0)" xlink:href="#bu"/><use transform="matrix(0.07407407407407408,0,0,0.07407407407407408,63.48148148148149,0)" xlink:href="#br"/><use transform="matrix(0.07407407407407408,0,0,0.07407407407407408,72.2962962962963,0)" xlink:href="#bt"/><use transform="matrix(0.07407407407407408,0,0,0.07407407407407408,79.70370370370371,0)" xlink:href="#bA"/><use transform="matrix(0.07407407407407408,0,0,0.07407407407407408,95.92592592592594,0)" xlink:href="#bz"/></g><g id="M"><use transform="matrix(0.07407407407407408,0,0,0.07407407407407408,0,0)" xlink:href="#bl"/><use transform="matrix(0.07407407407407408,0,0,0.07407407407407408,19.185185185185187,0)" xlink:href="#bx"/><use transform="matrix(0.07407407407407408,0,0,0.07407407407407408,35.40740740740741,0)" xlink:href="#bx"/></g><path d="M128 0H69L1-190h53L99-40l48-150h52" id="bB"/><g id="N"><use transform="matrix(0.07407407407407408,0,0,0.07407407407407408,0,0)" xlink:href="#bq"/><use transform="matrix(0.07407407407407408,0,0,0.07407407407407408,17.77777777777778,0)" xlink:href="#bp"/><use transform="matrix(0.07407407407407408,0,0,0.07407407407407408,32.592592592592595,0)" xlink:href="#bo"/><use transform="matrix(0.07407407407407408,0,0,0.07407407407407408,42.96296296296297,0)" xlink:href="#bB"/><use transform="matrix(0.07407407407407408,0,0,0.07407407407407408,57.777777777777786,0)" xlink:href="#bt"/><use transform="matrix(0.07407407407407408,0,0,0.07407407407407408,65.18518518518519,0)" xlink:href="#bu"/><use transform="matrix(0.07407407407407408,0,0,0.07407407407407408,80,0)" xlink:href="#bp"/></g><g id="O"><use transform="matrix(0.11111111111111105,0,0,0.11111111111111105,0,0)" xlink:href="#as"/><use transform="matrix(0.11111111111111105,0,0,0.11111111111111105,26.66666666666665,0)" xlink:href="#af"/><use transform="matrix(0.11111111111111105,0,0,0.11111111111111105,39.888888888888864,0)" xlink:href="#an"/><use transform="matrix(0.11111111111111105,0,0,0.11111111111111105,62.11111111111108,0)" xlink:href="#aq"/><use transform="matrix(0.11111111111111105,0,0,0.11111111111111105,86.4444444444444,0)" xlink:href="#ag"/><use transform="matrix(0.11111111111111105,0,0,0.11111111111111105,97.5555555555555,0)" xlink:href="#ah"/><use transform="matrix(0.11111111111111105,0,0,0.11111111111111105,121.88888888888881,0)" xlink:href="#aq"/></g><path d="M195-6C206 82 75 100 31 46c-4-6-6-13-8-21l49-6c3 16 16 24 34 25 40 0 42-37 40-79-11 22-30 35-61 35-53 0-70-43-70-97 0-56 18-96 73-97 30 0 46 14 59 34l2-30h47zm-90-29c32 0 41-27 41-63 0-35-9-62-40-62-32 0-39 29-40 63 0 36 9 62 39 62" id="bC"/><g id="P"><use transform="matrix(0.07407407407407408,0,0,0.07407407407407408,0,0)" xlink:href="#bq"/><use transform="matrix(0.07407407407407408,0,0,0.07407407407407408,17.77777777777778,0)" xlink:href="#br"/><use transform="matrix(0.07407407407407408,0,0,0.07407407407407408,26.592592592592595,0)" xlink:href="#bs"/><use transform="matrix(0.07407407407407408,0,0,0.07407407407407408,41.40740740740741,0)" xlink:href="#bC"/><use transform="matrix(0.07407407407407408,0,0,0.07407407407407408,57.62962962962964,0)" xlink:href="#bt"/><use transform="matrix(0.07407407407407408,0,0,0.07407407407407408,65.03703703703704,0)" xlink:href="#bz"/><use transform="matrix(0.07407407407407408,0,0,0.07407407407407408,81.25925925925927,0)" xlink:href="#bC"/></g><path d="M24-248c120-7 223 5 221 122C244-46 201 0 124 0H24v-248zM76-40c74 7 117-18 117-86 0-67-45-88-117-82v168" id="bD"/><path d="M137-138c1-29-70-34-71-4 15 46 118 7 119 86 1 83-164 76-172 9l43-7c4 19 20 25 44 25 33 8 57-30 24-41C81-84 22-81 20-136c-2-80 154-74 161-7" id="bE"/><g id="Q"><use transform="matrix(0.07407407407407408,0,0,0.07407407407407408,0,0)" xlink:href="#bD"/><use transform="matrix(0.07407407407407408,0,0,0.07407407407407408,19.185185185185187,0)" xlink:href="#bs"/><use transform="matrix(0.07407407407407408,0,0,0.07407407407407408,34,0)" xlink:href="#br"/><use transform="matrix(0.07407407407407408,0,0,0.07407407407407408,42.814814814814824,0)" xlink:href="#bs"/><use transform="matrix(0.07407407407407408,0,0,0.07407407407407408,57.62962962962964,0)" xlink:href="#bw"/><use transform="matrix(0.07407407407407408,0,0,0.07407407407407408,73.85185185185186,0)" xlink:href="#bs"/><use transform="matrix(0.07407407407407408,0,0,0.07407407407407408,88.66666666666667,0)" xlink:href="#bE"/><use transform="matrix(0.07407407407407408,0,0,0.07407407407407408,103.4814814814815,0)" xlink:href="#bp"/></g><linearGradient gradientUnits="userSpaceOnUse" id="R" x1="-1659.83" y1="1504.01" x2="-1659.83" y2="1406.99"><stop offset="0%" stop-color="#005ba1"/><stop offset="77.5%" stop-color="#0078d4"/></linearGradient><path d="M238-95c0 69-44 99-111 99C63 4 22-25 22-93v-155h51v151c-1 38 19 59 55 60 90 1 49-130 58-211h52v153" id="bF"/><path d="M88-194c31-1 46 15 58 34l-1-101h50l1 261h-48c-2-10 0-23-3-31C134-8 116 4 84 4 32 4 16-41 15-95c0-56 19-97 73-99zm17 164c33 0 40-30 41-66 1-37-9-64-41-64s-38 30-39 65c0 43 13 65 39 65" id="bG"/><g id="S"><use transform="matrix(0.07407407407407408,0,0,0.07407407407407408,0,0)" xlink:href="#bF"/><use transform="matrix(0.07407407407407408,0,0,0.07407407407407408,19.185185185185187,0)" xlink:href="#bx"/><use transform="matrix(0.07407407407407408,0,0,0.07407407407407408,35.40740740740741,0)" xlink:href="#bG"/><use transform="matrix(0.07407407407407408,0,0,0.07407407407407408,51.62962962962963,0)" xlink:href="#bs"/><use transform="matrix(0.07407407407407408,0,0,0.07407407407407408,66.44444444444446,0)" xlink:href="#br"/><use transform="matrix(0.07407407407407408,0,0,0.07407407407407408,75.25925925925927,0)" xlink:href="#bp"/></g><path d="M24-248c93 1 206-16 204 79-1 75-69 88-152 82V0H24v-248zm52 121c47 0 100 7 100-41 0-47-54-39-100-39v80" id="bH"/><g id="T"><use transform="matrix(0.07407407407407408,0,0,0.07407407407407408,0,0)" xlink:href="#bH"/><use transform="matrix(0.07407407407407408,0,0,0.07407407407407408,17.77777777777778,0)" xlink:href="#bo"/><use transform="matrix(0.07407407407407408,0,0,0.07407407407407408,28.148148148148152,0)" xlink:href="#bA"/><use transform="matrix(0.07407407407407408,0,0,0.07407407407407408,44.37037037037039,0)" xlink:href="#bG"/><use transform="matrix(0.07407407407407408,0,0,0.07407407407407408,60.59259259259261,0)" xlink:href="#bn"/><use transform="matrix(0.07407407407407408,0,0,0.07407407407407408,76.81481481481484,0)" xlink:href="#bu"/><use transform="matrix(0.07407407407407408,0,0,0.07407407407407408,91.62962962962965,0)" xlink:href="#br"/><use transform="matrix(0.07407407407407408,0,0,0.07407407407407408,100.44444444444446,0)" xlink:href="#bt"/><use transform="matrix(0.07407407407407408,0,0,0.07407407407407408,107.85185185185186,0)" xlink:href="#bA"/><use transform="matrix(0.07407407407407408,0,0,0.07407407407407408,124.07407407407409,0)" xlink:href="#bz"/></g><g id="U"><use transform="matrix(0.07407407407407408,0,0,0.07407407407407408,0,0)" xlink:href="#bD"/><use transform="matrix(0.07407407407407408,0,0,0.07407407407407408,19.185185185185187,0)" xlink:href="#bs"/><use transform="matrix(0.07407407407407408,0,0,0.07407407407407408,34,0)" xlink:href="#br"/><use transform="matrix(0.07407407407407408,0,0,0.07407407407407408,42.814814814814824,0)" xlink:href="#bs"/><use transform="matrix(0.07407407407407408,0,0,0.07407407407407408,57.62962962962964,0)" xlink:href="#bw"/><use transform="matrix(0.07407407407407408,0,0,0.07407407407407408,73.85185185185186,0)" xlink:href="#bs"/><use transform="matrix(0.07407407407407408,0,0,0.07407407407407408,88.66666666666667,0)" xlink:href="#bE"/><use transform="matrix(0.07407407407407408,0,0,0.07407407407407408,103.4814814814815,0)" xlink:href="#bp"/></g><path fill="#333" d="M169-182c-1-43-94-46-97-3 18 66 151 10 154 114 3 95-165 93-204 36-6-8-10-19-12-30l50-8c3 46 112 56 116 5-17-69-150-10-154-114-4-87 153-88 188-35 5 8 8 18 10 28" id="bI"/><path fill="#333" d="M231 0h-52l-39-155L100 0H48L-1-190h46L77-45c9-52 24-97 36-145h53l37 145 32-145h46" id="bJ"/><path fill="#333" d="M133-34C117-15 103 5 69 4 32 3 11-16 11-54c-1-60 55-63 116-61 1-26-3-47-28-47-18 1-26 9-28 27l-52-2c7-38 36-58 82-57s74 22 75 68l1 82c-1 14 12 18 25 15v27c-30 8-71 5-69-32zm-48 3c29 0 43-24 42-57-32 0-66-3-65 30 0 17 8 27 23 27" id="bK"/><path fill="#333" d="M135-194c53 0 70 44 70 98 0 56-19 98-73 100-31 1-45-17-59-34 3 33 2 69 2 105H25l-1-265h48c2 10 0 23 3 31 11-24 29-35 60-35zM114-30c33 0 39-31 40-66 0-38-9-64-40-64-56 0-55 130 0 130" id="bL"/><g id="V"><use transform="matrix(0.07407407407407406,0,0,0.07407407407407406,0,0)" xlink:href="#bI"/><use transform="matrix(0.07407407407407406,0,0,0.07407407407407406,17.777777777777775,0)" xlink:href="#bJ"/><use transform="matrix(0.07407407407407406,0,0,0.07407407407407406,38.51851851851851,0)" xlink:href="#bK"/><use transform="matrix(0.07407407407407406,0,0,0.07407407407407406,53.33333333333332,0)" xlink:href="#bL"/></g><path fill="#333" d="M25 0v-261h50V0H25" id="bM"/><path fill="#333" d="M110-194c64 0 96 36 96 99 0 64-35 99-97 99-61 0-95-36-95-99 0-62 34-99 96-99zm-1 164c35 0 45-28 45-65 0-40-10-65-43-65-34 0-45 26-45 65 0 36 10 65 43 65" id="bN"/><path fill="#333" d="M115-3C79 11 28 4 28-45v-112H4v-33h27l15-45h31v45h36v33H77v99c-1 23 16 31 38 25v30" id="bO"/><path fill="#333" d="M137-138c1-29-70-34-71-4 15 46 118 7 119 86 1 83-164 76-172 9l43-7c4 19 20 25 44 25 33 8 57-30 24-41C81-84 22-81 20-136c-2-80 154-74 161-7" id="bP"/><g id="W"><use transform="matrix(0.07407407407407406,0,0,0.07407407407407406,0,0)" xlink:href="#bI"/><use transform="matrix(0.07407407407407406,0,0,0.07407407407407406,17.777777777777775,0)" xlink:href="#bM"/><use transform="matrix(0.07407407407407406,0,0,0.07407407407407406,25.18518518518518,0)" xlink:href="#bN"/><use transform="matrix(0.07407407407407406,0,0,0.07407407407407406,41.4074074074074,0)" xlink:href="#bO"/><use transform="matrix(0.07407407407407406,0,0,0.07407407407407406,50.22222222222222,0)" xlink:href="#bP"/></g><g id="X"><use transform="matrix(0.07407407407407407,0,0,0.07407407407407407,0,0)" xlink:href="#bI"/><use transform="matrix(0.07407407407407407,0,0,0.07407407407407407,17.77777777777778,0)" xlink:href="#bJ"/><use transform="matrix(0.07407407407407407,0,0,0.07407407407407407,38.51851851851852,0)" xlink:href="#bK"/><use transform="matrix(0.07407407407407407,0,0,0.07407407407407407,53.33333333333333,0)" xlink:href="#bL"/></g><g id="Y"><use transform="matrix(0.07407407407407407,0,0,0.07407407407407407,0,0)" xlink:href="#bI"/><use transform="matrix(0.07407407407407407,0,0,0.07407407407407407,17.77777777777778,0)" xlink:href="#bM"/><use transform="matrix(0.07407407407407407,0,0,0.07407407407407407,25.185185185185183,0)" xlink:href="#bN"/><use transform="matrix(0.07407407407407407,0,0,0.07407407407407407,41.407407407407405,0)" xlink:href="#bO"/><use transform="matrix(0.07407407407407407,0,0,0.07407407407407407,50.22222222222222,0)" xlink:href="#bP"/></g></defs></g></svg>