<svg xmlns="http://www.w3.org/2000/svg" xmlns:xlink="http://www.w3.org/1999/xlink" xmlns:lucid="lucid" width="1482" height="1548.59"><g transform="translate(2741 820.5)" lucid:page-tab-id="2zORYyNSXJel"><path d="M-3000-1000h2000v2000h-2000z" fill="#fff"/><path d="M-2320 573.1a6 6 0 0 1 6-6h628a6 6 0 0 1 6 6v128a6 6 0 0 1-6 6h-628a6 6 0 0 1-6-6z" stroke="#282c33" stroke-width="2" fill="#fff3d9"/><path d="M-2701-314a6 6 0 0 1 6-6h288a6 6 0 0 1 6 6v88a6 6 0 0 1-6 6h-288a6 6 0 0 1-6-6z" stroke="#00c2a8" stroke-width="2" fill="#d7faf5"/><use xlink:href="#a" transform="matrix(1,0,0,1,-2693,-312) translate(43.74691358024691 19.555555555555557)"/><use xlink:href="#b" transform="matrix(1,0,0,1,-2693,-312) translate(95.14814814814814 19.555555555555557)"/><use xlink:href="#c" transform="matrix(1,0,0,1,-2693,-312) translate(129.81172839506172 48.88888888888889)"/><use xlink:href="#a" transform="matrix(1,0,0,1,-2693,-312) translate(47.78703703703704 78.22222222222223)"/><use xlink:href="#d" transform="matrix(1,0,0,1,-2693,-312) translate(99.18827160493827 78.22222222222223)"/><path d="M-2150-314a6 6 0 0 1 6-6h288a6 6 0 0 1 6 6v88a6 6 0 0 1-6 6h-288a6 6 0 0 1-6-6z" stroke="#00c2a8" stroke-width="2" fill="#d7faf5"/><use xlink:href="#a" transform="matrix(1,0,0,1,-2142,-312) translate(6.570987654320959 19.555555555555557)"/><use xlink:href="#e" transform="matrix(1,0,0,1,-2142,-312) translate(57.972222222222186 19.555555555555557)"/><use xlink:href="#c" transform="matrix(1,0,0,1,-2142,-312) translate(129.81172839506172 48.88888888888889)"/><use xlink:href="#a" transform="matrix(1,0,0,1,-2142,-312) translate(47.78703703703704 78.22222222222223)"/><use xlink:href="#d" transform="matrix(1,0,0,1,-2142,-312) translate(99.18827160493827 78.22222222222223)"/><path d="M-1598-314a6 6 0 0 1 6-6h288a6 6 0 0 1 6 6v88a6 6 0 0 1-6 6h-288a6 6 0 0 1-6-6z" stroke="#00c2a8" stroke-width="2" fill="#d7faf5"/><use xlink:href="#a" transform="matrix(1,0,0,1,-1590,-312) translate(37.6358024691358 19.555555555555557)"/><use xlink:href="#f" transform="matrix(1,0,0,1,-1590,-312) translate(89.03703703703702 19.555555555555557)"/><use xlink:href="#c" transform="matrix(1,0,0,1,-1590,-312) translate(129.81172839506172 48.88888888888889)"/><use xlink:href="#a" transform="matrix(1,0,0,1,-1590,-312) translate(47.78703703703704 78.22222222222223)"/><use xlink:href="#d" transform="matrix(1,0,0,1,-1590,-312) translate(99.18827160493827 78.22222222222223)"/><path d="M-1310 147.1c16.57 0 30 13.43 30 30v380c0 16.56-13.43 30-30 30h-1380c-16.57 0-30-13.44-30-30v-380c0-16.57 13.43-30 30-30z" stroke="#282c33" stroke-width="2" fill="#fff3d9"/><path d="M-2280 214.55v87.24c0 9 20.38 16.36 45.5 16.36v-103.6h-45.5z" stroke="#000" stroke-opacity="0" stroke-width="3" fill="#0072c6"/><path d="M-2235.12 318.15h.64c25.1 0 45.48-7.35 45.48-16.37v-87.23h-46.12v103.6z" stroke="#000" stroke-opacity="0" stroke-width="3" fill="#0072c6"/><path d="M-2235.12 318.15h.64c25.1 0 45.48-7.35 45.48-16.37v-87.23h-46.12v103.6z" stroke="#000" stroke-opacity="0" stroke-width="3" fill="#fff" fill-opacity=".15"/><path d="M-2189 214.55c0 9.05-20.38 16.4-45.5 16.4s-45.5-7.35-45.5-16.4c0-9.05 20.38-16.4 45.5-16.4s45.5 7.35 45.5 16.4" stroke="#000" stroke-opacity="0" stroke-width="3" fill="#fff"/><path d="M-2198.3 213.6c0 5.98-16.22 10.82-36.2 10.82-19.98 0-36.2-4.84-36.2-10.8 0-6 16.22-10.83 36.2-10.83 19.98 0 36.2 4.83 36.2 10.8" stroke="#000" stroke-opacity="0" stroke-width="3" fill="#7fba00"/><path d="M-2205.9 220.22c4.78-1.83 7.6-4.12 7.6-6.6 0-6-16.22-10.83-36.2-10.83-19.98 0-36.2 4.83-36.2 10.8 0 2.5 2.83 4.8 7.6 6.62 6.6-2.57 16.94-4.2 28.6-4.2s22 1.63 28.6 4.2" stroke="#000" stroke-opacity="0" stroke-width="3" fill="#b8d432"/><path d="M-2248.93 275.1c0 2.7-1 4.8-3 6.28-1.93 1.5-4.72 2.25-8.15 2.25-3 0-5.43-.55-7.43-1.6v-6.4c2.28 1.95 4.78 2.93 7.56 2.93 1.36 0 2.36-.3 3.08-.8.7-.54 1.07-1.22 1.07-2.13 0-.87-.28-1.6-1-2.24-.7-.66-2.14-1.46-4.28-2.47-4.36-2.06-6.57-4.85-6.57-8.36 0-2.57.93-4.63 2.85-6.2 1.93-1.54 4.43-2.3 7.65-2.3 2.8 0 5.07.36 6.93 1.1v5.96c-1.93-1.34-4.14-2-6.57-2-1.28 0-2.2.26-3 .8-.7.47-1.07 1.23-1.07 2.1 0 .9.3 1.63.93 2.2.57.58 1.72 1.3 3.58 2.14 2.64 1.27 4.57 2.57 5.7 3.87 1.15 1.3 1.72 2.9 1.72 4.85zm30.86-6.45c0 3.33-.8 6.26-2.3 8.72-1.56 2.5-3.7 4.2-6.5 5.2l8.37 7.68h-8.43l-5.93-6.62c-2.57-.1-4.86-.76-6.93-2.03-2-1.23-3.63-2.97-4.7-5.14-1.15-2.17-1.72-4.6-1.72-7.27 0-2.94.64-5.58 1.86-7.9 1.2-2.3 2.86-4.12 5.07-5.35 2.22-1.26 4.73-1.88 7.5-1.88 2.66 0 5.08.62 7.16 1.8 2.07 1.24 3.7 2.94 4.85 5.18 1.16 2.2 1.73 4.74 1.73 7.6zm-6.8.33c0-2.9-.63-5.18-1.92-6.84-1.2-1.7-3-2.53-5.2-2.53-2.22 0-4 .84-5.36 2.54-1.36 1.7-2 3.94-2 6.73 0 2.78.64 5.02 1.93 6.7 1.36 1.65 3.07 2.5 5.28 2.5 2.22 0 4-.8 5.3-2.44 1.35-1.63 2-3.83 2-6.65zm28.66 14.14h-17.1l.02-28.58h6.43v23.37h10.64z" stroke="#000" stroke-opacity="0" stroke-width="3" fill="#fff"/><use xlink:href="#g" transform="matrix(1,0,0,1,-2310,327.1562007315397) translate(30.462962962962962 21.333333333333336)"/><use xlink:href="#h" transform="matrix(1,0,0,1,-2310,327.1562007315397) translate(16.351851851851848 53.333333333333336)"/><path d="M-2000-800c-33.12 0-60 26.88-60 60 0 33.24 26.88 60 60 60 33.24 0 60-26.88 60-60 0-33.24-26.76-60-60-60zm15.84 112.08V-698c0-4.08-2.28-7.56-5.4-9.84h.6c5.76-.6 10.68-2.4 10.68-2.4s7.32-2.28 11.4-6.96c4.2-5.16 5.4-12.36 5.4-12.36s1.2-7.92 0-14.28c-1.2-5.88-6-10.32-6-10.32s1.56-4.2 1.32-8.28c0-4.08-1.92-8.16-1.92-8.16s-3.48-.36-7.32 1.2c-4.44 1.92-9.48 5.4-9.48 5.4s-3.48-1.2-7.56-1.56c-3.72-.72-8.16-.72-8.16-.72s-4.44 0-8.28.72c-4.08.6-7.56 1.56-7.56 1.56s-5.04-3.48-9.48-5.4c-3.72-1.56-7.2-1.2-7.2-1.2s-1.92 4.08-1.92 8.16c0 4.2 1.2 8.28 1.2 8.28s-4.32 4.08-5.88 10.32c-1.68 6.36 0 14.28 0 14.28s.84 7.2 5.28 12.36c4.2 4.68 11.4 6.96 11.4 6.96s5.04 1.8 10.68 2.4h.96c-2.16 2.28-4.44 5.76-4.44 9.84v10.08c-22.32-6.6-38.52-27.48-38.52-52.08 0-30 24.36-54.24 54.36-54.24s54.72 24.24 54.72 54.24c0 24.6-16.44 45.48-38.88 52.08z" stroke="#000" stroke-opacity="0" fill="#0078d7"/><use xlink:href="#i" transform="matrix(1,0,0,1,-2090,-671) translate(48.24753086419754 21.511111111111106)"/><use xlink:href="#j" transform="matrix(1,0,0,1,-2090,-671) translate(25.877469135802485 53.777777777777764)"/><path d="M-1940-518.04v73.32l-30.36 24.72-46.68-17.04V-420l-25.92-33.96 76.92 5.64.36-66zm-25.68 3.72l-42.96-25.68v17.04l-39.72 11.64-11.64 15.36v34.68l17.04 7.32v-44.4z" stroke="#000" stroke-opacity="0" stroke-width="3.75" fill="#0078d4"/><path d="M-2008.64-540l42.96 25.68 25.68-3.72v73.32l-30.36 24.72-46.68-17.04V-420l-25.92-33.96-17.04-7.32v-34.68l11.64-15.36 39.72-11.64z" stroke="#000" stroke-opacity="0" stroke-width="0" fill-opacity="0"/><use xlink:href="#k" transform="matrix(1,0,0,1,-2090,-411) translate(2.6858024691358082 21.511111111111106)"/><use xlink:href="#l" transform="matrix(1,0,0,1,-2090,-411) translate(80.29012345679011 21.511111111111106)"/><path d="M-2569.6-36.44l16.22 16.3 26.4.02c3.2 0 5.8-2.6 5.8-5.82v-61.03l-48.43 48.53c-.6.53-.6 1.47 0 2z" stroke="#000" stroke-opacity="0" fill="#235dc1"/><path d="M-2611-104.28v26.45l16.3 16.26c.52.6 1.45.6 2 0l48.45-48.54h-60.94c-3.2 0-5.8 2.6-5.8 5.82z" stroke="#000" stroke-opacity="0" fill="#3b6ec6"/><path d="M-2549.98-133.85l-39.18 59.97c-1.3 1.98-1 4.66.7 6.45l25.02 25.08c1.78 1.68 4.46 1.98 6.44.7l59.86-39.27c3.86-2.47 6.14-6.74 6.14-11.3v-41.83c0-3.27-2.67-5.95-5.94-5.95h-41.76c-4.55 0-8.8 2.28-11.28 6.15z" stroke="#000" stroke-opacity="0" fill="#5d8de4"/><path d="M-2602.2-28.36v-21.2h-8.8V-20h29.96v-8.36h-21.15z" stroke="#000" stroke-opacity="0" fill="#9fbbf0"/><path d="M-2521.03-95.58c8.23 0 14.9-6.7 14.9-14.93 0-8.25-6.67-14.94-14.9-14.94s-14.9 6.7-14.9 14.93 6.67 14.92 14.9 14.92z" stroke="#000" stroke-opacity="0" fill="#adc5f2"/><path d="M-2547.7-90.5l-31.9 31.93 7.35 7.35 31.9-31.94-7.35-7.35z" stroke="#000" stroke-opacity="0" fill="#6c9aee"/><path d="M-2578.6-44.87l6.35-6.35-7.35-7.36-6.34 6.35 7.35 7.36z" stroke="#000" stroke-opacity="0" fill="#88acef"/><path d="M-2608.6-106.06v82h83.53v-82zm.07.1l83.38-.02v81.85h-83.38z" stroke="#000" stroke-opacity="0" stroke-width="0" fill-opacity="0"/><use xlink:href="#m" transform="matrix(1,0,0,1,-2641,-11) translate(54.93240740740742 21.511111111111106)"/><use xlink:href="#n" transform="matrix(1,0,0,1,-2641,-11) translate(31.85277777777779 53.777777777777764)"/><use xlink:href="#o" transform="matrix(1,0,0,1,-2641,-11) translate(19.15524691358027 86.04444444444442)"/><use xlink:href="#p" transform="matrix(1,0,0,1,-2641,-11) translate(86.2280864197531 86.04444444444442)"/><use xlink:href="#q" transform="matrix(1,0,0,1,-2641,-11) translate(111.62314814814815 86.04444444444442)"/><use xlink:href="#r" transform="matrix(1,0,0,1,-2641,-11) translate(58.66697530864198 118.31111111111109)"/><path d="M-2043.47-480l-274.35-5.2-32.13 2-24.6 2.56-19.8 2.9-16.43 3.13-13.95 3.25-12.03 3.36-10.52 3.42-9.3 3.46-8.3 3.48-7.45 3.5-6.76 3.54-6.14 3.55-5.64 3.57-5.2 3.6-4.78 3.65-4.46 3.68-4.14 3.73-3.88 3.8-3.62 3.85-3.4 3.95-3.2 4.03-3 4.15-2.85 4.27-2.68 4.4-2.5 4.57-2.36 4.74-2.2 4.95-2.06 5.18-1.9 5.46-1.74 5.75-1.56 6.1-1.38 6.5-1.18 6.97-.95 7.5-.68 8.1-.37 8.8-.05 4.23" stroke="#3a414a" stroke-linejoin="round" fill="none"/><path d="M-2039.96-480.42l-.02.95-2.98-.05v-.96zM-2550.52-321.5v.5h-.95v-.52z" stroke="#3a414a" stroke-width=".05" fill="#3a414a"/><path d="M-2551-218.5v85.7" stroke="#3a414a" stroke-linejoin="round" fill="none"/><path d="M-2550.53-218.5h-.94v-.5h.94zM-2551.47-131.56v-1.24h.8z" stroke="#3a414a" stroke-width=".05" fill="#3a414a"/><path d="M-2018.6-36.44l16.22 16.3 26.4.02c3.2 0 5.8-2.6 5.8-5.82v-61.03l-48.43 48.53c-.6.53-.6 1.47 0 2z" stroke="#000" stroke-opacity="0" fill="#235dc1"/><path d="M-2060-104.28v26.45l16.3 16.26c.52.6 1.46.6 2 0l48.45-48.54h-60.94c-3.2 0-5.8 2.6-5.8 5.82z" stroke="#000" stroke-opacity="0" fill="#3b6ec6"/><path d="M-1998.98-133.85l-39.18 59.97c-1.3 1.98-1 4.66.7 6.45l25.02 25.08c1.8 1.68 4.46 1.98 6.44.7l59.87-39.27c3.85-2.47 6.13-6.74 6.13-11.3v-41.83c0-3.27-2.67-5.95-5.94-5.95h-41.76c-4.55 0-8.8 2.28-11.28 6.15z" stroke="#000" stroke-opacity="0" fill="#5d8de4"/><path d="M-2051.2-28.36v-21.2h-8.8V-20h29.96v-8.36h-21.15z" stroke="#000" stroke-opacity="0" fill="#9fbbf0"/><path d="M-1970.03-95.58c8.23 0 14.9-6.7 14.9-14.93 0-8.25-6.67-14.94-14.9-14.94s-14.9 6.7-14.9 14.93 6.67 14.92 14.9 14.92z" stroke="#000" stroke-opacity="0" fill="#adc5f2"/><path d="M-1996.7-90.5l-31.9 31.93 7.35 7.35 31.9-31.94-7.35-7.35z" stroke="#000" stroke-opacity="0" fill="#6c9aee"/><path d="M-2027.6-44.87l6.35-6.35-7.35-7.36-6.34 6.35 7.35 7.36z" stroke="#000" stroke-opacity="0" fill="#88acef"/><path d="M-2057.6-106.06v82h83.53v-82zm.07.1l83.38-.02v81.85h-83.38z" stroke="#000" stroke-opacity="0" stroke-width="0" fill-opacity="0"/><use xlink:href="#m" transform="matrix(1,0,0,1,-2090,-11) translate(54.93240740740742 21.511111111111106)"/><use xlink:href="#n" transform="matrix(1,0,0,1,-2090,-11) translate(31.85277777777779 53.777777777777764)"/><use xlink:href="#o" transform="matrix(1,0,0,1,-2090,-11) translate(19.15524691358027 86.04444444444442)"/><use xlink:href="#p" transform="matrix(1,0,0,1,-2090,-11) translate(86.2280864197531 86.04444444444442)"/><use xlink:href="#q" transform="matrix(1,0,0,1,-2090,-11) translate(111.62314814814815 86.04444444444442)"/><use xlink:href="#r" transform="matrix(1,0,0,1,-2090,-11) translate(58.66697530864198 118.31111111111109)"/><path d="M-2000-218.5v85.7" stroke="#3a414a" stroke-linejoin="round" fill="none"/><path d="M-1999.53-218.5h-.94v-.5h.94zM-2000.47-131.56v-1.24h.8z" stroke="#3a414a" stroke-width=".05" fill="#3a414a"/><path d="M-2000-391.23v69.73M-2000-391.22v-.5" stroke="#3a414a" fill="none"/><path d="M-1999.53-321h-.94v-.5h.94z" stroke="#3a414a" stroke-width=".05" fill="#3a414a"/><path d="M-1466.6-36.44l16.22 16.3 26.4.02c3.2 0 5.8-2.6 5.8-5.82v-61.03l-48.43 48.53c-.6.53-.6 1.47 0 2z" stroke="#000" stroke-opacity="0" fill="#235dc1"/><path d="M-1508-104.28v26.45l16.3 16.26c.52.6 1.46.6 2 0l48.45-48.54h-60.94c-3.2 0-5.8 2.6-5.8 5.82z" stroke="#000" stroke-opacity="0" fill="#3b6ec6"/><path d="M-1446.98-133.85l-39.18 59.97c-1.3 1.98-1 4.66.7 6.45l25.02 25.08c1.8 1.68 4.46 1.98 6.44.7l59.87-39.27c3.85-2.47 6.13-6.74 6.13-11.3v-41.83c0-3.27-2.67-5.95-5.94-5.95h-41.76c-4.55 0-8.8 2.28-11.28 6.15z" stroke="#000" stroke-opacity="0" fill="#5d8de4"/><path d="M-1499.2-28.36v-21.2h-8.8V-20h29.96v-8.36h-21.15z" stroke="#000" stroke-opacity="0" fill="#9fbbf0"/><path d="M-1418.03-95.58c8.23 0 14.9-6.7 14.9-14.93 0-8.25-6.67-14.94-14.9-14.94s-14.9 6.7-14.9 14.93 6.67 14.92 14.9 14.92z" stroke="#000" stroke-opacity="0" fill="#adc5f2"/><path d="M-1444.7-90.5l-31.9 31.93 7.35 7.35 31.9-31.94-7.35-7.35z" stroke="#000" stroke-opacity="0" fill="#6c9aee"/><path d="M-1475.6-44.87l6.35-6.35-7.35-7.36-6.34 6.35 7.35 7.36z" stroke="#000" stroke-opacity="0" fill="#88acef"/><path d="M-1505.6-106.06v82h83.53v-82zm.07.1l83.38-.02v81.85h-83.38z" stroke="#000" stroke-opacity="0" stroke-width="0" fill-opacity="0"/><use xlink:href="#m" transform="matrix(1,0,0,1,-1538,-11) translate(54.93240740740742 21.511111111111106)"/><use xlink:href="#n" transform="matrix(1,0,0,1,-1538,-11) translate(31.85277777777779 53.777777777777764)"/><use xlink:href="#o" transform="matrix(1,0,0,1,-1538,-11) translate(19.15524691358027 86.04444444444442)"/><use xlink:href="#p" transform="matrix(1,0,0,1,-1538,-11) translate(86.2280864197531 86.04444444444442)"/><use xlink:href="#q" transform="matrix(1,0,0,1,-1538,-11) translate(111.62314814814815 86.04444444444442)"/><use xlink:href="#r" transform="matrix(1,0,0,1,-1538,-11) translate(58.66697530864198 118.31111111111109)"/><path d="M-1448-218.5v85.7" stroke="#3a414a" stroke-linejoin="round" fill="none"/><path d="M-1447.53-218.5h-.94v-.5h.94zM-1448.47-131.56v-1.24h.8z" stroke="#3a414a" stroke-width=".05" fill="#3a414a"/><path d="M-1939.5-480l256.58-3.84 33.03 2.04 25.1 2.62 20.08 2.95 16.63 3.16 14.1 3.3 12.12 3.38 10.58 3.44 9.34 3.47 8.32 3.5 7.48 3.52 6.76 3.53 6.16 3.55 5.63 3.58 5.17 3.6 4.78 3.62 4.44 3.67 4.1 3.72 3.87 3.76 3.6 3.84 3.38 3.9 3.17 4.02 3 4.1 2.8 4.23 2.64 4.36 2.48 4.53 2.33 4.7 2.17 4.88 2.03 5.13 1.87 5.37 1.7 5.67 1.55 6 1.35 6.4 1.15 6.83.93 7.34.66 7.93.35 8.62.04 4.1" stroke="#3a414a" stroke-linejoin="round" fill="none"/><path d="M-1939.47-479.53h-.53v-.95h.5zM-1447.53-321h-.94v-.5l.94-.02z" stroke="#3a414a" stroke-width=".05" fill="#3a414a"/><path d="M-1508 360.7h120V428c0 2.22-1.8 4-3.96 4h-112.08c-2.16 0-3.96-1.78-3.96-4v-67.3z" stroke="#000" stroke-opacity="0" fill="url(#s)"/><path d="M-1495.24 367.8h95.48c2.7 0 4.04 1.3 4.04 3.98v49.05c0 2.68-1.34 4-4.04 4h-95.48c-2.7 0-4.04-1.32-4.04-4v-49.05c0-2.68 1.35-4 4.04-4z" stroke="#000" stroke-opacity="0" fill="#5ea0ef" fill-opacity=".6"/><path d="M-1504.04 335h112.08c2.16 0 3.96 1.8 3.96 4v21.7h-120v-21.66c0-2.24 1.8-4.04 3.96-4.04z" stroke="#000" stroke-opacity="0" fill="#005ba1"/><path d="M-1460.6 411.8l-2.1 2.16c-.38.37-1.02.4-1.4.02v-.02l-15.5-15.66c-.75-.76-.75-2 0-2.76l2.17-2.15 16.82 17.03c.37.38.37 1 0 1.38zm24.37 0l2.1 2.16c.06 0 .06 0 .06.02.38.37.95.35 1.33-.02l15.5-15.66c.75-.76.75-2 0-2.76l-2.17-2.15-16.83 17.03c-.38.38-.38 1 0 1.38z" stroke="#000" stroke-opacity="0" fill="#fff" fill-opacity=".8"/><path d="M-1462.45 379.72l2.16 2.15c.4.38.4 1 0 1.37l-17.13 17.24-2.16-2.17c-.75-.75-.75-1.97 0-2.73l15.82-15.87c.38-.38.95-.36 1.33.02zm28.06 0l-2.15 2.15c-.38.38-.38 1 0 1.37l17.2 17.24 2.1-2.15c.76-.78.76-2 0-2.76l-15.8-15.85v-.02c-.4-.36-.96-.36-1.34.02zM-1453.6 419.44l-3.4-1.1c-.37-.1-.56-.52-.44-.9l13.9-43.7c.12-.38.47-.62.83-.48h.05l3.4 1.12c.36.1.57.46.47.78l-.02.05-13.92 43.82c-.12.37-.5.56-.83.42h-.04zM-1486.9 348.96c0 2.8-2.28 5.1-5.05 5.1-2.8 0-5.08-2.3-5.08-5.1s2.27-5.1 5.08-5.1c2.77 0 5.04 2.3 5.04 5.1zm10.87-5.1c-2.77 0-5.04 2.3-5.04 5.1s2.27 5.1 5.04 5.1c2.8 0 5.08-2.3 5.08-5.1s-2.27-5.1-5.08-5.1zm15.92 0c-2.8 0-5.05 2.3-5.05 5.1s2.26 5.1 5.04 5.1c2.8 0 5.07-2.3 5.07-5.1 0-2.82-2.27-5.1-5.08-5.1z" stroke="#000" stroke-opacity="0" fill="#fff"/><use xlink:href="#t" transform="matrix(1,0,0,1,-1538,441) translate(45.66666666666666 21.333333333333336)"/><use xlink:href="#u" transform="matrix(1,0,0,1,-1538,441) translate(16.2222222222222 53.333333333333336)"/><use xlink:href="#v" transform="matrix(1,0,0,1,-1538,441) translate(138.74074074074076 53.333333333333336)"/><use xlink:href="#w" transform="matrix(1,0,0,1,-1538,441) translate(13.1111111111111 85.33333333333334)"/><use xlink:href="#x" transform="matrix(1,0,0,1,-1538,441) translate(94.44444444444444 85.33333333333334)"/><use xlink:href="#y" transform="matrix(1,0,0,1,-1538,441) translate(32.666666666666664 117.33333333333334)"/><use xlink:href="#z" transform="matrix(1,0,0,1,-1538,441) translate(95.7037037037037 117.33333333333334)"/><path d="M-1820.76 374.4c1.1-1.1.9-3.17 0-4.34l-5.8-5.8-25.87-25.24c-1.14-1.1-2.8-1.1-4.14 0-1.14 1.17-1.48 3.24 0 4.35l27.2 26.7c1.1 1.16 1.1 3.23 0 4.33l-27.77 27.67c-1.1 1.1-1.1 3.17 0 4.34 1.14 1.1 3.2.9 4.14 0l25.67-25.58.2-.2 6.37-6.22zM-1939.24 374.4c-1.1-1.1-.9-3.17 0-4.34l5.8-5.8 25.87-25.24c1.14-1.1 2.8-1.1 4.14 0 1.14 1.17 1.48 3.24 0 4.35l-26.62 26.7c-1.1 1.16-1.1 3.23 0 4.33l27.2 27.67c1.1 1.1 1.1 3.17 0 4.34-1.15 1.1-3.2.9-4.15 0l-26.24-25.23-.2-.14-5.8-6.63z" stroke="#000" stroke-opacity="0" stroke-width="2.34" fill="#3999c6"/><path d="M-1850.75 318.16h-36.58l-19.66 55.72 24 .1-18.75 55.18 51.74-73.6h-25.14l24.4-37.4z" stroke="#000" stroke-opacity="0" stroke-width="2.34" fill="#fcd116"/><path d="M-1875.15 355.56l24.4-37.4h-19.13l-20.22 46.28 23.95.23-35.6 64.5 51.74-73.6h-25.15z" stroke="#000" stroke-opacity="0" stroke-width="2.34" fill="#ff8c00" fill-opacity=".3"/><path d="M-1886.1 320.53l-5.7 19.15-14.53.94-32.2 31.53 32.3 32.7 12.45 5.2-5.8 14.25 11.85-16.55 30.58-1.35 34.88-34.04-31.86-31.95-11.86-.5 11.52-19.68z" stroke="#000" stroke-opacity="0" stroke-width="0" fill-opacity="0"/><g><use xlink:href="#t" transform="matrix(1,0,0,1,-1970,438.1562007315395) translate(45.66666666666666 21.333333333333336)"/><use xlink:href="#A" transform="matrix(1,0,0,1,-1970,438.1562007315395) translate(10.296296296296276 53.333333333333336)"/><use xlink:href="#v" transform="matrix(1,0,0,1,-1970,438.1562007315395) translate(144.66666666666669 53.333333333333336)"/><use xlink:href="#B" transform="matrix(1,0,0,1,-1970,438.1562007315395) translate(53.03703703703703 85.33333333333334)"/><use xlink:href="#C" transform="matrix(1,0,0,1,-1970,438.1562007315395) translate(4.407407407407391 117.33333333333334)"/><use xlink:href="#z" transform="matrix(1,0,0,1,-1970,438.1562007315395) translate(123.96296296296296 117.33333333333334)"/></g><path d="M-2514.28 453.72c-10.82 8.32-22.46 12.24-36 12.24-17.94 0-35.64-8.08-47.28-23.3-19.96-26-14.97-63.3 11.05-83.27 10.8-8.32 23.5-12.24 36.1-12.24 17.82 0 35.52 8.07 47.16 23.28 19.96 26.02 14.97 63.32-11.05 83.28" stroke="#000" stroke-opacity="0" stroke-width="3" fill="#59b4d9"/><path d="M-2525.2 416.96c4.3 5.64 12.3 6.67 17.9 2.36.3-.2.53-.4.74-.72 5.82 4.1 9.7 6.77 11.96 8.2.65-1.64 1.2-3.28 1.62-5.02-3.66-2.77-6.68-5.13-10.24-8 1.5-4 1.08-8.6-1.72-12.3-3.88-5.13-10.88-6.46-16.5-3.3-7-6.34-12.9-11.88-19.7-18.55 21.87-11.8 37.28-10.05 37.28-10.05-2.6-3.28-5.5-6.15-8.52-8.7-9.26-1.45-23.48-1.34-39.75 7.37-6.04-6.36-11-11.8-16.6-18.35-2.9.92-5.27 1.84-7.86 3.18 4.1 6.87 9.7 13.63 16.06 20.4-6.25 4.4-11.2 8.72-16.48 14.36-.76.72-1.4 1.43-2.05 2.15-3.34-.73-6.46-.52-9.8.7-5.28-11.68-4.85-21-4.1-25.73-2.26 2.36-4.42 5.02-6.35 7.7-1.4 5.73-1.84 14.04 2.37 24-5.07 6.55-5.07 15.27 0 21.73.43.6.86 1.12 1.3 1.53-2.06 7.18-3.13 13.44-3.46 20.82.53.82.53 1.44 1.07 2.15 2.9 3.7 6.46 6.77 9.9 9.54-.42-6.56 0-16.2 4.1-27.07 2.92.3 5.5-.1 8.3-1.33 1.5 1.33 3.02 2.76 4.74 4.1 5.72 4.5 10.9 7.8 17.36 11.07-.32 3.1.43 5.86 2.26 8.32 4 5.23 11.42 6.15 16.6 2.15 1.07-.82 1.93-1.64 2.7-2.87 9.15 2.05 17.23 2.46 23.26 2.46.86 0 5.17-5.84 7.65-9.43-3.66.82-14.55 2.25-29.3-1.95-.33-1.85-.98-3.28-2.16-4.72-3.66-4.92-10.56-5.95-15.62-2.66-6.04-3.3-10.78-6.46-16.16-10.67l-3.14-2.66c3.45-5.64 3.77-12.1.75-17.95.66-.72 1.3-1.33 2.06-2.05 5.5-5.13 10.67-9.23 15.52-12.5l-.65-.63.65.62c7.32 6.87 15.2 13.33 22.62 19.17-1.94 4.1-1.6 9.23 1.4 13.13z" stroke="#000" stroke-opacity="0" stroke-width="3" fill="#fff"/><g><use xlink:href="#D" transform="matrix(1,0,0,1,-2639.800025707522,474.95622643906125) translate(11.870370370370367 21.333333333333336)"/><use xlink:href="#E" transform="matrix(1,0,0,1,-2639.800025707522,474.95622643906125) translate(107.94444444444446 21.333333333333336)"/><use xlink:href="#F" transform="matrix(1,0,0,1,-2639.800025707522,474.95622643906125) translate(6.796296296296276 53.333333333333336)"/><use xlink:href="#w" transform="matrix(1,0,0,1,-2639.800025707522,474.95622643906125) translate(39.240740740740726 53.333333333333336)"/><use xlink:href="#G" transform="matrix(1,0,0,1,-2639.800025707522,474.95622643906125) translate(120.57407407407408 53.333333333333336)"/><use xlink:href="#H" transform="matrix(1,0,0,1,-2639.800025707522,474.95622643906125) translate(42.092592592592595 85.33333333333334)"/></g><path d="M-2060.5-80l-.3.02-.77.05-.78.08-.76.1-.78.16-.77.2-.78.2-.78.26-.8.3-.8.33-.82.37-.83.44-.87.5-.9.58-.9.64-.97.73-1 .83-1.06.96-1.12 1.1-1.2 1.26-1.26 1.48-1.37 1.73-1.5 2.05-1.62 2.45-1.8 2.96-1.98 3.64-2.26 4.55-2.6 5.83-3.02 7.68-3.66 10.56-4.64 15.46-6.56 25.76-36.08 167.43-4.64 15.47-3.66 10.55-3.03 7.68-2.6 5.82-2.25 4.56-2 3.64-1.78 2.96-1.63 2.44-1.5 2.05-1.36 1.73-1.27 1.47-1.2 1.27-1.1 1.1-1.07.95-1 .84-.97.74-.92.64-.88.56-.87.5-.83.44-.82.4-.8.33-.8.3-.77.25-.78.22-.77.18-.77.15-.75.1-.78.1-.78.04h-.3" stroke="#3a414a" stroke-linejoin="round" fill="none"/><path d="M-2060-79.53l-.5.02-.03-.96.53-.02zM-2188.5 248.63h-.5v-.95h.5z" stroke="#3a414a" stroke-width=".05" fill="#3a414a"/><path d="M-2498.03-80l1.7.05 2.16.13 2.12.22 2.08.3 2.05.4 2.05.48 2.03.57 2.03.66 2.03.77 2.05.86 2.08.98 2.1 1.1 2.16 1.26 2.2 1.4 2.27 1.57 2.32 1.77 2.43 2 2.53 2.3 2.66 2.6 2.8 3 3 3.45 3.18 4.03 3.45 4.76 3.78 5.7 4.18 6.9 4.73 8.6 5.48 11.08 6.64 14.97 8.86 22.5 52.05 149.4 6.63 14.97 5.48 11.06 4.73 8.6 4.2 6.93 3.76 5.7 3.45 4.75 3.2 4.04 2.97 3.46 2.8 3 2.66 2.6 2.54 2.28 2.42 2 2.34 1.78 2.26 1.57 2.2 1.4 2.16 1.24 2.1 1.1 2.08.98 2.06.87 2.04.76 2.03.66 2.04.57 2.04.5 2.06.38 2.08.3 2.12.23 2.15.14 1.7.04" stroke="#3a414a" stroke-linejoin="round" fill="none"/><path d="M-2498.03-79.5l-1.2-.04 1.22-.8zM-2280 255.2v.96h-.5v-.95z" stroke="#3a414a" stroke-width=".05" fill="#3a414a"/><path d="M-1940.03 373.65l-7.6-.16-7.48-.48-6.96-.73-6.52-.97-6.17-1.18-5.88-1.37-5.65-1.58-5.47-1.78-5.36-2-5.3-2.22-5.28-2.48-5.34-2.8-5.48-3.16-5.75-3.65-6.2-4.3-7.08-5.4-9-7.46-44.47-39.54-7.07-5.37-6.2-4.33-5.76-3.65-5.48-3.16-5.35-2.8-5.28-2.5-5.3-2.2-5.35-2-5.47-1.8-5.66-1.56-5.88-1.38-6.17-1.18-6.52-.96-6.95-.73-7.47-.48-7.6-.15" stroke="#3a414a" stroke-linejoin="round" fill="none"/><path d="M-1936.52 373.24l-.02.93-.94-.95zm-3.2-.06l.38.95h-.72l.02-.96zM-2188.5 257.68v.95h-.5v-.95z" stroke="#3a414a" stroke-width=".05" fill="#3a414a"/><path d="M-2280.5 258.17l-4.08.08-4.34.27-4.14.44-3.97.58-3.82.73-3.7.87-3.62 1-3.53 1.16-3.48 1.3-3.45 1.44-3.43 1.62-3.43 1.8-3.46 2-3.52 2.23-3.6 2.5-3.72 2.82-3.9 3.23-4.13 3.72-4.48 4.4-5 5.32-5.9 6.82-7.84 9.93-36.77 49.74-5.9 6.82-5 5.33-4.47 4.4-4.14 3.72-3.9 3.22-3.73 2.82-3.6 2.5-3.52 2.24-3.46 2-3.45 1.8-3.43 1.6-3.44 1.46-3.48 1.3-3.54 1.14-3.6 1-3.7.88-3.84.73-3.96.58-4.14.44-4.34.26-4.1.1" stroke="#3a414a" stroke-linejoin="round" fill="none"/><path d="M-2280 258.63h-.5l-.03-.94.53-.02zM-2490.5 407.03h-.5v-.2l-.02-.75h.53z" stroke="#3a414a" stroke-width=".05" fill="#3a414a"/><path d="M-2320 593.1a6 6 0 0 1 6-6h628a6 6 0 0 1 6 6v108a6 6 0 0 1-6 6h-628a6 6 0 0 1-6-6z" fill="none"/><g><use xlink:href="#I" transform="matrix(1,0,0,1,-2320,587.0934049525433) translate(97.09876543209884 68.88888888888889)"/><use xlink:href="#J" transform="matrix(1,0,0,1,-2320,587.0934049525433) translate(271.9135802469136 68.88888888888889)"/></g><path d="M-1448 334.5V107.56" stroke="#3a414a" fill="none"/><path d="M-1447.53 335h-.94v-.5h.94z" stroke="#3a414a" stroke-width=".05" fill="#3a414a"/><path d="M-1448 107.57v-.5" stroke="#3a414a" fill="none"/><path d="M-2000-507.73V-619.5" stroke="#3a414a" stroke-linejoin="round" fill="none"/><path d="M-1999.53-504.23h-.94v-2.9l.94-.2z" stroke="#3a414a" stroke-width=".05" fill="#3a414a"/><path d="M-2000-619.5v-.5" stroke="#3a414a" fill="none"/><defs><path fill="#3a414a" d="M115-3C79 11 28 4 28-45v-112H4v-33h27l15-45h31v45h36v33H77v99c-1 23 16 31 38 25v30" id="K"/><path fill="#3a414a" d="M133-34C117-15 103 5 69 4 32 3 11-16 11-54c-1-60 55-63 116-61 1-26-3-47-28-47-18 1-26 9-28 27l-52-2c7-38 36-58 82-57s74 22 75 68l1 82c-1 14 12 18 25 15v27c-30 8-71 5-69-32zm-48 3c29 0 43-24 42-57-32 0-66-3-65 30 0 17 8 27 23 27" id="L"/><path fill="#3a414a" d="M195-6C206 82 75 100 31 46c-4-6-6-13-8-21l49-6c3 16 16 24 34 25 40 0 42-37 40-79-11 22-30 35-61 35-53 0-70-43-70-97 0-56 18-96 73-97 30 0 46 14 59 34l2-30h47zm-90-29c32 0 41-27 41-63 0-35-9-62-40-62-32 0-39 29-40 63 0 36 9 62 39 62" id="M"/><path fill="#3a414a" d="M35-132v-50h50v50H35zM35 0v-49h50V0H35" id="N"/><g id="a"><use transform="matrix(0.06790123456790123,0,0,0.06790123456790123,0,0)" xlink:href="#K"/><use transform="matrix(0.06790123456790123,0,0,0.06790123456790123,8.080246913580247,0)" xlink:href="#L"/><use transform="matrix(0.06790123456790123,0,0,0.06790123456790123,21.660493827160494,0)" xlink:href="#M"/><use transform="matrix(0.06790123456790123,0,0,0.06790123456790123,36.53086419753086,0)" xlink:href="#N"/></g><path fill="#3a414a" d="M135-150c-39-12-60 13-60 57V0H25l-1-190h47c2 13-1 29 3 40 6-28 27-53 61-41v41" id="O"/><path fill="#3a414a" d="M185-48c-13 30-37 53-82 52C43 2 14-33 14-96s30-98 90-98c62 0 83 45 84 108H66c0 31 8 55 39 56 18 0 30-7 34-22zm-45-69c5-46-57-63-70-21-2 6-4 13-4 21h74" id="P"/><path fill="#3a414a" d="M25 0v-261h50V0H25" id="Q"/><path fill="#3a414a" d="M137-138c1-29-70-34-71-4 15 46 118 7 119 86 1 83-164 76-172 9l43-7c4 19 20 25 44 25 33 8 57-30 24-41C81-84 22-81 20-136c-2-80 154-74 161-7" id="R"/><path fill="#3a414a" d="M14-72v-43h91v43H14" id="S"/><path fill="#3a414a" d="M135-194c53 0 70 44 70 98 0 56-19 98-73 100-31 1-45-17-59-34 3 33 2 69 2 105H25l-1-265h48c2 10 0 23 3 31 11-24 29-35 60-35zM114-30c33 0 39-31 40-66 0-38-9-64-40-64-56 0-55 130 0 130" id="T"/><path fill="#3a414a" d="M25-224v-37h50v37H25zM25 0v-190h50V0H25" id="U"/><path fill="#3a414a" d="M86-200l42-18 12 35-44 11 32 37-32 21-26-44-26 44-32-21 33-37-44-11 12-35 42 18-3-48h38" id="V"/><g id="b"><use transform="matrix(0.06790123456790123,0,0,0.06790123456790123,0,0)" xlink:href="#O"/><use transform="matrix(0.06790123456790123,0,0,0.06790123456790123,9.506172839506172,0)" xlink:href="#P"/><use transform="matrix(0.06790123456790123,0,0,0.06790123456790123,23.086419753086417,0)" xlink:href="#Q"/><use transform="matrix(0.06790123456790123,0,0,0.06790123456790123,29.87654320987654,0)" xlink:href="#P"/><use transform="matrix(0.06790123456790123,0,0,0.06790123456790123,43.456790123456784,0)" xlink:href="#L"/><use transform="matrix(0.06790123456790123,0,0,0.06790123456790123,57.03703703703703,0)" xlink:href="#R"/><use transform="matrix(0.06790123456790123,0,0,0.06790123456790123,70.61728395061728,0)" xlink:href="#P"/><use transform="matrix(0.06790123456790123,0,0,0.06790123456790123,84.19753086419752,0)" xlink:href="#S"/><use transform="matrix(0.06790123456790123,0,0,0.06790123456790123,92.27777777777777,0)" xlink:href="#L"/><use transform="matrix(0.06790123456790123,0,0,0.06790123456790123,105.85802469135803,0)" xlink:href="#T"/><use transform="matrix(0.06790123456790123,0,0,0.06790123456790123,120.72839506172839,0)" xlink:href="#U"/><use transform="matrix(0.06790123456790123,0,0,0.06790123456790123,127.5185185185185,0)" xlink:href="#S"/><use transform="matrix(0.06790123456790123,0,0,0.06790123456790123,135.59876543209876,0)" xlink:href="#V"/></g><path fill="#3a414a" d="M110-194c64 0 96 36 96 99 0 64-35 99-97 99-61 0-95-36-95-99 0-62 34-99 96-99zm-1 164c35 0 45-28 45-65 0-40-10-65-43-65-34 0-45 26-45 65 0 36 10 65 43 65" id="W"/><g id="c"><use transform="matrix(0.06790123456790123,0,0,0.06790123456790123,0,0)" xlink:href="#W"/><use transform="matrix(0.06790123456790123,0,0,0.06790123456790123,14.87037037037037,0)" xlink:href="#O"/></g><g id="d"><use transform="matrix(0.06790123456790123,0,0,0.06790123456790123,0,0)" xlink:href="#O"/><use transform="matrix(0.06790123456790123,0,0,0.06790123456790123,9.506172839506172,0)" xlink:href="#P"/><use transform="matrix(0.06790123456790123,0,0,0.06790123456790123,23.086419753086417,0)" xlink:href="#Q"/><use transform="matrix(0.06790123456790123,0,0,0.06790123456790123,29.87654320987654,0)" xlink:href="#P"/><use transform="matrix(0.06790123456790123,0,0,0.06790123456790123,43.456790123456784,0)" xlink:href="#L"/><use transform="matrix(0.06790123456790123,0,0,0.06790123456790123,57.03703703703703,0)" xlink:href="#R"/><use transform="matrix(0.06790123456790123,0,0,0.06790123456790123,70.61728395061728,0)" xlink:href="#P"/><use transform="matrix(0.06790123456790123,0,0,0.06790123456790123,84.19753086419752,0)" xlink:href="#S"/><use transform="matrix(0.06790123456790123,0,0,0.06790123456790123,92.27777777777777,0)" xlink:href="#L"/><use transform="matrix(0.06790123456790123,0,0,0.06790123456790123,105.85802469135803,0)" xlink:href="#Q"/><use transform="matrix(0.06790123456790123,0,0,0.06790123456790123,112.64814814814815,0)" xlink:href="#Q"/><use transform="matrix(0.06790123456790123,0,0,0.06790123456790123,119.43827160493828,0)" xlink:href="#S"/><use transform="matrix(0.06790123456790123,0,0,0.06790123456790123,127.51851851851853,0)" xlink:href="#V"/></g><path fill="#3a414a" d="M121-226c-27-7-43 5-38 36h38v33H83V0H34v-157H6v-33h28c-9-59 32-81 87-68v32" id="X"/><path fill="#3a414a" d="M85 4C-2 5 27-109 22-190h50c7 57-23 150 33 157 60-5 35-97 40-157h50l1 190h-47c-2-12 1-28-3-38-12 25-28 42-61 42" id="Y"/><path fill="#3a414a" d="M135-194c87-1 58 113 63 194h-50c-7-57 23-157-34-157-59 0-34 97-39 157H25l-1-190h47c2 12-1 28 3 38 12-26 28-41 61-42" id="Z"/><path fill="#3a414a" d="M190-63c-7 42-38 67-86 67-59 0-84-38-90-98-12-110 154-137 174-36l-49 2c-2-19-15-32-35-32-30 0-35 28-38 64-6 74 65 87 74 30" id="aa"/><g id="e"><use transform="matrix(0.06790123456790123,0,0,0.06790123456790123,0,0)" xlink:href="#O"/><use transform="matrix(0.06790123456790123,0,0,0.06790123456790123,9.506172839506172,0)" xlink:href="#P"/><use transform="matrix(0.06790123456790123,0,0,0.06790123456790123,23.086419753086417,0)" xlink:href="#Q"/><use transform="matrix(0.06790123456790123,0,0,0.06790123456790123,29.87654320987654,0)" xlink:href="#P"/><use transform="matrix(0.06790123456790123,0,0,0.06790123456790123,43.456790123456784,0)" xlink:href="#L"/><use transform="matrix(0.06790123456790123,0,0,0.06790123456790123,57.03703703703703,0)" xlink:href="#R"/><use transform="matrix(0.06790123456790123,0,0,0.06790123456790123,70.61728395061728,0)" xlink:href="#P"/><use transform="matrix(0.06790123456790123,0,0,0.06790123456790123,84.19753086419752,0)" xlink:href="#S"/><use transform="matrix(0.06790123456790123,0,0,0.06790123456790123,92.27777777777777,0)" xlink:href="#X"/><use transform="matrix(0.06790123456790123,0,0,0.06790123456790123,100.35802469135803,0)" xlink:href="#Y"/><use transform="matrix(0.06790123456790123,0,0,0.06790123456790123,115.22839506172839,0)" xlink:href="#Z"/><use transform="matrix(0.06790123456790123,0,0,0.06790123456790123,130.09876543209876,0)" xlink:href="#aa"/><use transform="matrix(0.06790123456790123,0,0,0.06790123456790123,143.679012345679,0)" xlink:href="#K"/><use transform="matrix(0.06790123456790123,0,0,0.06790123456790123,151.7592592592593,0)" xlink:href="#U"/><use transform="matrix(0.06790123456790123,0,0,0.06790123456790123,158.5493827160494,0)" xlink:href="#W"/><use transform="matrix(0.06790123456790123,0,0,0.06790123456790123,173.41975308641977,0)" xlink:href="#Z"/><use transform="matrix(0.06790123456790123,0,0,0.06790123456790123,188.29012345679016,0)" xlink:href="#R"/><use transform="matrix(0.06790123456790123,0,0,0.06790123456790123,201.8703703703704,0)" xlink:href="#S"/><use transform="matrix(0.06790123456790123,0,0,0.06790123456790123,209.95061728395066,0)" xlink:href="#V"/></g><path fill="#3a414a" d="M231 0h-52l-39-155L100 0H48L-1-190h46L77-45c9-52 24-97 36-145h53l37 145 32-145h46" id="ab"/><path fill="#3a414a" d="M135-194c52 0 70 43 70 98 0 56-19 99-73 100-30 1-46-15-58-35L72 0H24l1-261h50v104c11-23 29-37 60-37zM114-30c31 0 40-27 40-66 0-37-7-63-39-63s-41 28-41 65c0 36 8 64 40 64" id="ac"/><g id="f"><use transform="matrix(0.06790123456790123,0,0,0.06790123456790123,0,0)" xlink:href="#O"/><use transform="matrix(0.06790123456790123,0,0,0.06790123456790123,9.506172839506172,0)" xlink:href="#P"/><use transform="matrix(0.06790123456790123,0,0,0.06790123456790123,23.086419753086417,0)" xlink:href="#Q"/><use transform="matrix(0.06790123456790123,0,0,0.06790123456790123,29.87654320987654,0)" xlink:href="#P"/><use transform="matrix(0.06790123456790123,0,0,0.06790123456790123,43.456790123456784,0)" xlink:href="#L"/><use transform="matrix(0.06790123456790123,0,0,0.06790123456790123,57.03703703703703,0)" xlink:href="#R"/><use transform="matrix(0.06790123456790123,0,0,0.06790123456790123,70.61728395061728,0)" xlink:href="#P"/><use transform="matrix(0.06790123456790123,0,0,0.06790123456790123,84.19753086419752,0)" xlink:href="#S"/><use transform="matrix(0.06790123456790123,0,0,0.06790123456790123,92.27777777777777,0)" xlink:href="#ab"/><use transform="matrix(0.06790123456790123,0,0,0.06790123456790123,111.29012345679011,0)" xlink:href="#P"/><use transform="matrix(0.06790123456790123,0,0,0.06790123456790123,124.87037037037035,0)" xlink:href="#ac"/><use transform="matrix(0.06790123456790123,0,0,0.06790123456790123,139.74074074074073,0)" xlink:href="#S"/><use transform="matrix(0.06790123456790123,0,0,0.06790123456790123,147.820987654321,0)" xlink:href="#V"/></g><path d="M238-95c0 69-44 99-111 99C63 4 22-25 22-93v-155h51v151c-1 38 19 59 55 60 90 1 49-130 58-211h52v153" id="ad"/><path d="M135-194c53 0 70 44 70 98 0 56-19 98-73 100-31 1-45-17-59-34 3 33 2 69 2 105H25l-1-265h48c2 10 0 23 3 31 11-24 29-35 60-35zM114-30c33 0 39-31 40-66 0-38-9-64-40-64-56 0-55 130 0 130" id="ae"/><path d="M88-194c31-1 46 15 58 34l-1-101h50l1 261h-48c-2-10 0-23-3-31C134-8 116 4 84 4 32 4 16-41 15-95c0-56 19-97 73-99zm17 164c33 0 40-30 41-66 1-37-9-64-41-64s-38 30-39 65c0 43 13 65 39 65" id="af"/><path d="M133-34C117-15 103 5 69 4 32 3 11-16 11-54c-1-60 55-63 116-61 1-26-3-47-28-47-18 1-26 9-28 27l-52-2c7-38 36-58 82-57s74 22 75 68l1 82c-1 14 12 18 25 15v27c-30 8-71 5-69-32zm-48 3c29 0 43-24 42-57-32 0-66-3-65 30 0 17 8 27 23 27" id="ag"/><path d="M115-3C79 11 28 4 28-45v-112H4v-33h27l15-45h31v45h36v33H77v99c-1 23 16 31 38 25v30" id="ah"/><path d="M185-48c-13 30-37 53-82 52C43 2 14-33 14-96s30-98 90-98c62 0 83 45 84 108H66c0 31 8 55 39 56 18 0 30-7 34-22zm-45-69c5-46-57-63-70-21-2 6-4 13-4 21h74" id="ai"/><g id="g"><use transform="matrix(0.07407407407407408,0,0,0.07407407407407408,0,0)" xlink:href="#ad"/><use transform="matrix(0.07407407407407408,0,0,0.07407407407407408,19.185185185185187,0)" xlink:href="#ae"/><use transform="matrix(0.07407407407407408,0,0,0.07407407407407408,35.40740740740741,0)" xlink:href="#af"/><use transform="matrix(0.07407407407407408,0,0,0.07407407407407408,51.62962962962963,0)" xlink:href="#ag"/><use transform="matrix(0.07407407407407408,0,0,0.07407407407407408,66.44444444444446,0)" xlink:href="#ah"/><use transform="matrix(0.07407407407407408,0,0,0.07407407407407408,75.25925925925927,0)" xlink:href="#ai"/></g><path d="M24-248c120-7 223 5 221 122C244-46 201 0 124 0H24v-248zM76-40c74 7 117-18 117-86 0-67-45-88-117-82v168" id="aj"/><path d="M135-194c52 0 70 43 70 98 0 56-19 99-73 100-30 1-46-15-58-35L72 0H24l1-261h50v104c11-23 29-37 60-37zM114-30c31 0 40-27 40-66 0-37-7-63-39-63s-41 28-41 65c0 36 8 64 40 64" id="ak"/><path d="M137-138c1-29-70-34-71-4 15 46 118 7 119 86 1 83-164 76-172 9l43-7c4 19 20 25 44 25 33 8 57-30 24-41C81-84 22-81 20-136c-2-80 154-74 161-7" id="al"/><g id="h"><use transform="matrix(0.07407407407407408,0,0,0.07407407407407408,0,0)" xlink:href="#aj"/><use transform="matrix(0.07407407407407408,0,0,0.07407407407407408,19.185185185185187,0)" xlink:href="#ag"/><use transform="matrix(0.07407407407407408,0,0,0.07407407407407408,34,0)" xlink:href="#ah"/><use transform="matrix(0.07407407407407408,0,0,0.07407407407407408,42.814814814814824,0)" xlink:href="#ag"/><use transform="matrix(0.07407407407407408,0,0,0.07407407407407408,57.62962962962964,0)" xlink:href="#ak"/><use transform="matrix(0.07407407407407408,0,0,0.07407407407407408,73.85185185185186,0)" xlink:href="#ag"/><use transform="matrix(0.07407407407407408,0,0,0.07407407407407408,88.66666666666667,0)" xlink:href="#al"/><use transform="matrix(0.07407407407407408,0,0,0.07407407407407408,103.4814814814815,0)" xlink:href="#ai"/></g><path d="M143 4C61 4 22-44 18-125c-5-107 100-154 193-111 17 8 29 25 37 43l-32 9c-13-25-37-40-76-40-61 0-88 39-88 99 0 61 29 100 91 101 35 0 62-11 79-27v-45h-74v-28h105v86C228-13 192 4 143 4" id="am"/><path d="M24-231v-30h32v30H24zM24 0v-190h32V0H24" id="an"/><path d="M59-47c-2 24 18 29 38 22v24C64 9 27 4 27-40v-127H5v-23h24l9-43h21v43h35v23H59v120" id="ao"/><path d="M197 0v-115H63V0H30v-248h33v105h134v-105h34V0h-34" id="ap"/><path d="M84 4C-5 8 30-112 23-190h32v120c0 31 7 50 39 49 72-2 45-101 50-169h31l1 190h-30c-1-10 1-25-2-33-11 22-28 36-60 37" id="aq"/><path d="M115-194c53 0 69 39 70 98 0 66-23 100-70 100C84 3 66-7 56-30L54 0H23l1-261h32v101c10-23 28-34 59-34zm-8 174c40 0 45-34 45-75 0-40-5-75-45-74-42 0-51 32-51 76 0 43 10 73 51 73" id="ar"/><g id="i"><use transform="matrix(0.07469135802469135,0,0,0.07469135802469135,0,0)" xlink:href="#am"/><use transform="matrix(0.07469135802469135,0,0,0.07469135802469135,20.913580246913575,0)" xlink:href="#an"/><use transform="matrix(0.07469135802469135,0,0,0.07469135802469135,26.81419753086419,0)" xlink:href="#ao"/><use transform="matrix(0.07469135802469135,0,0,0.07469135802469135,34.283333333333324,0)" xlink:href="#ap"/><use transform="matrix(0.07469135802469135,0,0,0.07469135802469135,53.62839506172838,0)" xlink:href="#aq"/><use transform="matrix(0.07469135802469135,0,0,0.07469135802469135,68.56666666666665,0)" xlink:href="#ar"/></g><path d="M233-177c-1 41-23 64-60 70L243 0h-38l-65-103H63V0H30v-248c88 3 205-21 203 71zM63-129c60-2 137 13 137-47 0-61-80-42-137-45v92" id="as"/><path d="M100-194c63 0 86 42 84 106H49c0 40 14 67 53 68 26 1 43-12 49-29l28 8c-11 28-37 45-77 45C44 4 14-33 15-96c1-61 26-98 85-98zm52 81c6-60-76-77-97-28-3 7-6 17-6 28h103" id="at"/><path d="M115-194c55 1 70 41 70 98S169 2 115 4C84 4 66-9 55-30l1 105H24l-1-265h31l2 30c10-21 28-34 59-34zm-8 174c40 0 45-34 45-75s-6-73-45-74c-42 0-51 32-51 76 0 43 10 73 51 73" id="au"/><path d="M100-194c62-1 85 37 85 99 1 63-27 99-86 99S16-35 15-95c0-66 28-99 85-99zM99-20c44 1 53-31 53-75 0-43-8-75-51-75s-53 32-53 75 10 74 51 75" id="av"/><path d="M135-143c-3-34-86-38-87 0 15 53 115 12 119 90S17 21 10-45l28-5c4 36 97 45 98 0-10-56-113-15-118-90-4-57 82-63 122-42 12 7 21 19 24 35" id="aw"/><path d="M114-163C36-179 61-72 57 0H25l-1-190h30c1 12-1 29 2 39 6-27 23-49 58-41v29" id="ax"/><path d="M179-190L93 31C79 59 56 82 12 73V49c39 6 53-20 64-50L1-190h34L92-34l54-156h33" id="ay"/><g id="j"><use transform="matrix(0.07469135802469135,0,0,0.07469135802469135,0,0)" xlink:href="#as"/><use transform="matrix(0.07469135802469135,0,0,0.07469135802469135,19.34506172839506,0)" xlink:href="#at"/><use transform="matrix(0.07469135802469135,0,0,0.07469135802469135,34.28333333333333,0)" xlink:href="#au"/><use transform="matrix(0.07469135802469135,0,0,0.07469135802469135,49.2216049382716,0)" xlink:href="#av"/><use transform="matrix(0.07469135802469135,0,0,0.07469135802469135,64.15987654320986,0)" xlink:href="#aw"/><use transform="matrix(0.07469135802469135,0,0,0.07469135802469135,77.6043209876543,0)" xlink:href="#an"/><use transform="matrix(0.07469135802469135,0,0,0.07469135802469135,83.50493827160491,0)" xlink:href="#ao"/><use transform="matrix(0.07469135802469135,0,0,0.07469135802469135,90.97407407407405,0)" xlink:href="#av"/><use transform="matrix(0.07469135802469135,0,0,0.07469135802469135,105.9123456790123,0)" xlink:href="#ax"/><use transform="matrix(0.07469135802469135,0,0,0.07469135802469135,114.80061728395059,0)" xlink:href="#ay"/></g><path d="M205 0l-28-72H64L36 0H1l101-248h38L239 0h-34zm-38-99l-47-123c-12 45-31 82-46 123h93" id="az"/><path d="M9 0v-24l116-142H16v-24h144v24L44-24h123V0H9" id="aA"/><g id="k"><use transform="matrix(0.07469135802469135,0,0,0.07469135802469135,0,0)" xlink:href="#az"/><use transform="matrix(0.07469135802469135,0,0,0.07469135802469135,17.925925925925924,0)" xlink:href="#aA"/><use transform="matrix(0.07469135802469135,0,0,0.07469135802469135,31.370370370370367,0)" xlink:href="#aq"/><use transform="matrix(0.07469135802469135,0,0,0.07469135802469135,46.30864197530863,0)" xlink:href="#ax"/><use transform="matrix(0.07469135802469135,0,0,0.07469135802469135,55.19691358024689,0)" xlink:href="#at"/></g><path d="M30-248c118-7 216 8 213 122C240-48 200 0 122 0H30v-248zM63-27c89 8 146-16 146-99s-60-101-146-95v194" id="aB"/><path d="M108 0H70L1-190h34L89-25l56-165h34" id="aC"/><path d="M140-251c81 0 123 46 123 126C263-46 219 4 140 4 59 4 17-45 17-125s42-126 123-126zm0 227c63 0 89-41 89-101s-29-99-89-99c-61 0-89 39-89 99S79-25 140-24" id="aD"/><g id="l"><use transform="matrix(0.07469135802469135,0,0,0.07469135802469135,0,0)" xlink:href="#aB"/><use transform="matrix(0.07469135802469135,0,0,0.07469135802469135,19.34506172839506,0)" xlink:href="#at"/><use transform="matrix(0.07469135802469135,0,0,0.07469135802469135,34.28333333333333,0)" xlink:href="#aC"/><use transform="matrix(0.07469135802469135,0,0,0.07469135802469135,47.72777777777778,0)" xlink:href="#aD"/><use transform="matrix(0.07469135802469135,0,0,0.07469135802469135,68.64135802469136,0)" xlink:href="#au"/><use transform="matrix(0.07469135802469135,0,0,0.07469135802469135,83.57962962962962,0)" xlink:href="#aw"/></g><g id="m"><use transform="matrix(0.07469135802469135,0,0,0.07469135802469135,0,0)" xlink:href="#az"/><use transform="matrix(0.07469135802469135,0,0,0.07469135802469135,17.925925925925924,0)" xlink:href="#aA"/><use transform="matrix(0.07469135802469135,0,0,0.07469135802469135,31.370370370370367,0)" xlink:href="#aq"/><use transform="matrix(0.07469135802469135,0,0,0.07469135802469135,46.30864197530863,0)" xlink:href="#ax"/><use transform="matrix(0.07469135802469135,0,0,0.07469135802469135,55.19691358024689,0)" xlink:href="#at"/></g><path d="M30-248c87 1 191-15 191 75 0 78-77 80-158 76V0H30v-248zm33 125c57 0 124 11 124-50 0-59-68-47-124-48v98" id="aE"/><path d="M24 0v-261h32V0H24" id="aF"/><path d="M117-194c89-4 53 116 60 194h-32v-121c0-31-8-49-39-48C34-167 62-67 57 0H25l-1-190h30c1 10-1 24 2 32 11-22 29-35 61-36" id="aG"/><path d="M33-154v-36h34v36H33zM33 0v-36h34V0H33" id="aH"/><g id="n"><use transform="matrix(0.07469135802469135,0,0,0.07469135802469135,0,0)" xlink:href="#aE"/><use transform="matrix(0.07469135802469135,0,0,0.07469135802469135,17.925925925925924,0)" xlink:href="#an"/><use transform="matrix(0.07469135802469135,0,0,0.07469135802469135,23.82654320987654,0)" xlink:href="#au"/><use transform="matrix(0.07469135802469135,0,0,0.07469135802469135,38.764814814814805,0)" xlink:href="#at"/><use transform="matrix(0.07469135802469135,0,0,0.07469135802469135,53.70308641975308,0)" xlink:href="#aF"/><use transform="matrix(0.07469135802469135,0,0,0.07469135802469135,59.603703703703694,0)" xlink:href="#an"/><use transform="matrix(0.07469135802469135,0,0,0.07469135802469135,65.50432098765431,0)" xlink:href="#aG"/><use transform="matrix(0.07469135802469135,0,0,0.07469135802469135,80.44259259259258,0)" xlink:href="#at"/><use transform="matrix(0.07469135802469135,0,0,0.07469135802469135,95.38086419753085,0)" xlink:href="#aw"/><use transform="matrix(0.07469135802469135,0,0,0.07469135802469135,108.8253086419753,0)" xlink:href="#aH"/></g><path d="M160-131c35 5 61 23 61 61C221 17 115-2 30 0v-248c76 3 177-17 177 60 0 33-19 50-47 57zm-97-11c50-1 110 9 110-42 0-47-63-36-110-37v79zm0 115c55-2 124 14 124-45 0-56-70-42-124-44v89" id="aI"/><path d="M85-194c31 0 48 13 60 33l-1-100h32l1 261h-30c-2-10 0-23-3-31C134-8 116 4 85 4 32 4 16-35 15-94c0-66 23-100 70-100zm9 24c-40 0-46 34-46 75 0 40 6 74 45 74 42 0 51-32 51-76 0-42-9-74-50-73" id="aJ"/><g id="o"><use transform="matrix(0.07469135802469135,0,0,0.07469135802469135,0,0)" xlink:href="#aI"/><use transform="matrix(0.07469135802469135,0,0,0.07469135802469135,17.925925925925924,0)" xlink:href="#aq"/><use transform="matrix(0.07469135802469135,0,0,0.07469135802469135,32.86419753086419,0)" xlink:href="#an"/><use transform="matrix(0.07469135802469135,0,0,0.07469135802469135,38.764814814814805,0)" xlink:href="#aF"/><use transform="matrix(0.07469135802469135,0,0,0.07469135802469135,44.66543209876542,0)" xlink:href="#aJ"/></g><path d="M234-2c-28 10-62 0-77-18C117 19 8 12 13-65c3-43 29-61 60-76-25-40-17-114 47-108 35 3 59 15 59 50 0 44-40 53-71 69 14 26 32 50 51 72 14-21 24-43 30-72l26 8c-9 33-21 57-38 82 13 13 33 22 57 15v23zM97-151c25-10 52-18 56-48-1-18-13-29-33-29-42 0-39 50-23 77zM42-66c-3 51 71 58 98 28-20-24-41-51-56-80-23 10-40 24-42 52" id="aK"/><use transform="matrix(0.07469135802469135,0,0,0.07469135802469135,0,0)" xlink:href="#aK" id="p"/><g id="q"><use transform="matrix(0.07469135802469135,0,0,0.07469135802469135,0,0)" xlink:href="#as"/><use transform="matrix(0.07469135802469135,0,0,0.07469135802469135,19.34506172839506,0)" xlink:href="#aq"/><use transform="matrix(0.07469135802469135,0,0,0.07469135802469135,34.28333333333333,0)" xlink:href="#aG"/></g><path d="M127-220V0H93v-220H8v-28h204v28h-85" id="aL"/><g id="r"><use transform="matrix(0.07469135802469135,0,0,0.07469135802469135,0,0)" xlink:href="#aL"/><use transform="matrix(0.07469135802469135,0,0,0.07469135802469135,13.36975308641975,0)" xlink:href="#at"/><use transform="matrix(0.07469135802469135,0,0,0.07469135802469135,28.30802469135802,0)" xlink:href="#aw"/><use transform="matrix(0.07469135802469135,0,0,0.07469135802469135,41.752469135802464,0)" xlink:href="#ao"/><use transform="matrix(0.07469135802469135,0,0,0.07469135802469135,49.2216049382716,0)" xlink:href="#aw"/></g><linearGradient gradientUnits="userSpaceOnUse" id="s" x1="-1448" y1="432.01" x2="-1448" y2="334.99"><stop offset="0%" stop-color="#005ba1"/><stop offset="77.5%" stop-color="#0078d4"/></linearGradient><path d="M25 0v-261h50V0H25" id="aM"/><path d="M110-194c64 0 96 36 96 99 0 64-35 99-97 99-61 0-95-36-95-99 0-62 34-99 96-99zm-1 164c35 0 45-28 45-65 0-40-10-65-43-65-34 0-45 26-45 65 0 36 10 65 43 65" id="aN"/><path d="M123 10C108 53 80 86 19 72V37c35 8 53-11 59-39L3-190h52l48 148c12-52 28-100 44-148h51" id="aO"/><g id="t"><use transform="matrix(0.07407407407407408,0,0,0.07407407407407408,0,0)" xlink:href="#aj"/><use transform="matrix(0.07407407407407408,0,0,0.07407407407407408,19.185185185185187,0)" xlink:href="#ai"/><use transform="matrix(0.07407407407407408,0,0,0.07407407407407408,34,0)" xlink:href="#ae"/><use transform="matrix(0.07407407407407408,0,0,0.07407407407407408,50.22222222222223,0)" xlink:href="#aM"/><use transform="matrix(0.07407407407407408,0,0,0.07407407407407408,57.62962962962964,0)" xlink:href="#aN"/><use transform="matrix(0.07407407407407408,0,0,0.07407407407407408,73.85185185185186,0)" xlink:href="#aO"/></g><path d="M76-208v77h127v40H76V0H24v-248h183v40H76" id="aP"/><path d="M135-150c-39-12-60 13-60 57V0H25l-1-190h47c2 13-1 29 3 40 6-28 27-53 61-41v41" id="aQ"/><path d="M135-194c87-1 58 113 63 194h-50c-7-57 23-157-34-157-59 0-34 97-39 157H25l-1-190h47c2 12-1 28 3 38 12-26 28-41 61-42" id="aR"/><g id="u"><use transform="matrix(0.07407407407407408,0,0,0.07407407407407408,0,0)" xlink:href="#aP"/><use transform="matrix(0.07407407407407408,0,0,0.07407407407407408,16.222222222222225,0)" xlink:href="#aQ"/><use transform="matrix(0.07407407407407408,0,0,0.07407407407407408,26.592592592592595,0)" xlink:href="#aN"/><use transform="matrix(0.07407407407407408,0,0,0.07407407407407408,42.814814814814824,0)" xlink:href="#aR"/><use transform="matrix(0.07407407407407408,0,0,0.07407407407407408,59.03703703703705,0)" xlink:href="#ah"/><use transform="matrix(0.07407407407407408,0,0,0.07407407407407408,67.85185185185188,0)" xlink:href="#ai"/><use transform="matrix(0.07407407407407408,0,0,0.07407407407407408,82.66666666666667,0)" xlink:href="#aR"/><use transform="matrix(0.07407407407407408,0,0,0.07407407407407408,98.88888888888891,0)" xlink:href="#af"/></g><g id="v"><use transform="matrix(0.07407407407407408,0,0,0.07407407407407408,0,0)" xlink:href="#ah"/><use transform="matrix(0.07407407407407408,0,0,0.07407407407407408,8.814814814814817,0)" xlink:href="#aN"/></g><path d="M199 0l-22-63H83L61 0H9l90-248h61L250 0h-51zm-33-102l-36-108c-10 38-24 72-36 108h72" id="aS"/><path d="M12 0v-35l95-120H19v-35h142v35L67-36h103V0H12" id="aT"/><path d="M85 4C-2 5 27-109 22-190h50c7 57-23 150 33 157 60-5 35-97 40-157h50l1 190h-47c-2-12 1-28-3-38-12 25-28 42-61 42" id="aU"/><g id="w"><use transform="matrix(0.07407407407407408,0,0,0.07407407407407408,0,0)" xlink:href="#aS"/><use transform="matrix(0.07407407407407408,0,0,0.07407407407407408,19.185185185185187,0)" xlink:href="#aT"/><use transform="matrix(0.07407407407407408,0,0,0.07407407407407408,32.51851851851852,0)" xlink:href="#aU"/><use transform="matrix(0.07407407407407408,0,0,0.07407407407407408,48.74074074074075,0)" xlink:href="#aQ"/><use transform="matrix(0.07407407407407408,0,0,0.07407407407407408,59.11111111111112,0)" xlink:href="#ai"/></g><path d="M169-182c-1-43-94-46-97-3 18 66 151 10 154 114 3 95-165 93-204 36-6-8-10-19-12-30l50-8c3 46 112 56 116 5-17-69-150-10-154-114-4-87 153-88 188-35 5 8 8 18 10 28" id="aV"/><path d="M25-224v-37h50v37H25zM25 0v-190h50V0H25" id="aW"/><path d="M190-63c-7 42-38 67-86 67-59 0-84-38-90-98-12-110 154-137 174-36l-49 2c-2-19-15-32-35-32-30 0-35 28-38 64-6 74 65 87 74 30" id="aX"/><g id="x"><use transform="matrix(0.07407407407407408,0,0,0.07407407407407408,0,0)" xlink:href="#aV"/><use transform="matrix(0.07407407407407408,0,0,0.07407407407407408,17.77777777777778,0)" xlink:href="#ah"/><use transform="matrix(0.07407407407407408,0,0,0.07407407407407408,26.592592592592595,0)" xlink:href="#ag"/><use transform="matrix(0.07407407407407408,0,0,0.07407407407407408,41.40740740740741,0)" xlink:href="#ah"/><use transform="matrix(0.07407407407407408,0,0,0.07407407407407408,50.22222222222223,0)" xlink:href="#aW"/><use transform="matrix(0.07407407407407408,0,0,0.07407407407407408,57.62962962962964,0)" xlink:href="#aX"/></g><path d="M275 0h-61l-44-196L126 0H64L0-248h53L97-49l45-199h58l43 199 44-199h52" id="aY"/><g id="y"><use transform="matrix(0.07407407407407408,0,0,0.07407407407407408,0,0)" xlink:href="#aY"/><use transform="matrix(0.07407407407407408,0,0,0.07407407407407408,24.592592592592595,0)" xlink:href="#ai"/><use transform="matrix(0.07407407407407408,0,0,0.07407407407407408,39.40740740740741,0)" xlink:href="#ak"/></g><g id="z"><use transform="matrix(0.07407407407407408,0,0,0.07407407407407408,0,0)" xlink:href="#aS"/><use transform="matrix(0.07407407407407408,0,0,0.07407407407407408,19.185185185185187,0)" xlink:href="#ae"/><use transform="matrix(0.07407407407407408,0,0,0.07407407407407408,35.40740740740741,0)" xlink:href="#ae"/></g><g id="A"><use transform="matrix(0.07407407407407408,0,0,0.07407407407407408,0,0)" xlink:href="#aP"/><use transform="matrix(0.07407407407407408,0,0,0.07407407407407408,16.222222222222225,0)" xlink:href="#aU"/><use transform="matrix(0.07407407407407408,0,0,0.07407407407407408,32.44444444444445,0)" xlink:href="#aR"/><use transform="matrix(0.07407407407407408,0,0,0.07407407407407408,48.66666666666667,0)" xlink:href="#aX"/><use transform="matrix(0.07407407407407408,0,0,0.07407407407407408,63.48148148148149,0)" xlink:href="#ah"/><use transform="matrix(0.07407407407407408,0,0,0.07407407407407408,72.2962962962963,0)" xlink:href="#aW"/><use transform="matrix(0.07407407407407408,0,0,0.07407407407407408,79.70370370370371,0)" xlink:href="#aN"/><use transform="matrix(0.07407407407407408,0,0,0.07407407407407408,95.92592592592594,0)" xlink:href="#aR"/><use transform="matrix(0.07407407407407408,0,0,0.07407407407407408,112.14814814814817,0)" xlink:href="#al"/></g><g id="B"><use transform="matrix(0.07407407407407408,0,0,0.07407407407407408,0,0)" xlink:href="#aS"/><use transform="matrix(0.07407407407407408,0,0,0.07407407407407408,19.185185185185187,0)" xlink:href="#aT"/><use transform="matrix(0.07407407407407408,0,0,0.07407407407407408,32.51851851851852,0)" xlink:href="#aU"/><use transform="matrix(0.07407407407407408,0,0,0.07407407407407408,48.74074074074075,0)" xlink:href="#aQ"/><use transform="matrix(0.07407407407407408,0,0,0.07407407407407408,59.11111111111112,0)" xlink:href="#ai"/></g><g id="C"><use transform="matrix(0.07407407407407408,0,0,0.07407407407407408,0,0)" xlink:href="#aP"/><use transform="matrix(0.07407407407407408,0,0,0.07407407407407408,16.222222222222225,0)" xlink:href="#aU"/><use transform="matrix(0.07407407407407408,0,0,0.07407407407407408,32.44444444444445,0)" xlink:href="#aR"/><use transform="matrix(0.07407407407407408,0,0,0.07407407407407408,48.66666666666667,0)" xlink:href="#aX"/><use transform="matrix(0.07407407407407408,0,0,0.07407407407407408,63.48148148148149,0)" xlink:href="#ah"/><use transform="matrix(0.07407407407407408,0,0,0.07407407407407408,72.2962962962963,0)" xlink:href="#aW"/><use transform="matrix(0.07407407407407408,0,0,0.07407407407407408,79.70370370370371,0)" xlink:href="#aN"/><use transform="matrix(0.07407407407407408,0,0,0.07407407407407408,95.92592592592594,0)" xlink:href="#aR"/></g><g id="D"><use transform="matrix(0.07407407407407408,0,0,0.07407407407407408,0,0)" xlink:href="#aj"/><use transform="matrix(0.07407407407407408,0,0,0.07407407407407408,19.185185185185187,0)" xlink:href="#ai"/><use transform="matrix(0.07407407407407408,0,0,0.07407407407407408,34,0)" xlink:href="#ae"/><use transform="matrix(0.07407407407407408,0,0,0.07407407407407408,50.22222222222223,0)" xlink:href="#aM"/><use transform="matrix(0.07407407407407408,0,0,0.07407407407407408,57.62962962962964,0)" xlink:href="#aN"/><use transform="matrix(0.07407407407407408,0,0,0.07407407407407408,73.85185185185186,0)" xlink:href="#aO"/></g><path d="M24-248c93 1 206-16 204 79-1 75-69 88-152 82V0H24v-248zm52 121c47 0 100 7 100-41 0-47-54-39-100-39v80" id="aZ"/><path d="M24 0v-248h52V0H24" id="ba"/><g id="E"><use transform="matrix(0.07407407407407408,0,0,0.07407407407407408,0,0)" xlink:href="#aS"/><use transform="matrix(0.07407407407407408,0,0,0.07407407407407408,19.185185185185187,0)" xlink:href="#aZ"/><use transform="matrix(0.07407407407407408,0,0,0.07407407407407408,36.96296296296296,0)" xlink:href="#ba"/><use transform="matrix(0.07407407407407408,0,0,0.07407407407407408,44.37037037037037,0)" xlink:href="#al"/></g><g id="F"><use transform="matrix(0.07407407407407408,0,0,0.07407407407407408,0,0)" xlink:href="#ah"/><use transform="matrix(0.07407407407407408,0,0,0.07407407407407408,8.814814814814817,0)" xlink:href="#aN"/></g><g id="G"><use transform="matrix(0.07407407407407408,0,0,0.07407407407407408,0,0)" xlink:href="#aS"/><use transform="matrix(0.07407407407407408,0,0,0.07407407407407408,19.185185185185187,0)" xlink:href="#ae"/><use transform="matrix(0.07407407407407408,0,0,0.07407407407407408,35.40740740740741,0)" xlink:href="#ae"/></g><path d="M128 0H69L1-190h53L99-40l48-150h52" id="bb"/><g id="H"><use transform="matrix(0.07407407407407408,0,0,0.07407407407407408,0,0)" xlink:href="#aV"/><use transform="matrix(0.07407407407407408,0,0,0.07407407407407408,17.77777777777778,0)" xlink:href="#ai"/><use transform="matrix(0.07407407407407408,0,0,0.07407407407407408,32.592592592592595,0)" xlink:href="#aQ"/><use transform="matrix(0.07407407407407408,0,0,0.07407407407407408,42.96296296296297,0)" xlink:href="#bb"/><use transform="matrix(0.07407407407407408,0,0,0.07407407407407408,57.777777777777786,0)" xlink:href="#aW"/><use transform="matrix(0.07407407407407408,0,0,0.07407407407407408,65.18518518518519,0)" xlink:href="#aX"/><use transform="matrix(0.07407407407407408,0,0,0.07407407407407408,80,0)" xlink:href="#ai"/></g><path fill="#3a414a" d="M169-182c-1-43-94-46-97-3 18 66 151 10 154 114 3 95-165 93-204 36-6-8-10-19-12-30l50-8c3 46 112 56 116 5-17-69-150-10-154-114-4-87 153-88 188-35 5 8 8 18 10 28" id="bc"/><g id="I"><use transform="matrix(0.12345679012345674,0,0,0.12345679012345674,0,0)" xlink:href="#bc"/><use transform="matrix(0.12345679012345674,0,0,0.12345679012345674,29.62962962962962,0)" xlink:href="#K"/><use transform="matrix(0.12345679012345674,0,0,0.12345679012345674,44.32098765432097,0)" xlink:href="#L"/><use transform="matrix(0.12345679012345674,0,0,0.12345679012345674,69.01234567901233,0)" xlink:href="#M"/><use transform="matrix(0.12345679012345674,0,0,0.12345679012345674,96.04938271604935,0)" xlink:href="#U"/><use transform="matrix(0.12345679012345674,0,0,0.12345679012345674,108.39506172839502,0)" xlink:href="#Z"/><use transform="matrix(0.12345679012345674,0,0,0.12345679012345674,135.43209876543204,0)" xlink:href="#M"/></g><path fill="#3a414a" d="M24 0v-248h195v40H76v63h132v40H76v65h150V0H24" id="bd"/><path fill="#3a414a" d="M128 0H69L1-190h53L99-40l48-150h52" id="be"/><path fill="#3a414a" d="M220-157c-53 9-28 100-34 157h-49v-107c1-27-5-49-29-50C55-147 81-57 75 0H25l-1-190h47c2 12-1 28 3 38 10-53 101-56 108 0 13-22 24-43 59-42 82 1 51 116 57 194h-49v-107c-1-25-5-48-29-50" id="bf"/><g id="J"><use transform="matrix(0.12345679012345674,0,0,0.12345679012345674,0,0)" xlink:href="#bd"/><use transform="matrix(0.12345679012345674,0,0,0.12345679012345674,29.62962962962962,0)" xlink:href="#Z"/><use transform="matrix(0.12345679012345674,0,0,0.12345679012345674,56.66666666666664,0)" xlink:href="#be"/><use transform="matrix(0.12345679012345674,0,0,0.12345679012345674,81.358024691358,0)" xlink:href="#U"/><use transform="matrix(0.12345679012345674,0,0,0.12345679012345674,93.70370370370367,0)" xlink:href="#O"/><use transform="matrix(0.12345679012345674,0,0,0.12345679012345674,110.98765432098762,0)" xlink:href="#W"/><use transform="matrix(0.12345679012345674,0,0,0.12345679012345674,138.02469135802465,0)" xlink:href="#Z"/><use transform="matrix(0.12345679012345674,0,0,0.12345679012345674,165.0617283950617,0)" xlink:href="#bf"/><use transform="matrix(0.12345679012345674,0,0,0.12345679012345674,204.56790123456784,0)" xlink:href="#P"/><use transform="matrix(0.12345679012345674,0,0,0.12345679012345674,229.25925925925918,0)" xlink:href="#Z"/><use transform="matrix(0.12345679012345674,0,0,0.12345679012345674,256.2962962962962,0)" xlink:href="#K"/></g></defs></g></svg>