<svg xmlns="http://www.w3.org/2000/svg" xmlns:xlink="http://www.w3.org/1999/xlink" xmlns:lucid="lucid" width="1410.83" height="1368.41"><g transform="translate(1109.4074074074074 923.4090909090909)" lucid:page-tab-id="0_0"><path d="M-1500-1000H500V500h-2000z" fill="#fff"/><path d="M-364.43-842.85c6.43 24.88-8.57 50.3-33.55 56.64-24.88 6.42-50.33-8.58-56.66-33.54-6.43-24.88 8.57-50.22 33.55-56.64.47-.1.75-.2 1.22-.28 24.7-5.7 49.3 9.3 55.45 33.8z" stroke="#000" stroke-opacity="0" stroke-width="6.82" fill="#59b4d9"/><path d="M-415.8-813.05c0-6.77-5.5-12.24-12.23-12.24h-2.3c0-.24 0-.4.1-.56 1.37-6.36-2.6-12.64-8.94-14.1h-15.18c-2.95 14.75 1 28.6 11.13 39.7h15.2c6.9-.3 12.23-5.95 12.23-12.8zm15.2-50.82v2.34h-5.25c-7.1 0-12.9 5.8-12.9 12.88 0 7.1 5.8 12.8 12.9 12.8h42.6c-1.2-15.86-9.75-28.82-23.92-36.15h-5.62c-4.42.08-7.92 3.78-7.83 8.13zm37.36 36.8h-25.13-.1c-5.7 0-10.4 4.68-10.4 10.47.1 1.94.47 3.47 1.2 5.24-5.42 1.77-8.46 7.4-6.98 12.88 1.2 4.43 5.24 7.33 9.84 7h7.08c14-7.4 22.64-19.88 24.48-35.6z" stroke="#000" stroke-opacity="0" stroke-width="6.82" fill="#fff" fill-opacity=".5"/><path d="M-461.33-862.67c-.6-.03-1.1-.52-1.14-1.15 0-9.04-7.32-16.36-16.35-16.36-.6.6-1.18-.56-1.18-1.15.04-.64.53-1.12 1.18-1.16 9.03 0 16.35-7.3 16.35-16.34 0-1.16.57-1.16 1.14-1.16.6 0 1.75 0 1.75 1.16 0 9.03 7.32 16.35 16.35 16.35.65 0 1.18.53 1.18 1.17 0 .63-.53 1.15-1.18 1.15-9.03 0-16.35 7.32-16.35 16.36 0 .56-.57 1.15-1.75 1.15z" stroke="#000" stroke-opacity="0" stroke-width="6.82" fill="#b8d432"/><path d="M-361.5-771.67c-.56 0-.56 0-.56-.6-.23-5.28-4.62-9.44-9.94-9.3-.58 0-.58 0-.58-.6s0-.6.58-.6c5.25-.07 9.5-4.08 9.94-9.3 0-.6 0-.6.57-.6.6 0 .6 0 .6.6.2 5.28 4.6 9.44 9.93 9.32.57 0 .57 0 .57.58 0 .6 0 .6-.57.6-5.26.08-9.52 4.1-9.94 9.32.6.58 0 .58-.6.58z" stroke="#000" stroke-opacity="0" stroke-width="6.82" fill="#59b4d9"/><path d="M-341.67-873.17c-4.6-7.03-15.16-8.76-32.14-4.62-5.43 1.26-9.88 2.6-15.17 4.63 3.34 1.73 5.98 3.46 8.77 5.87 2.92-.58 5.84-1.74 8.2-2.4 4.6-1.16 8.63-1.74 13.5-1.74 5.14 0 8.07 1.15 9.32 2.98 1.67 2.9 0 9.9-9.32 20.97-1.95 2.22-3.76 3.96-5.85 5.88-11.26 10.68-21.84 18.76-35.05 26.74-13.08 8.27-25.05 13.66-39.8 18.1-16.82 5.28-28.5 5.28-30.88 1.24-2.36-4.14 2.37-14.63 15.17-26.84-.7-3.66-1.13-6.83-1.13-10.58-19.9 18.08-26.3 33.86-21.7 42.03 4.6 5.2 10.72 7.7 17.53 7.03 10.85-.4 19.9-2.4 29.77-6.45 12.94-4.9 23.38-10.1 35.06-17.5 11.7-7.32 21.15-14.24 31.58-23.3 4.18-3.64 7.52-6.9 11-11.14 11.7-13.37 15.3-23.85 11.13-30.87z" stroke="#000" stroke-opacity="0" stroke-width="6.82"/><use xlink:href="#a" transform="matrix(1,0,0,1,-510,-762.6666666666666) translate(51.481481481481474 21.333333333333336)"/><use xlink:href="#b" transform="matrix(1,0,0,1,-510,-762.6666666666666) translate(94.2962962962963 21.333333333333336)"/><use xlink:href="#c" transform="matrix(1,0,0,1,-510,-762.6666666666666) translate(40.85185185185185 53.333333333333336)"/><path d="M255.5-233.44c-10.8 8.32-22.44 12.24-35.98 12.24-17.94 0-35.64-8.08-47.28-23.3-19.96-26-14.97-63.3 11.04-83.26C194.1-336.08 206.8-340 219.4-340c17.82 0 35.52 8.08 47.16 23.3 19.96 26 14.97 63.3-11.05 83.26" stroke="#000" stroke-opacity="0" stroke-width="3" fill="#59b4d9"/><path d="M244.6-270.2c4.3 5.64 12.3 6.67 17.9 2.36.3-.2.53-.4.74-.72 5.82 4.1 9.7 6.77 11.96 8.2.65-1.63 1.2-3.27 1.62-5.02-3.67-2.76-6.68-5.12-10.24-8 1.5-4 1.08-8.6-1.72-12.3-3.88-5.13-10.88-6.46-16.5-3.28-7-6.36-12.92-11.9-19.7-18.56 21.87-11.8 37.28-10.05 37.28-10.05-2.6-3.28-5.5-6.15-8.52-8.72-9.26-1.42-23.48-1.32-39.75 7.4-6.04-6.36-11-11.8-16.6-18.36-2.9.92-5.27 1.85-7.86 3.18 4.1 6.87 9.7 13.64 16.06 20.4-6.25 4.42-11.2 8.72-16.48 14.36-.75.72-1.4 1.44-2.05 2.15-3.34-.7-6.46-.5-9.8.72-5.28-11.7-4.85-21.02-4.1-25.74-2.26 2.37-4.42 5.04-6.35 7.7-1.4 5.75-1.84 14.05 2.37 24-5.07 6.56-5.07 15.28 0 21.74.43.62.86 1.13 1.3 1.54-2.06 7.18-3.14 13.43-3.46 20.82.53.8.53 1.43 1.07 2.15 2.9 3.7 6.46 6.77 9.9 9.53-.42-6.56 0-16.2 4.1-27.07 2.9.32 5.5-.1 8.3-1.32 1.5 1.33 3.02 2.77 4.74 4.1 5.72 4.5 10.9 7.8 17.36 11.08-.32 3.07.43 5.84 2.26 8.3 4 5.23 11.42 6.16 16.6 2.16 1.07-.82 1.93-1.64 2.7-2.88 9.15 2.06 17.23 2.47 23.26 2.47.86 0 5.17-5.84 7.65-9.43-3.66.82-14.55 2.26-29.3-1.95-.33-1.84-.98-3.28-2.16-4.7-3.66-4.94-10.56-5.96-15.62-2.68-6.04-3.28-10.78-6.46-16.17-10.66-1.07-.93-2.04-1.75-3.12-2.67 3.45-5.63 3.77-12.1.75-17.94.66-.7 1.3-1.33 2.06-2.05 5.5-5.1 10.67-9.22 15.52-12.5l-.65-.6.65.6c7.32 6.87 15.2 13.33 22.62 19.18-1.94 4.1-1.6 9.23 1.4 13.12z" stroke="#000" stroke-opacity="0" stroke-width="3" fill="#fff"/><use xlink:href="#d" transform="matrix(1,0,0,1,130,-212.19997429247837) translate(28.388888888888886 21.333333333333336)"/><use xlink:href="#e" transform="matrix(1,0,0,1,130,-212.19997429247837) translate(91.42592592592592 21.333333333333336)"/><path d="M-960.76-279.85c1.1-1.1.9-3.17 0-4.35l-5.8-5.8-25.87-25.24c-1.14-1.1-2.8-1.1-4.14 0-1.14 1.18-1.48 3.25 0 4.35l27.2 26.7c1.1 1.18 1.1 3.25 0 4.35l-27.77 27.66c-1.1 1.1-1.1 3.18 0 4.35 1.14 1.1 3.2.9 4.14 0l25.67-25.6.2-.2 6.37-6.2zM-1079.24-279.85c-1.1-1.1-.9-3.17 0-4.35l5.8-5.8 25.87-25.24c1.14-1.1 2.8-1.1 4.14 0 1.14 1.18 1.48 3.25 0 4.35l-26.62 26.7c-1.1 1.18-1.1 3.25 0 4.35l27.2 27.66c1.1 1.1 1.1 3.18 0 4.35-1.15 1.1-3.2.9-4.15 0l-26.24-25.24-.2-.13-5.8-6.62z" stroke="#000" stroke-opacity="0" stroke-width="2.34" fill="#3999c6"/><path d="M-990.75-336.1h-36.58l-19.66 55.72 24 .1-18.75 55.18 51.74-73.6h-25.14l24.4-37.4z" stroke="#000" stroke-opacity="0" stroke-width="2.34" fill="#fcd116"/><path d="M-1015.15-298.7l24.4-37.4h-19.13l-20.22 46.3 23.95.2-35.6 64.5 51.74-73.6h-25.15z" stroke="#000" stroke-opacity="0" stroke-width="2.34" fill="#ff8c00" fill-opacity=".3"/><path d="M-1026.1-333.73l-5.7 19.16-14.53.93-32.2 31.54 32.3 32.68 12.45 5.2-5.8 14.26 11.85-16.55 30.58-1.36 34.88-34.03-31.86-31.95-11.86-.52 11.52-19.67z" stroke="#000" stroke-opacity="0" stroke-width="0" fill-opacity="0"/><use xlink:href="#f" transform="matrix(1,0,0,1,-1110,-216.0999871462392) translate(22.592592592592595 21.333333333333336)"/><use xlink:href="#g" transform="matrix(1,0,0,1,-1110,-216.0999871462392) translate(26.518518518518505 53.333333333333336)"/><path d="M-455.5 256.4v87.23c0 9 20.38 16.37 45.5 16.37V256.4h-45.5z" stroke="#000" stroke-opacity="0" stroke-width="3" fill="#0072c6"/><path d="M-410.62 360h.64c25.1 0 45.48-7.36 45.48-16.37V256.4h-46.12V360z" stroke="#000" stroke-opacity="0" stroke-width="3" fill="#0072c6"/><path d="M-410.62 360h.64c25.1 0 45.48-7.36 45.48-16.37V256.4h-46.12V360z" stroke="#000" stroke-opacity="0" stroke-width="3" fill="#fff" fill-opacity=".15"/><path d="M-364.5 256.4c0 9.04-20.38 16.4-45.5 16.4s-45.5-7.36-45.5-16.4c0-9.06 20.38-16.4 45.5-16.4s45.5 7.34 45.5 16.4" stroke="#000" stroke-opacity="0" stroke-width="3" fill="#fff"/><path d="M-373.8 255.45c0 5.97-16.22 10.82-36.2 10.82-19.98 0-36.2-4.85-36.2-10.82 0-5.97 16.22-10.82 36.2-10.82 19.98 0 36.2 4.85 36.2 10.82" stroke="#000" stroke-opacity="0" stroke-width="3" fill="#7fba00"/><path d="M-381.4 262.06c4.78-1.83 7.6-4.1 7.6-6.6 0-5.98-16.22-10.83-36.2-10.83-19.98 0-36.2 4.85-36.2 10.83 0 2.5 2.83 4.77 7.6 6.6 6.6-2.56 16.95-4.2 28.6-4.2 11.66 0 22 1.64 28.6 4.2" stroke="#000" stroke-opacity="0" stroke-width="3" fill="#b8d432"/><path d="M-424.44 316.93c0 2.72-1 4.8-3 6.3-1.93 1.48-4.7 2.24-8.14 2.24-3 0-5.43-.54-7.43-1.6v-6.4c2.28 1.96 4.78 2.94 7.56 2.94 1.36 0 2.36-.28 3.07-.8.72-.53 1.08-1.22 1.08-2.12 0-.87-.28-1.6-1-2.25-.7-.65-2.14-1.44-4.28-2.46-4.36-2.06-6.57-4.84-6.57-8.35 0-2.57.92-4.63 2.85-6.2 1.93-1.55 4.43-2.3 7.65-2.3 2.78 0 5.07.35 6.93 1.08v5.97c-1.93-1.34-4.14-2-6.57-2-1.28 0-2.2.26-3 .8-.7.48-1.07 1.24-1.07 2.1 0 .9.3 1.63.93 2.2.57.6 1.72 1.3 3.57 2.14 2.65 1.28 4.58 2.58 5.72 3.88 1.14 1.3 1.7 2.9 1.7 4.85zm30.87-6.44c0 3.32-.8 6.25-2.3 8.7-1.56 2.5-3.7 4.2-6.5 5.22l8.37 7.67h-8.43l-5.93-6.63c-2.57-.1-4.86-.76-6.93-2.03-2-1.23-3.63-2.96-4.7-5.13-1.15-2.16-1.72-4.6-1.72-7.26 0-2.93.64-5.58 1.86-7.9 1.2-2.3 2.86-4.12 5.07-5.34 2.22-1.27 4.73-1.9 7.5-1.9 2.66 0 5.08.63 7.16 1.82 2.07 1.23 3.7 2.93 4.85 5.18 1.16 2.2 1.73 4.74 1.73 7.6zm-6.8.32c0-2.9-.63-5.17-1.92-6.84-1.2-1.7-3-2.53-5.2-2.53-2.22 0-4 .83-5.36 2.53-1.36 1.7-2 3.94-2 6.73 0 2.8.64 5.04 1.93 6.7 1.36 1.67 3.07 2.5 5.28 2.5 2.22 0 4-.8 5.3-2.42 1.35-1.63 2-3.84 2-6.66zm28.66 14.14h-17.1v-28.58h6.44v23.38h10.65z" stroke="#000" stroke-opacity="0" stroke-width="3" fill="#fff"/><use xlink:href="#h" transform="matrix(1,0,0,1,-485.5,369) translate(48.388888888888886 21.333333333333336)"/><use xlink:href="#i" transform="matrix(1,0,0,1,-485.5,369) translate(16.351851851851848 53.333333333333336)"/><path d="M-477.96-220c-1.2 0-2.04.8-2.04 2v24c0 1.2.84 2 2.04 2h12c1.2 0 1.92-.8 1.92-2v-10h88.08v10c0 1.2.72 2 2.4 2h11.52c1.2 0 2.04-.8 2.04-2v-24c0-1.2-.84-2-2.04-2h-115.92zM-362.04-100c1.2 0 2.04-.8 2.04-2v-23.6c0-1.2-.84-2-2.04-2h-11.52c-1.2 0-2.04.8-2.04 2v9.6h-88.44v-10c0-1.2-.72-2-2.4-2h-11.52c-1.2 0-2.04.8-2.04 2.4v23.6c0 1.2.84 2 2.04 2h115.92z" stroke="#000" stroke-opacity="0" fill="#0072c6"/><path d="M-408.37-157.36c-3.06 3.13-7.2 4.8-11.63 4.8-4.42 0-8.57-1.67-11.63-4.8L-454-179.7v45.4h68v-45.4l-22.37 22.34z" stroke="#000" stroke-opacity="0" fill="#59b4d9"/><path d="M-420-155.85c3.54 0 6.8-1.38 9.3-3.85l24.7-24.7v-1.3h-68v1.3l24.68 24.7c2.52 2.47 5.78 3.85 9.32 3.85z" stroke="#000" stroke-opacity="0" fill="#59b4d9"/><path d="M-477.52-217.25v114.95h115.3v-114.95zm.12.12h115.07v114.72H-477.4z" stroke="#000" stroke-opacity="0" stroke-width="0" fill-opacity="0"/><use xlink:href="#j" transform="matrix(1,0,0,1,-510,-91) translate(13.777777777777771 21.333333333333336)"/><use xlink:href="#k" transform="matrix(1,0,0,1,-510,-91) translate(115.99999999999999 21.333333333333336)"/><path d="M-410.1 20c-16.42 0-30.07 13.62-30.07 30 0 13.63 8.72 24.6 20.2 28.35l-6.55 7.1 8.23 7.08-8.22 7.64 8.23 7.08-8.22 8.2 16.4 15.28 13.66-14.18V76.7c9.86-5.43 16.4-15.3 16.4-27.25 0-16.38-13.64-29.45-30.05-29.45zm5.46 21.8s-1.08 0-1.62 1.12c0 0-1.14 1.1-1.7 1.1h-4.86l-1.14-1.1-1.08-1.66V36.4l1.08-1.12 1.7-1.1h4.86l1.14 1.1 1.08 1.66v4.87z" stroke="#000" stroke-opacity="0" stroke-width="6.25" fill="#fcd116"/><path d="M-407.38 80v39.27l5.47-5.45v-34.9c-1.9.55-3.53.88-5.48 1.08z" stroke="#000" stroke-opacity="0" stroke-width="6.25" fill="#ff8c00" fill-opacity=".4"/><path d="M-410.1 69.1c9.67.1 17.74-6.82 19.12-16.37h-38.26c1.38 9.55 9.45 16.46 19.13 16.36z" stroke="#000" stroke-opacity="0" stroke-width="6.25" fill="#fff" fill-opacity=".4"/><path d="M-377.86 35.27c1.6 3.25 2.18 5.45 2.76 9.32 10.9 10.26 16.53 23.14 16.4 38.1 0 28.4-23.52 51.85-51.98 51.85-28.35 0-51.3-23.46-51.3-51.84-.13-14.96 5.38-27.84 16.3-38.1l3.32-9.33c-16.3 11-25.14 27.86-25.14 47.44 0 31.64 25.7 57.3 57.4 57.3 31.67 0 57.38-25.66 57.38-57.3 0-19.57-9.87-37.06-25.14-47.43z" stroke="#000" stroke-opacity="0" stroke-width="6.25" fill="#7fba00"/><path d="M-409.88 25.43c31.67 0 57.38 25.6 57.38 57.17 0 31.56-25.7 57.17-57.38 57.17-31.68 0-57.4-25.6-57.4-57.17 0-31.56 25.72-57.17 57.4-57.17z" stroke="#000" stroke-opacity="0" stroke-width=".01" fill-opacity="0"/><use xlink:href="#l" transform="matrix(1,0,0,1,-497.5,149) translate(27.6111111111111 21.333333333333336)"/><use xlink:href="#m" transform="matrix(1,0,0,1,-497.5,149) translate(83.83333333333333 21.333333333333336)"/><path d="M-472.5-361.54c0 2.36 1.92 4.54 4.32 4.54h111.12c2.4 0 4.56-1.93 4.56-4.54v-79.5h-120v79.5z" stroke="#000" stroke-opacity="0" fill="#59b4d9"/><path d="M-357.06-460h-111.12c-2.4 0-4.32 2.16-4.32 4.57v14.4h120v-14.4c0-2.4-1.92-3.85-4.56-3.85M-462.9-408.62h100.8v16.8h-100.8v-16.8z" stroke="#000" stroke-opacity="0" fill="#0072c6"/><path d="M-462.9-433.83h100.8v16.8h-100.8v-16.8z" stroke="#000" stroke-opacity="0" fill="#fff"/><path d="M-462.9-383.4h100.8v16.8h-100.8v-16.8z" stroke="#000" stroke-opacity="0" fill="#0072c6"/><use xlink:href="#n" transform="matrix(1,0,0,1,-502.5,-348) translate(7.259259259259238 21.333333333333336)"/><use xlink:href="#o" transform="matrix(1,0,0,1,-502.5,-348) translate(73.7037037037037 21.333333333333336)"/><path d="M-470-634.3h120v67.3c0 2.22-1.8 4-3.96 4h-112.08c-2.16 0-3.96-1.78-3.96-4v-67.3z" stroke="#000" stroke-opacity="0" fill="url(#p)"/><path d="M-457.24-627.2h95.5c2.68 0 4.02 1.3 4.02 3.98v49.05c0 2.68-1.34 4-4.03 4h-95.5c-2.68 0-4.03-1.32-4.03-4v-49.05c0-2.68 1.35-4 4.04-4z" stroke="#000" stroke-opacity="0" fill="#5ea0ef" fill-opacity=".6"/><path d="M-466.04-660h112.08c2.16 0 3.96 1.8 3.96 4v21.7h-120v-21.66c0-2.24 1.8-4.04 3.96-4.04z" stroke="#000" stroke-opacity="0" fill="#005ba1"/><path d="M-422.6-583.2l-2.1 2.16c-.38.37-1.02.4-1.4.02v-.02l-15.5-15.67c-.75-.76-.75-2 0-2.76l2.17-2.15 16.82 17.03c.37.38.37 1 0 1.38zm24.37 0l2.1 2.16c.06 0 .06 0 .06.02.38.37.95.35 1.33-.02l15.5-15.67c.75-.76.75-2 0-2.76l-2.17-2.15-16.83 17.03c-.38.38-.38 1 0 1.38z" stroke="#000" stroke-opacity="0" fill="#fff" fill-opacity=".8"/><path d="M-424.45-615.28l2.16 2.15c.4.38.4 1 0 1.37l-17.13 17.24-2.16-2.17c-.75-.75-.75-1.97 0-2.73l15.82-15.87c.38-.38.95-.36 1.33.02zm28.06 0l-2.15 2.15c-.38.38-.38 1 0 1.37l17.2 17.24 2.1-2.15c.76-.78.76-2 0-2.76l-15.8-15.85v-.02c-.4-.36-.96-.36-1.34.02zM-415.6-575.56l-3.4-1.1c-.37-.1-.56-.52-.44-.9l13.9-43.7c.12-.38.47-.62.83-.48h.05l3.4 1.12c.36.1.56.46.47.78l-.02.05-13.93 43.82c-.1.37-.48.56-.82.42h-.04zM-448.9-646.04c0 2.8-2.28 5.1-5.05 5.1-2.8 0-5.08-2.3-5.08-5.1s2.27-5.1 5.08-5.1c2.77 0 5.04 2.3 5.04 5.1zm10.87-5.1c-2.77 0-5.04 2.3-5.04 5.1s2.27 5.1 5.04 5.1c2.8 0 5.08-2.3 5.08-5.1s-2.27-5.1-5.08-5.1zm15.92 0c-2.8 0-5.05 2.3-5.05 5.1s2.26 5.1 5.04 5.1c2.8 0 5.07-2.3 5.07-5.1 0-2.82-2.27-5.1-5.08-5.1z" stroke="#000" stroke-opacity="0" fill="#fff"/><use xlink:href="#q" transform="matrix(1,0,0,1,-500,-554) translate(27.259259259259245 21.333333333333336)"/><use xlink:href="#r" transform="matrix(1,0,0,1,-500,-554) translate(102.51851851851853 21.333333333333336)"/><use xlink:href="#s" transform="matrix(1,0,0,1,-500,-554) translate(32.666666666666664 53.333333333333336)"/><use xlink:href="#t" transform="matrix(1,0,0,1,-500,-554) translate(95.7037037037037 53.333333333333336)"/><path d="M-456.42-835.82l-28.15.6-28.3 1.77-27.9 2.93-27.4 4.04-26.84 5.12-26.22 6.15-25.52 7.1-24.77 8.06-24 8.92-23.13 9.72-22.27 10.48-21.37 11.17-20.45 11.8-19.53 12.4-18.6 12.92-17.67 13.42-16.76 13.85-15.85 14.27-14.96 14.65-14.08 15-13.23 15.33-12.4 15.64-11.6 15.95-10.78 16.22-10 16.52-9.25 16.8-8.5 17.12-7.74 17.4-7.02 17.73-6.27 18.04-5.56 18.4-4.82 18.78-4.08 19.18-3.3 19.6-2.55 20.1-1.72 20.58-.9 21.13-.1 10.3" stroke="#3a414a" stroke-linejoin="round" fill="none"/><path d="M-455.9-835.98l-.04.62h-.48l-.02-.94h.6zM-1019.52-336.6v.5h-.96v-.52z" stroke="#3a414a" stroke-width=".05" fill="#3a414a"/><path d="M-358.65-835.82l29.92.62 30.1 1.9 29.68 3.12 29.14 4.3 28.48 5.43 27.75 6.5 26.93 7.53 26.04 8.45 25.1 9.33 24.07 10.12 23.06 10.85 22 11.5 20.94 12.1 19.88 12.6 18.84 13.1 17.8 13.5 16.78 13.9 15.8 14.23 14.87 14.54 13.93 14.84 13.04 15.1 12.18 15.37 11.34 15.62 10.54 15.85 9.75 16.1 9 16.37 8.25 16.63 7.52 16.9 6.8 17.2 6.1 17.5 5.4 17.87 4.68 18.23 3.96 18.64 3.23 19.1 2.47 19.55 1.7 20.1.85 20.68.1 10.07" stroke="#3a414a" stroke-linejoin="round" fill="none"/><path d="M-358.63-836.3l-.02.95-.97-.02.92-.93zM219.88-339.98l-.48-.02-.47.02v-.53l.94-.02z" stroke="#3a414a" stroke-width=".05" fill="#3a414a"/><path d="M219.4-220.7l-.47 21.93-1.37 21.84-2.24 21.3-3.07 20.78-3.87 20.32-4.67 19.9-5.43 19.47-6.2 19.1-6.98 18.76-7.75 18.4-8.5 18.1-9.3 17.76-10.08 17.46-10.88 17.14-11.7 16.83-12.54 16.5-13.4 16.18-14.24 15.84-15.15 15.46-16.05 15.07-16.96 14.64-17.9 14.17-18.82 13.67-19.77 13.13-20.7 12.54-21.63 11.9-22.55 11.2-23.43 10.42-24.3 9.6-25.1 8.75-25.87 7.8-26.6 6.84-27.27 5.8-27.86 4.7-28.4 3.6-28.87 2.42-29.26 1.23-14.24.14" stroke="#3a414a" stroke-linejoin="round" fill="none"/><path d="M219.52-221.2l.36-.02-.02.55-.95-.02.03-.53zM-363.98 300.47h-.52v-.95h.5z" stroke="#3a414a" stroke-width=".05" fill="#3a414a"/><path d="M-456 300l-26-.55-26.05-1.64-25.6-2.68-25.12-3.7-24.65-4.7-24.15-5.68-23.64-6.6-23.13-7.5-22.56-8.4-22-9.24-21.4-10.08-20.8-10.87-20.17-11.65-19.52-12.38-18.85-13.1-18.17-13.8-17.46-14.45-16.76-15.1-16.02-15.68-15.28-16.28-14.52-16.82-13.76-17.36-13-17.88-12.2-18.36-11.4-18.85-10.62-19.3-9.8-19.77-9-20.2-8.18-20.66-7.34-21.08-6.5-21.5-5.63-21.97-4.75-22.4-3.86-22.85-2.96-23.32-2-23.8-1-24.3-.13-11.85" stroke="#3a414a" stroke-linejoin="round" fill="none"/><path d="M-455.5 299.52v.96l-.53-.02.02-.95zM-1019.52-246.34h-.95v-.5l.95-.03z" stroke="#3a414a" stroke-width=".05" fill="#3a414a"/><path d="M159.5-280.6l-10.63.23-10.54.66-10.05 1.05-9.64 1.42-9.28 1.77-9 2.1-8.77 2.46-8.6 2.8-8.45 3.13-8.37 3.52-8.33 3.93-8.35 4.36-8.42 4.86-8.54 5.43-8.75 6.08-9.06 6.88-9.46 7.83-10.04 9.06-10.88 10.66-12.14 12.95-14.3 16.6-19.03 24.08-89.43 121-14.3 16.58-12.14 12.95-10.88 10.66-10.04 9.05-9.45 7.82-9.04 6.87-8.74 6.07-8.55 5.43-8.4 4.86-8.36 4.36-8.33 3.93-8.36 3.52-8.45 3.14-8.6 2.8-8.76 2.45-9 2.1-9.3 1.78-9.63 1.42-10.04 1.06-10.54.67-10.63.22" stroke="#3a414a" stroke-linejoin="round" fill="none"/><path d="M160-280.88l.02.75-.53.02-.03-.96h.54zM-352.84 80.47h-2.77v-.94h2.7zm.74 0h-.5l-.03-.94h.53z" stroke="#3a414a" stroke-width=".05" fill="#3a414a"/><path d="M-959.96-280.6l9.8.2 9.78.63 9.35.98 8.98 1.34 8.66 1.65 8.42 1.96 8.2 2.3 8.04 2.6 7.93 2.95 7.84 3.3 7.82 3.7 7.84 4.1 7.9 4.56 8.03 5.1 8.2 5.7 8.47 6.43 8.83 7.3 9.33 8.4 10.04 9.84 11.06 11.8 12.7 14.74 15.82 20 26.2 36.3 59.77 85.14 15.8 20 12.72 14.74 11.06 11.8 10.03 9.84 9.34 8.4 8.83 7.3 8.46 6.45 8.2 5.7 8.02 5.1 7.9 4.56 7.84 4.1 7.83 3.7 7.84 3.3 7.92 2.94 8.04 2.6 8.2 2.3 8.4 1.97 8.68 1.66 8.97 1.33 9.35.97 9.8.62 9.8.2" stroke="#3a414a" stroke-linejoin="round" fill="none"/><path d="M-959.94-281.06l-.02.95-.7-.03.37-.94zM-464.4 79.53v.94h-2.77l.04-.94zm-2.97 0l-.07.94h-.48v-.94z" stroke="#3a414a" stroke-width=".05" fill="#3a414a"/><path d="M159.5-280.6l-11.47-.25-11.3-.7-10.72-1.13-10.23-1.5-9.83-1.9-9.5-2.22-9.24-2.57-9.02-2.94-8.86-3.3-8.77-3.7-8.7-4.1-8.75-4.56-8.8-5.08-8.96-5.7-9.2-6.4-9.56-7.25-10.08-8.33-10.84-9.77-12-11.77-14-14.92-18.24-21.2-91.08-113.5-14-14.93-12-11.77-10.84-9.77-10.07-8.34-9.56-7.27-9.2-6.4-8.96-5.7-8.8-5.07-8.73-4.57-8.72-4.1-8.76-3.7-8.88-3.3-9.02-2.93-9.23-2.57-9.5-2.23-9.84-1.88-10.24-1.52-10.73-1.12-11.3-.7-11.47-.25" stroke="#3a414a" stroke-linejoin="round" fill="none"/><path d="M160-281.07v.2l.02.75-.55-.02.03-.95zM-349.5-611.98v.96h-.5v-.96z" stroke="#3a414a" stroke-width=".05" fill="#3a414a"/><path d="M-959.96-280.6l10.58-.23 10.48-.66 9.97-1.04 9.54-1.4 9.2-1.75 8.87-2.08 8.64-2.4 8.46-2.75 8.32-3.1 8.22-3.45 8.18-3.85 8.2-4.3 8.26-4.76 8.4-5.33 8.6-5.98 8.94-6.8 9.36-7.74 10-9.02 10.94-10.72 12.45-13.27 15.25-17.7 23.72-30.1 64.05-84.1 15.25-17.7 12.45-13.27 10.94-10.72 10-9.02 9.35-7.75 8.93-6.78 8.6-6 8.4-5.33 8.27-4.78 8.2-4.3 8.18-3.84 8.23-3.46 8.3-3.1 8.46-2.73 8.64-2.42 8.88-2.1 9.18-1.74 9.54-1.4 9.97-1.05 10.48-.67 10.6-.22" stroke="#3a414a" stroke-linejoin="round" fill="none"/><path d="M-959.94-280.14l-.7.02.36-.96h.32zM-470-611.02h-.5v-.96h.5z" stroke="#3a414a" stroke-width=".05" fill="#3a414a"/><path d="M159.5-280.6l-31.12-.64-27.12-1.7-23.83-2.5L56-288.58l-19.72-3.75-18.63-4.37-18.15-5.06-18.45-6-20.14-7.5-26.36-11.15-87.95-39.48-20.15-7.52-18.45-6-18.15-5.06-18.63-4.37-19.72-3.76-21.43-3.17-23.83-2.5-27.12-1.7-31.12-.62" stroke="#3a414a" stroke-linejoin="round" fill="none"/><path d="M160-281.07v.2l.02.75-.54-.02.02-.94zM-352-401.07v.94h-.5v-.94z" stroke="#3a414a" stroke-width=".05" fill="#3a414a"/><path d="M-959.96-280.6l28.27-.6 24.85-1.54 21.93-2.3 19.77-2.9 18.22-3.48 17.17-4.03 16.63-4.64 16.68-5.4 17.66-6.6 20.83-8.76 103.8-48.25 17.65-6.6 16.68-5.4 16.63-4.65 17.16-4.03 18.22-3.47 19.77-2.92 21.93-2.3 24.84-1.54 28.28-.6" stroke="#3a414a" stroke-linejoin="round" fill="none"/><path d="M-959.94-280.14l-.7.02.36-.96h.32zM-472.5-400.13h-.5v-.94h.5z" stroke="#3a414a" stroke-width=".05" fill="#3a414a"/><path d="M159.5-280.6l-32.13.67-27.93 1.74-24.5 2.57-22.04 3.25-20.27 3.86-19.16 4.5-18.7 5.22-19.1 6.2-21.1 7.86-29 12.27-82.36 36.6-21.07 7.86-19.1 6.2-18.7 5.23-19.17 4.5-20.27 3.85-22.03 3.25-24.5 2.56-27.95 1.74-32.13.65" stroke="#3a414a" stroke-linejoin="round" fill="none"/><path d="M160-280.88l.02.75h-.53l-.03-.93h.54zM-361.7-159.53h-.5v-.94h.5z" stroke="#3a414a" stroke-width=".05" fill="#3a414a"/><path d="M-959.96-280.6l27.57.57 24.3 1.52 21.47 2.24 19.38 2.86 17.86 3.4 16.84 3.94 16.27 4.55 16.27 5.27 17.1 6.36 19.73 8.32 34.23 16.28 54.18 26.22 19.75 8.32 17.08 6.36 16.27 5.28 16.27 4.56 16.83 3.94 17.86 3.4 19.38 2.86 21.47 2.25 24.3 1.53 27.58.56" stroke="#3a414a" stroke-linejoin="round" fill="none"/><path d="M-959.94-281.06l-.02.94h-.7l.37-.95zM-477.52-160.47v.94h-.5v-.94z" stroke="#3a414a" stroke-width=".05" fill="#3a414a"/><defs><path d="M175 0L67-191c6 58 2 128 3 191H24v-248h59L193-55c-6-58-2-129-3-193h46V0h-61" id="u"/><path d="M110-194c64 0 96 36 96 99 0 64-35 99-97 99-61 0-95-36-95-99 0-62 34-99 96-99zm-1 164c35 0 45-28 45-65 0-40-10-65-43-65-34 0-45 26-45 65 0 36 10 65 43 65" id="v"/><g id="a"><use transform="matrix(0.07407407407407408,0,0,0.07407407407407408,0,0)" xlink:href="#u"/><use transform="matrix(0.07407407407407408,0,0,0.07407407407407408,19.185185185185187,0)" xlink:href="#v"/></g><path d="M169-182c-1-43-94-46-97-3 18 66 151 10 154 114 3 95-165 93-204 36-6-8-10-19-12-30l50-8c3 46 112 56 116 5-17-69-150-10-154-114-4-87 153-88 188-35 5 8 8 18 10 28" id="w"/><path d="M140-251c80 0 125 45 125 126 0 70-33 111-92 124 6 28 34 38 68 31l-1 36C177 83 129 55 120 2 51-6 15-50 15-125c0-81 44-126 125-126zm-1 214c52 0 73-35 73-88 0-50-21-86-72-86-52 0-73 35-73 86s22 88 72 88" id="x"/><path d="M24 0v-248h52v208h133V0H24" id="y"/><g id="b"><use transform="matrix(0.07407407407407408,0,0,0.07407407407407408,0,0)" xlink:href="#w"/><use transform="matrix(0.07407407407407408,0,0,0.07407407407407408,17.77777777777778,0)" xlink:href="#x"/><use transform="matrix(0.07407407407407408,0,0,0.07407407407407408,38.51851851851851,0)" xlink:href="#y"/></g><path d="M24-248c120-7 223 5 221 122C244-46 201 0 124 0H24v-248zM76-40c74 7 117-18 117-86 0-67-45-88-117-82v168" id="z"/><path d="M133-34C117-15 103 5 69 4 32 3 11-16 11-54c-1-60 55-63 116-61 1-26-3-47-28-47-18 1-26 9-28 27l-52-2c7-38 36-58 82-57s74 22 75 68l1 82c-1 14 12 18 25 15v27c-30 8-71 5-69-32zm-48 3c29 0 43-24 42-57-32 0-66-3-65 30 0 17 8 27 23 27" id="A"/><path d="M115-3C79 11 28 4 28-45v-112H4v-33h27l15-45h31v45h36v33H77v99c-1 23 16 31 38 25v30" id="B"/><path d="M135-194c52 0 70 43 70 98 0 56-19 99-73 100-30 1-46-15-58-35L72 0H24l1-261h50v104c11-23 29-37 60-37zM114-30c31 0 40-27 40-66 0-37-7-63-39-63s-41 28-41 65c0 36 8 64 40 64" id="C"/><path d="M137-138c1-29-70-34-71-4 15 46 118 7 119 86 1 83-164 76-172 9l43-7c4 19 20 25 44 25 33 8 57-30 24-41C81-84 22-81 20-136c-2-80 154-74 161-7" id="D"/><path d="M185-48c-13 30-37 53-82 52C43 2 14-33 14-96s30-98 90-98c62 0 83 45 84 108H66c0 31 8 55 39 56 18 0 30-7 34-22zm-45-69c5-46-57-63-70-21-2 6-4 13-4 21h74" id="E"/><g id="c"><use transform="matrix(0.07407407407407408,0,0,0.07407407407407408,0,0)" xlink:href="#z"/><use transform="matrix(0.07407407407407408,0,0,0.07407407407407408,19.185185185185187,0)" xlink:href="#A"/><use transform="matrix(0.07407407407407408,0,0,0.07407407407407408,34,0)" xlink:href="#B"/><use transform="matrix(0.07407407407407408,0,0,0.07407407407407408,42.814814814814824,0)" xlink:href="#A"/><use transform="matrix(0.07407407407407408,0,0,0.07407407407407408,57.62962962962964,0)" xlink:href="#C"/><use transform="matrix(0.07407407407407408,0,0,0.07407407407407408,73.85185185185186,0)" xlink:href="#A"/><use transform="matrix(0.07407407407407408,0,0,0.07407407407407408,88.66666666666667,0)" xlink:href="#D"/><use transform="matrix(0.07407407407407408,0,0,0.07407407407407408,103.4814814814815,0)" xlink:href="#E"/></g><path d="M275 0h-61l-44-196L126 0H64L0-248h53L97-49l45-199h58l43 199 44-199h52" id="F"/><g id="d"><use transform="matrix(0.07407407407407408,0,0,0.07407407407407408,0,0)" xlink:href="#F"/><use transform="matrix(0.07407407407407408,0,0,0.07407407407407408,24.592592592592595,0)" xlink:href="#E"/><use transform="matrix(0.07407407407407408,0,0,0.07407407407407408,39.40740740740741,0)" xlink:href="#C"/></g><path d="M199 0l-22-63H83L61 0H9l90-248h61L250 0h-51zm-33-102l-36-108c-10 38-24 72-36 108h72" id="G"/><path d="M24-248c93 1 206-16 204 79-1 75-69 88-152 82V0H24v-248zm52 121c47 0 100 7 100-41 0-47-54-39-100-39v80" id="H"/><path d="M24 0v-248h52V0H24" id="I"/><g id="e"><use transform="matrix(0.07407407407407408,0,0,0.07407407407407408,0,0)" xlink:href="#G"/><use transform="matrix(0.07407407407407408,0,0,0.07407407407407408,19.185185185185187,0)" xlink:href="#H"/><use transform="matrix(0.07407407407407408,0,0,0.07407407407407408,36.96296296296296,0)" xlink:href="#I"/><use transform="matrix(0.07407407407407408,0,0,0.07407407407407408,44.37037037037037,0)" xlink:href="#D"/></g><path d="M135-150c-39-12-60 13-60 57V0H25l-1-190h47c2 13-1 29 3 40 6-28 27-53 61-41v41" id="J"/><path d="M128 0H69L1-190h53L99-40l48-150h52" id="K"/><path d="M25 0v-261h50V0H25" id="L"/><g id="f"><use transform="matrix(0.07407407407407408,0,0,0.07407407407407408,0,0)" xlink:href="#w"/><use transform="matrix(0.07407407407407408,0,0,0.07407407407407408,17.77777777777778,0)" xlink:href="#E"/><use transform="matrix(0.07407407407407408,0,0,0.07407407407407408,32.592592592592595,0)" xlink:href="#J"/><use transform="matrix(0.07407407407407408,0,0,0.07407407407407408,42.96296296296297,0)" xlink:href="#K"/><use transform="matrix(0.07407407407407408,0,0,0.07407407407407408,57.777777777777786,0)" xlink:href="#E"/><use transform="matrix(0.07407407407407408,0,0,0.07407407407407408,72.59259259259261,0)" xlink:href="#J"/><use transform="matrix(0.07407407407407408,0,0,0.07407407407407408,82.96296296296298,0)" xlink:href="#L"/><use transform="matrix(0.07407407407407408,0,0,0.07407407407407408,90.37037037037038,0)" xlink:href="#E"/><use transform="matrix(0.07407407407407408,0,0,0.07407407407407408,105.18518518518518,0)" xlink:href="#D"/><use transform="matrix(0.07407407407407408,0,0,0.07407407407407408,120,0)" xlink:href="#D"/></g><path d="M76-208v77h127v40H76V0H24v-248h183v40H76" id="M"/><path d="M85 4C-2 5 27-109 22-190h50c7 57-23 150 33 157 60-5 35-97 40-157h50l1 190h-47c-2-12 1-28-3-38-12 25-28 42-61 42" id="N"/><path d="M135-194c87-1 58 113 63 194h-50c-7-57 23-157-34-157-59 0-34 97-39 157H25l-1-190h47c2 12-1 28 3 38 12-26 28-41 61-42" id="O"/><path d="M190-63c-7 42-38 67-86 67-59 0-84-38-90-98-12-110 154-137 174-36l-49 2c-2-19-15-32-35-32-30 0-35 28-38 64-6 74 65 87 74 30" id="P"/><path d="M25-224v-37h50v37H25zM25 0v-190h50V0H25" id="Q"/><g id="g"><use transform="matrix(0.07407407407407408,0,0,0.07407407407407408,0,0)" xlink:href="#M"/><use transform="matrix(0.07407407407407408,0,0,0.07407407407407408,16.222222222222225,0)" xlink:href="#N"/><use transform="matrix(0.07407407407407408,0,0,0.07407407407407408,32.44444444444445,0)" xlink:href="#O"/><use transform="matrix(0.07407407407407408,0,0,0.07407407407407408,48.66666666666667,0)" xlink:href="#P"/><use transform="matrix(0.07407407407407408,0,0,0.07407407407407408,63.48148148148149,0)" xlink:href="#B"/><use transform="matrix(0.07407407407407408,0,0,0.07407407407407408,72.2962962962963,0)" xlink:href="#Q"/><use transform="matrix(0.07407407407407408,0,0,0.07407407407407408,79.70370370370371,0)" xlink:href="#v"/><use transform="matrix(0.07407407407407408,0,0,0.07407407407407408,95.92592592592594,0)" xlink:href="#O"/><use transform="matrix(0.07407407407407408,0,0,0.07407407407407408,112.14814814814817,0)" xlink:href="#D"/></g><g id="h"><use transform="matrix(0.07407407407407408,0,0,0.07407407407407408,0,0)" xlink:href="#w"/><use transform="matrix(0.07407407407407408,0,0,0.07407407407407408,17.77777777777778,0)" xlink:href="#x"/><use transform="matrix(0.07407407407407408,0,0,0.07407407407407408,38.51851851851851,0)" xlink:href="#y"/></g><g id="i"><use transform="matrix(0.07407407407407408,0,0,0.07407407407407408,0,0)" xlink:href="#z"/><use transform="matrix(0.07407407407407408,0,0,0.07407407407407408,19.185185185185187,0)" xlink:href="#A"/><use transform="matrix(0.07407407407407408,0,0,0.07407407407407408,34,0)" xlink:href="#B"/><use transform="matrix(0.07407407407407408,0,0,0.07407407407407408,42.814814814814824,0)" xlink:href="#A"/><use transform="matrix(0.07407407407407408,0,0,0.07407407407407408,57.62962962962964,0)" xlink:href="#C"/><use transform="matrix(0.07407407407407408,0,0,0.07407407407407408,73.85185185185186,0)" xlink:href="#A"/><use transform="matrix(0.07407407407407408,0,0,0.07407407407407408,88.66666666666667,0)" xlink:href="#D"/><use transform="matrix(0.07407407407407408,0,0,0.07407407407407408,103.4814814814815,0)" xlink:href="#E"/></g><g id="j"><use transform="matrix(0.07407407407407408,0,0,0.07407407407407408,0,0)" xlink:href="#w"/><use transform="matrix(0.07407407407407408,0,0,0.07407407407407408,17.77777777777778,0)" xlink:href="#E"/><use transform="matrix(0.07407407407407408,0,0,0.07407407407407408,32.592592592592595,0)" xlink:href="#J"/><use transform="matrix(0.07407407407407408,0,0,0.07407407407407408,42.96296296296297,0)" xlink:href="#K"/><use transform="matrix(0.07407407407407408,0,0,0.07407407407407408,57.777777777777786,0)" xlink:href="#Q"/><use transform="matrix(0.07407407407407408,0,0,0.07407407407407408,65.18518518518519,0)" xlink:href="#P"/><use transform="matrix(0.07407407407407408,0,0,0.07407407407407408,80,0)" xlink:href="#E"/></g><path d="M182-130c37 4 62 22 62 59C244 23 116-4 24 0v-248c84 5 203-23 205 63 0 31-19 50-47 55zM76-148c40-3 101 13 101-30 0-44-60-28-101-31v61zm0 110c48-3 116 14 116-37 0-48-69-32-116-35v72" id="R"/><g id="k"><use transform="matrix(0.07407407407407408,0,0,0.07407407407407408,0,0)" xlink:href="#R"/><use transform="matrix(0.07407407407407408,0,0,0.07407407407407408,19.185185185185187,0)" xlink:href="#N"/><use transform="matrix(0.07407407407407408,0,0,0.07407407407407408,35.40740740740741,0)" xlink:href="#D"/></g><path d="M195 0l-88-114-31 24V0H24v-248h52v113l112-113h60L142-143 257 0h-62" id="S"/><path d="M123 10C108 53 80 86 19 72V37c35 8 53-11 59-39L3-190h52l48 148c12-52 28-100 44-148h51" id="T"/><g id="l"><use transform="matrix(0.07407407407407408,0,0,0.07407407407407408,0,0)" xlink:href="#S"/><use transform="matrix(0.07407407407407408,0,0,0.07407407407407408,19.185185185185187,0)" xlink:href="#E"/><use transform="matrix(0.07407407407407408,0,0,0.07407407407407408,34,0)" xlink:href="#T"/></g><path d="M147 0H94L2-248h55l64 206c17-72 42-137 63-206h54" id="U"/><g id="m"><use transform="matrix(0.07407407407407408,0,0,0.07407407407407408,0,0)" xlink:href="#U"/><use transform="matrix(0.07407407407407408,0,0,0.07407407407407408,16.296296296296298,0)" xlink:href="#A"/><use transform="matrix(0.07407407407407408,0,0,0.07407407407407408,31.111111111111114,0)" xlink:href="#N"/><use transform="matrix(0.07407407407407408,0,0,0.07407407407407408,47.33333333333334,0)" xlink:href="#L"/><use transform="matrix(0.07407407407407408,0,0,0.07407407407407408,54.74074074074075,0)" xlink:href="#B"/></g><g id="n"><use transform="matrix(0.07407407407407408,0,0,0.07407407407407408,0,0)" xlink:href="#R"/><use transform="matrix(0.07407407407407408,0,0,0.07407407407407408,19.185185185185187,0)" xlink:href="#L"/><use transform="matrix(0.07407407407407408,0,0,0.07407407407407408,26.592592592592595,0)" xlink:href="#v"/><use transform="matrix(0.07407407407407408,0,0,0.07407407407407408,42.814814814814824,0)" xlink:href="#C"/></g><path d="M195-6C206 82 75 100 31 46c-4-6-6-13-8-21l49-6c3 16 16 24 34 25 40 0 42-37 40-79-11 22-30 35-61 35-53 0-70-43-70-97 0-56 18-96 73-97 30 0 46 14 59 34l2-30h47zm-90-29c32 0 41-27 41-63 0-35-9-62-40-62-32 0-39 29-40 63 0 36 9 62 39 62" id="V"/><g id="o"><use transform="matrix(0.07407407407407408,0,0,0.07407407407407408,0,0)" xlink:href="#w"/><use transform="matrix(0.07407407407407408,0,0,0.07407407407407408,17.77777777777778,0)" xlink:href="#B"/><use transform="matrix(0.07407407407407408,0,0,0.07407407407407408,26.592592592592595,0)" xlink:href="#v"/><use transform="matrix(0.07407407407407408,0,0,0.07407407407407408,42.814814814814824,0)" xlink:href="#J"/><use transform="matrix(0.07407407407407408,0,0,0.07407407407407408,53.1851851851852,0)" xlink:href="#A"/><use transform="matrix(0.07407407407407408,0,0,0.07407407407407408,68.00000000000001,0)" xlink:href="#V"/><use transform="matrix(0.07407407407407408,0,0,0.07407407407407408,84.22222222222226,0)" xlink:href="#E"/></g><linearGradient gradientUnits="userSpaceOnUse" id="p" x1="-410" y1="-562.99" x2="-410" y2="-660.01"><stop offset="0%" stop-color="#005ba1"/><stop offset="77.5%" stop-color="#0078d4"/></linearGradient><g id="q"><use transform="matrix(0.07407407407407408,0,0,0.07407407407407408,0,0)" xlink:href="#M"/><use transform="matrix(0.07407407407407408,0,0,0.07407407407407408,16.222222222222225,0)" xlink:href="#J"/><use transform="matrix(0.07407407407407408,0,0,0.07407407407407408,26.592592592592595,0)" xlink:href="#v"/><use transform="matrix(0.07407407407407408,0,0,0.07407407407407408,42.814814814814824,0)" xlink:href="#O"/><use transform="matrix(0.07407407407407408,0,0,0.07407407407407408,59.03703703703705,0)" xlink:href="#B"/></g><path d="M24 0v-248h195v40H76v63h132v40H76v65h150V0H24" id="W"/><path d="M88-194c31-1 46 15 58 34l-1-101h50l1 261h-48c-2-10 0-23-3-31C134-8 116 4 84 4 32 4 16-41 15-95c0-56 19-97 73-99zm17 164c33 0 40-30 41-66 1-37-9-64-41-64s-38 30-39 65c0 43 13 65 39 65" id="X"/><g id="r"><use transform="matrix(0.07407407407407408,0,0,0.07407407407407408,0,0)" xlink:href="#W"/><use transform="matrix(0.07407407407407408,0,0,0.07407407407407408,17.77777777777778,0)" xlink:href="#O"/><use transform="matrix(0.07407407407407408,0,0,0.07407407407407408,34,0)" xlink:href="#X"/></g><g id="s"><use transform="matrix(0.07407407407407408,0,0,0.07407407407407408,0,0)" xlink:href="#F"/><use transform="matrix(0.07407407407407408,0,0,0.07407407407407408,24.592592592592595,0)" xlink:href="#E"/><use transform="matrix(0.07407407407407408,0,0,0.07407407407407408,39.40740740740741,0)" xlink:href="#C"/></g><path d="M135-194c53 0 70 44 70 98 0 56-19 98-73 100-31 1-45-17-59-34 3 33 2 69 2 105H25l-1-265h48c2 10 0 23 3 31 11-24 29-35 60-35zM114-30c33 0 39-31 40-66 0-38-9-64-40-64-56 0-55 130 0 130" id="Y"/><g id="t"><use transform="matrix(0.07407407407407408,0,0,0.07407407407407408,0,0)" xlink:href="#G"/><use transform="matrix(0.07407407407407408,0,0,0.07407407407407408,19.185185185185187,0)" xlink:href="#Y"/><use transform="matrix(0.07407407407407408,0,0,0.07407407407407408,35.40740740740741,0)" xlink:href="#Y"/></g></defs></g></svg>