<svg xmlns="http://www.w3.org/2000/svg" width="336" height="600" viewBox="0 0 336 600">
<style>.f{fill:#f4f4f5}.b{fill:#d4d4d8;stroke:#71717a;stroke-width:2}.w{fill:#52525b}.g{fill:#cbd5e1;stroke:#94a3b8;stroke-width:1.5}.p{fill:#fafafa;stroke:#a1a1aa;stroke-width:1.5}.h{fill:#f59e0b;stroke:#b45309;stroke-width:2}.c{fill:none;stroke:#71717a;stroke-width:2;stroke-linecap:round;stroke-linejoin:round}.t{fill:#18181b;font-size:22px;font-weight:700}.s{fill:#71717a;font-size:12px;letter-spacing:.08em}.m{fill:none;stroke:#1e3a8a;stroke-width:3}.tag{fill:#1e3a8a}.tt{fill:#fff;font-size:13px;font-weight:700}</style>
<rect class="f" width="336" height="600"/>
<rect class="w" x="64" y="88" width="22" height="60" rx="8"/><rect class="w" x="250" y="88" width="22" height="60" rx="8"/><rect class="w" x="64" y="400" width="22" height="60" rx="8"/><rect class="w" x="250" y="400" width="22" height="60" rx="8"/><path class="b" d="M114 44H222Q258 44 258 80V456Q258 484 230 484H106Q78 484 78 456V80Q78 44 114 44Z"/><ellipse class="w" cx="70" cy="204" rx="9" ry="6"/><ellipse class="w" cx="266" cy="204" rx="9" ry="6"/><path class="g" d="M98 178H238L228 226H108Z"/><path class="g" d="M108 372H228L238 412H98Z"/><rect class="p" x="104" y="56" width="128" height="118" rx="18"/><rect class="p" x="104" y="230" width="128" height="138" rx="8"/><rect class="p" x="104" y="416" width="128" height="56" rx="14"/><rect class="p" x="80" y="62" width="20" height="112" rx="6"/><rect class="p" x="236" y="62" width="20" height="112" rx="6"/><rect class="p" x="80" y="180" width="20" height="98" rx="6"/><rect class="p" x="236" y="180" width="20" height="98" rx="6"/><rect class="p" x="80" y="284" width="20" height="98" rx="6"/><rect class="p h" x="236" y="284" width="20" height="98" rx="6"/><rect class="p" x="80" y="388" width="20" height="86" rx="6"/><rect class="p" x="236" y="388" width="20" height="86" rx="6"/><path class="c" d="M160 34L168 22L176 34"/>
<rect class="f" x="0" y="520" width="336" height="80"/><line x1="24" y1="520" x2="312" y2="520" stroke="#d4d4d8"/><text class="t" x="168" y="556" text-anchor="middle" font-family="system-ui,-apple-system,'Segoe UI',Roboto,sans-serif">Right rear door</text><text class="s" x="168" y="582" text-anchor="middle" font-family="system-ui,-apple-system,'Segoe UI',Roboto,sans-serif">PAINT THICKNESS · PLAN VIEW</text>
</svg>
